<svg viewBox="0 0 233 81" fill="none" xmlns="http://www.w3.org/2000/svg"><path d="M82 47.767s-2.852 7.752-11.229 8.568c0 0 18.383-11.243 7.743-34.229 0 0 .317 7.617-2.672 11.244 0 0 3.758-20.447-12.496-27.655.634.317 2.626 1.904 3.305 8.477 0 0-13.72-22.396-42.244-10.88 0 0 26.397-1.632 37.082 16.729 9.237 15.867 5.253 29.06-1.901 36.269-3.124 3.446-8.24 6.256-15.214 5.984-7.56-.317-14.171-7.934-14.941-15.187-.453-3.4.407-7.073 4.256-10.382 0 0 6.792-5.395 13.357 0 0 0 2.218 2.085 1.404 5.123 0 0 8.466-3.763 4.437-11.97-4.03-8.205-14.987-6.8-14.987-6.8s-6.248.408-11.546 2.494c0 0 3.713-.635 5.75 1.405 0 0-10.323 1.134-12.949 5.531 0 0 1.947-1.45 4.8-.861 0 0-6.249 4.67-8.15 10.88 0 0-11.275-15.323 0-33.548 0 0-39.392 36.632 6.203 67.052 0 0-6.792-6.846-6.34-14.1 0 0 16.482 32.688 48.764 12.513 0 0-10.595 1.723-17.114-2.538 0-.046 31.06 3.627 34.682-24.12z" fill="#515151"/><path d="M82 47.767s-2.852 7.752-11.229 8.568c0 0 18.383-11.243 7.743-34.229 0 0 .317 7.617-2.672 11.244 0 0 3.758-20.447-12.496-27.655.634.317 2.626 1.904 3.305 8.477 0 0-13.72-22.396-42.244-10.88 0 0 26.397-1.632 37.082 16.729 9.237 15.867 5.253 29.06-1.901 36.269-3.124 3.446-8.24 6.256-15.214 5.984-7.56-.317-14.171-7.934-14.941-15.187-.453-3.4.407-7.073 4.256-10.382 0 0 6.792-5.395 13.357 0 0 0 2.218 2.085 1.404 5.123 0 0 8.466-3.763 4.437-11.97-4.03-8.205-14.987-6.8-14.987-6.8s-6.248.408-11.546 2.494c0 0 3.713-.635 5.75 1.405 0 0-10.323 1.134-12.949 5.531 0 0 1.947-1.45 4.8-.861 0 0-6.249 4.67-8.15 10.88 0 0-11.275-15.323 0-33.548 0 0-39.392 36.632 6.203 67.052 0 0-6.792-6.846-6.34-14.1 0 0 16.482 32.688 48.764 12.513 0 0-10.595 1.723-17.114-2.538 0-.046 31.06 3.627 34.682-24.12z" fill="url(#paint0_linear)"/><path d="M127.86 35.5a6.39 6.39 0 0 1-.876.075c-1.6 0-2.791-.392-3.575-1.175-.783-.8-1.175-2.192-1.175-4.175v-5.05c0-1.933.367-3.317 1.1-4.15.75-.833 1.85-1.25 3.3-1.25.484 0 .892.017 1.225.05v-3.9h2.825v3.9c.433-.033.858-.05 1.275-.05 1.467 0 2.567.417 3.3 1.25.75.833 1.125 2.217 1.125 4.15v5.05c0 1.917-.358 3.292-1.075 4.125-.716.817-1.716 1.225-3 1.225a17.95 17.95 0 0 1-1.625-.075v3.4h-2.825v-3.4zm-.7-1.625c.266 0 .5-.017.7-.05v-12.3c-.4-.033-.692-.05-.876-.05-.566 0-1.008.108-1.325.325-.3.217-.516.592-.65 1.125-.133.517-.2 1.267-.2 2.25v5.05c0 1.033.059 1.8.175 2.3.117.5.334.85.65 1.05.334.2.842.3 1.525.3zm4.45 0c.6 0 1.05-.1 1.35-.3.316-.2.532-.558.65-1.075.132-.517.2-1.275.2-2.275v-5.05c0-1.017-.06-1.775-.176-2.275-.117-.517-.333-.883-.65-1.1-.317-.217-.792-.325-1.425-.325-.25 0-.542.017-.875.05v12.3c.3.033.608.05.925.05zm9.052-16.125h7.85v2.1h-5.025v6.7h4.075v2h-4.075v7.425h5.075V38h-7.9V17.75zm11.68 0h2.826v8.75h5.2v-8.75h2.825V38h-2.825v-9.475h-5.2V38h-2.825V17.75zm15.514 0h2.5v14.025l5.925-14.025h2.025V38h-2.475V23.75L169.956 38h-2.1V17.75zm15.123 0h2.825v9h1.05l3.625-9h2.825l-4 9.625 4.5 10.625h-2.825l-4.1-9.875h-1.075V38h-2.825V17.75zm19.27 20.475c-2 0-3.408-.592-4.224-1.775-.817-1.2-1.225-2.85-1.225-4.95v-7.15c0-2.217.4-3.9 1.2-5.05.8-1.15 2.216-1.725 4.25-1.725 1.816 0 3.116.492 3.9 1.475.8.983 1.2 2.433 1.2 4.35V25h-2.675v-1.425c0-.933-.042-1.65-.125-2.15-.084-.5-.3-.9-.65-1.2-.334-.3-.875-.45-1.625-.45-.767 0-1.342.167-1.725.5-.367.317-.609.767-.725 1.35-.117.567-.175 1.333-.175 2.3v8.025c0 1.033.083 1.842.25 2.425.166.583.433 1 .8 1.25.383.25.908.375 1.575.375.716 0 1.25-.158 1.6-.475.35-.317.566-.75.65-1.3.1-.55.15-1.3.15-2.25v-1.5h2.675v1.5c0 2.017-.384 3.567-1.15 4.65-.75 1.067-2.067 1.6-3.95 1.6z" fill="#A9A9A9"/><path d="M6.86 27.5a6.39 6.39 0 0 1-.876.075c-1.6 0-2.791-.392-3.575-1.175-.783-.8-1.175-2.192-1.175-4.175v-5.05c0-1.933.367-3.317 1.1-4.15.75-.833 1.85-1.25 3.3-1.25.484 0 .892.017 1.225.05v-3.9h2.825v3.9c.434-.033.859-.05 1.275-.05 1.467 0 2.567.417 3.3 1.25.75.833 1.125 2.217 1.125 4.15v5.05c0 1.917-.358 3.292-1.075 4.125-.716.817-1.716 1.225-3 1.225a17.95 17.95 0 0 1-1.625-.075v3.4H6.86v-3.4zm-.7-1.625c.266 0 .5-.017.7-.05v-12.3c-.4-.033-.692-.05-.876-.05-.566 0-1.008.108-1.325.325-.3.217-.516.592-.65 1.125-.133.517-.2 1.267-.2 2.25v5.05c0 1.033.059 1.8.175 2.3.117.5.334.85.65 1.05.334.2.842.3 1.525.3zm4.45 0c.6 0 1.05-.1 1.35-.3.316-.2.532-.558.65-1.075.133-.517.2-1.275.2-2.275v-5.05c0-1.017-.06-1.775-.176-2.275-.117-.517-.333-.883-.65-1.1-.316-.217-.791-.325-1.425-.325-.25 0-.541.017-.875.05v12.3c.3.033.609.05.925.05zM19.661 9.75h7.85v2.1h-5.025v6.7h4.075v2h-4.075v7.425h5.075V30h-7.9V9.75zm11.68 0h2.826v8.75h5.2V9.75h2.825V30h-2.825v-9.475h-5.2V30h-2.825V9.75zm15.514 0h2.5v14.025L55.281 9.75h2.025V30h-2.475V15.75L48.956 30h-2.1V9.75zm15.123 0h2.825v9h1.05l3.625-9h2.825l-4 9.625L72.804 30H69.98l-4.1-9.875h-1.075V30H61.98V9.75zm19.27 20.475c-2 0-3.408-.592-4.224-1.775-.817-1.2-1.225-2.85-1.225-4.95v-7.15c0-2.217.4-3.9 1.2-5.05.8-1.15 2.216-1.725 4.25-1.725 1.816 0 3.116.492 3.9 1.475.8.983 1.2 2.433 1.2 4.35V17h-2.675v-1.425c0-.933-.042-1.65-.125-2.15-.084-.5-.3-.9-.65-1.2-.334-.3-.875-.45-1.625-.45-.767 0-1.342.167-1.725.5-.367.317-.609.767-.725 1.35-.117.567-.175 1.333-.175 2.3v8.025c0 1.033.083 1.842.25 2.425.166.583.433 1 .8 1.25.383.25.908.375 1.575.375.716 0 1.25-.158 1.6-.475.35-.317.566-.75.65-1.3.1-.55.15-1.3.15-2.25v-1.5h2.675v1.5c0 2.017-.384 3.567-1.15 4.65-.75 1.067-2.067 1.6-3.95 1.6z" transform="translate(121 8)" fill="url(#paint1_linear)"/><path d="M101.014 57.596h6.048V68h-1.926v-8.946h-2.196V68h-1.926V57.596zm11.94 10.548c-1.104 0-1.89-.324-2.358-.972-.456-.66-.684-1.614-.684-2.862v-3.024c0-1.248.228-2.196.684-2.844.468-.66 1.254-.99 2.358-.99 1.092 0 1.866.33 2.322.99.468.648.702 1.596.702 2.844v3.024c0 1.248-.234 2.202-.702 2.862-.456.648-1.23.972-2.322.972zm0-1.422c.348 0 .6-.102.756-.306.156-.204.252-.456.288-.756.036-.3.054-.708.054-1.224v-3.258c0-.516-.018-.924-.054-1.224a1.538 1.538 0 0 0-.288-.774c-.156-.204-.408-.306-.756-.306-.348 0-.606.102-.774.306a1.538 1.538 0 0 0-.288.774c-.036.3-.054.708-.054 1.224v3.258c0 .516.018.924.054 1.224.036.3.132.552.288.756.168.204.426.306.774.306zm7.394-4.194l-2.286-4.932h1.836l1.53 3.294 1.35-3.294h1.89l-2.376 5.166L124.704 68h-1.836l-1.638-3.528L119.826 68h-1.818l2.34-5.472zm9.408 5.616c-1.104 0-1.89-.324-2.358-.972-.456-.66-.684-1.614-.684-2.862v-3.024c0-1.248.228-2.196.684-2.844.468-.66 1.254-.99 2.358-.99 1.092 0 1.866.33 2.322.99.468.648.702 1.596.702 2.844v3.024c0 1.248-.234 2.202-.702 2.862-.456.648-1.23.972-2.322.972zm0-1.422c.348 0 .6-.102.756-.306.156-.204.252-.456.288-.756.036-.3.054-.708.054-1.224v-3.258c0-.516-.018-.924-.054-1.224a1.538 1.538 0 0 0-.288-.774c-.156-.204-.408-.306-.756-.306-.348 0-.606.102-.774.306a1.538 1.538 0 0 0-.288.774c-.036.3-.054.708-.054 1.224v3.258c0 .516.018.924.054 1.224.036.3.132.552.288.756.168.204.426.306.774.306zm5.865-9.126h1.926v.828c.564-.648 1.224-.972 1.98-.972.948 0 1.578.408 1.89 1.224.324.804.486 1.698.486 2.682v2.52c0 1.272-.198 2.304-.594 3.096-.384.78-1.05 1.17-1.998 1.17-.612 0-1.2-.306-1.764-.918v4.194h-1.926V57.596zm3.312 9.036c.444 0 .726-.222.846-.666.132-.456.198-1.152.198-2.088v-2.52c0-.768-.072-1.356-.216-1.764-.144-.42-.444-.63-.9-.63-.444 0-.882.18-1.314.54v6.66c.42.312.882.468 1.386.468zm8.663 1.512c-1.104 0-1.89-.324-2.358-.972-.456-.66-.684-1.614-.684-2.862v-3.024c0-1.248.228-2.196.684-2.844.468-.66 1.254-.99 2.358-.99 1.092 0 1.866.33 2.322.99.468.648.702 1.596.702 2.844v3.024c0 1.248-.234 2.202-.702 2.862-.456.648-1.23.972-2.322.972zm0-1.422c.348 0 .6-.102.756-.306.156-.204.252-.456.288-.756.036-.3.054-.708.054-1.224v-3.258c0-.516-.018-.924-.054-1.224a1.538 1.538 0 0 0-.288-.774c-.156-.204-.408-.306-.756-.306-.348 0-.606.102-.774.306a1.538 1.538 0 0 0-.288.774c-.036.3-.054.708-.054 1.224v3.258c0 .516.018.924.054 1.224.036.3.132.552.288.756.168.204.426.306.774.306zm5.864-9.126h1.926v4.374h2.466v-4.374h1.926V68h-1.926v-4.626h-2.466V68h-1.926V57.596zm9.342 0h1.926v4.374h2.466v-4.374h1.926V68h-1.926v-4.626h-2.466V68h-1.926V57.596zm12.204 10.548c-1.104 0-1.89-.324-2.358-.972-.456-.66-.684-1.614-.684-2.862v-3.024c0-1.248.228-2.196.684-2.844.468-.66 1.254-.99 2.358-.99 1.092 0 1.866.33 2.322.99.468.648.702 1.596.702 2.844v3.024c0 1.248-.234 2.202-.702 2.862-.456.648-1.23.972-2.322.972zm0-1.422c.348 0 .6-.102.756-.306.156-.204.252-.456.288-.756.036-.3.054-.708.054-1.224v-3.258c0-.516-.018-.924-.054-1.224a1.538 1.538 0 0 0-.288-.774c-.156-.204-.408-.306-.756-.306-.348 0-.606.102-.774.306a1.538 1.538 0 0 0-.288.774c-.036.3-.054.708-.054 1.224v3.258c0 .516.018.924.054 1.224.036.3.132.552.288.756.168.204.426.306.774.306zm8.744 1.422c-.804 0-1.428-.15-1.872-.45-.444-.312-.756-.768-.936-1.368-.18-.6-.27-1.38-.27-2.34V61.61c0-1.44.222-2.49.666-3.15.456-.672 1.26-1.008 2.412-1.008.84 0 1.47.174 1.89.522.432.348.714.84.846 1.476.144.624.216 1.47.216 2.538v.846h-4.104v2.088c0 .636.09 1.098.27 1.386.192.276.492.414.9.414.408 0 .684-.138.828-.414.144-.288.216-.72.216-1.296v-.63h1.872v.396c0 1.092-.234 1.926-.702 2.502-.468.576-1.212.864-2.232.864zm1.062-6.354v-.936c0-.708-.072-1.212-.216-1.512-.132-.312-.42-.468-.864-.468-.312 0-.552.072-.72.216-.156.144-.264.384-.324.72-.06.324-.09.798-.09 1.422v.558h2.214zm12.77 6.354c-.912 0-1.626-.306-2.142-.918-.504-.624-.756-1.518-.756-2.682v-6.12c0-.912.066-1.65.198-2.214.144-.576.36-1.032.648-1.368.3-.336.696-.606 1.188-.81.36-.144.918-.312 1.674-.504.432-.108.786-.204 1.062-.288.288-.096.582-.234.882-.414l.396 1.602a4.133 4.133 0 0 1-.846.378c-.3.096-.66.192-1.08.288-.06.012-.258.06-.594.144a5.26 5.26 0 0 0-.9.306c-.36.18-.636.444-.828.792-.18.348-.27.81-.27 1.386v1.674c.252-.24.594-.456 1.026-.648.444-.192.858-.288 1.242-.288.708 0 1.278.294 1.71.882.444.588.666 1.536.666 2.844v1.98c0 1.044-.138 1.86-.414 2.448-.264.576-.636.978-1.116 1.206-.468.216-1.05.324-1.746.324zm.216-1.422c.396 0 .678-.15.846-.45.18-.3.27-.804.27-1.512v-3.15c0-.66-.072-1.128-.216-1.404-.132-.288-.366-.432-.702-.432-.396 0-.858.18-1.386.54v4.284c0 .768.09 1.314.27 1.638.18.324.486.486.918.486zm11.726 1.422c-.996 0-1.698-.324-2.106-.972-.396-.648-.594-1.602-.594-2.862v-.882h-1.44V68h-1.692V57.596h1.692v4.554h1.44v-.864c0-1.26.198-2.214.594-2.862.408-.648 1.11-.972 2.106-.972.996 0 1.692.324 2.088.972.408.648.612 1.602.612 2.862v3.024c0 1.26-.204 2.214-.612 2.862-.396.648-1.092.972-2.088.972zm0-1.422c.312 0 .54-.102.684-.306.144-.204.234-.456.27-.756.036-.3.054-.708.054-1.224v-3.258c0-.516-.018-.924-.054-1.224-.036-.312-.126-.57-.27-.774-.144-.204-.372-.306-.684-.306-.312 0-.54.102-.684.306-.144.204-.234.462-.27.774-.036.3-.054.708-.054 1.224v3.258c0 .516.018.924.054 1.224.036.3.126.552.27.756.144.204.372.306.684.306zm5.567-9.126h1.926v.828c.564-.648 1.224-.972 1.98-.972.948 0 1.578.408 1.89 1.224.324.804.486 1.698.486 2.682v2.52c0 1.272-.198 2.304-.594 3.096-.384.78-1.05 1.17-1.998 1.17-.612 0-1.2-.306-1.764-.918v4.194h-1.926V57.596zm3.312 9.036c.444 0 .726-.222.846-.666.132-.456.198-1.152.198-2.088v-2.52c0-.768-.072-1.356-.216-1.764-.144-.42-.444-.63-.9-.63-.444 0-.882.18-1.314.54v6.66c.42.312.882.468 1.386.468zm8.663 1.512c-1.104 0-1.89-.324-2.358-.972-.456-.66-.684-1.614-.684-2.862v-3.024c0-1.248.228-2.196.684-2.844.468-.66 1.254-.99 2.358-.99 1.092 0 1.866.33 2.322.99.468.648.702 1.596.702 2.844v3.024c0 1.248-.234 2.202-.702 2.862-.456.648-1.23.972-2.322.972zm0-1.422c.348 0 .6-.102.756-.306.156-.204.252-.456.288-.756.036-.3.054-.708.054-1.224v-3.258c0-.516-.018-.924-.054-1.224a1.538 1.538 0 0 0-.288-.774c-.156-.204-.408-.306-.756-.306-.348 0-.606.102-.774.306a1.538 1.538 0 0 0-.288.774c-.036.3-.054.708-.054 1.224v3.258c0 .516.018.924.054 1.224.036.3.132.552.288.756.168.204.426.306.774.306z" fill="#9C9C9C"/><path fill="#71A3E8" d="M99 48h134v1H99z"/><defs><linearGradient id="paint0_linear" x2="1" gradientUnits="userSpaceOnUse" gradientTransform="matrix(0 81 -82 0 82 0)"><stop stop-color="#E7E7E7"/><stop offset="1" stop-color="#fff" stop-opacity="0"/></linearGradient><linearGradient id="paint1_linear" x2="1" gradientUnits="userSpaceOnUse" gradientTransform="matrix(0 38 -89 0 89 0)"><stop stop-color="#fff"/><stop offset="1" stop-color="#fff" stop-opacity="0"/></linearGradient></defs></svg>