<svg viewBox="0 0 405 321" fill="none" xmlns="http://www.w3.org/2000/svg"><g style="mix-blend-mode:screen"><path d="M.102 170.823v-41.686c.455.368 1.163.613 1.315 1.104 1.011 3.555 3.641 4.536 6.17 2.023-.252-1.104-.556-2.207-.809-3.31a7.03 7.03 0 0 0 .557-.736c1.214.98 2.427 2.023 3.59 3.004.254-.062.507-.062.76-.123-.152-1.103-.203-2.268-.506-3.31-.253-.981-.86-1.9-.961-2.943-.354-3.126-2.58-6.007-5.109-6.069-1.67 0-3.338.368-5.007.552v-14.1c4.552-.92 9.104-2.636 13.05 2.146.202.245 1.72-.306 1.82-.797.81-3.249 2.074-6.008 3.895-8.705 1.72-2.575 3.44-4.536 6.07-4.72 1.922-.123 3.844.552 5.766.552 2.782-.062 5.867.306 8.295-.981 2.377-1.226 4.552-1.288 6.677-.613 1.669.49 2.782.306 4.198-.797 3.54-2.882 6.424-2.023 8.396 1.9 4.35-.43 8.548-.797 12.747-1.165 0-.184.05-.367.05-.551-1.972-.368-3.894-.797-5.766-1.165 1.265-5.885 5.007-5.763 8.396-5.701 2.985.061 6.525-.859 8.397 3.433-2.378 1.655-4.603 3.249-7.183 5.088 1.518 1.348 2.479 1.961 3.237 2.881 2.63 3.372 4.603 7.908 9.409 6.805.1 0 .202.306.354.551-.253 3.065-2.175 2.146-3.895 1.962.202 3.188.404 6.13.556 8.705 1.77-1.287 3.339-3.004 5.109-3.433 2.225-.552 2.478-1.655 1.871-3.74-.354-1.287-.809-2.513-1.466-4.597 1.517.552 2.478.674 3.136 1.165 1.568 1.226 3.085 2.636 4.552 4.107.96.98 2.023 2.084 2.63 3.433 1.973 4.168 1.922 4.23 5.31 2.023.204-.123.355-.368.507-.49-.152-.736-.253-1.41-.455-2.575 2.833.98 5.918-1.226 7.84 3.004.809 1.777 1.922.735 2.226-.859.455-2.574.657-5.272 3.085-6.436.253-.123.405-.675.506-1.043.556-3.187 1.972-2.39 3.49-1.164 1.01.735 2.074 1.41 3.136 2.084l.607-.552c-.304-1.41-.658-2.82-.86-4.291-.354-2.513-1.366-5.517-.658-7.54 1.012-2.881 1.973-6.192 5.21-7.602 3.59-1.594 6.98-2.881 10.875-2.39 2.276.306 3.642 2.513 5.412 3.187 3.086 1.104 4.704 3.678 6.525 6.314-.455.797-.86 1.41-1.214 2.085-.81.429-1.67.858-2.832 1.47-.102-.183-.203-.612-.405-.919-2.934-3.923-7.79-2.82-9.206 2.023-.81 2.82-3.338 4.108-5.766 3.188-1.163-.43-2.428-.306-3.692-.368v.92l3.186 3.31c-.202.245-.354.49-.556.736-.506-.49-.961-.92-1.467-1.41-1.416 2.82-.405 5.088 2.175 5.824 1.467.429 2.782 1.655 4.249 2.084 1.972.613 3.996 1.165 5.968 1.103.96 0 2.428-1.41 2.68-2.452 1.164-5.578 2.732-10.912 5.616-15.51 2.529-2.022 4.956-4.29 7.637-6.007 4.3-2.82 8.498-6.866 13.91-3.556-.658 3.25-2.124 4.414-6.373 4.537 1.113.735 1.77 1.287 2.478 1.655 4.552 2.39 8.043 6.069 10.116 11.709.203.49.81.797 1.265 1.165.809-2.146 1.972.06 2.934-.368-.911 1.042-1.872 2.023-2.681 3.187-.203.307 0 .981 0 1.533.354-.061.758-.061 1.062-.245 2.73-1.84 5.463-3.617 8.143-5.579.709-.551 1.113-1.655 2.024-3.065-3.44 1.717-6.02 3.004-8.65 4.291.152-.367.304-.92.506-1.042 1.973-.858 3.794-2.145 4.148-4.72.253-1.717-.253-3.617-.405-5.701 2.023-.552 4.4-1.288 7.08-2.023-1.213-1.104-3.59-1.471-1.364-3.678-1.315-1.9-1.265-1.9-.81-4.66.203-1.47.709-3.923.253-4.23-3.085-2.329-.961-5.64-1.416-8.398-.152-.797.455-1.778.658-2.513-.86-.307-2.53-.307-2.883-1.104-.456-.98.202-2.697.252-3.31 44.41 2.33 88.314 1.655 132.572 1.594-.455.797-1.062 1.839-1.315 2.207-.202 3.617.05 6.988-.657 10.053-.76 3.31-.455 4.598 2.326 4.476 5.716-.246 11.432-.43 17.147-.675.708-.061 1.417-.429 2.125-.797 3.844-1.961 7.738-2.268 11.836-.858 3.388 1.165 6.98 2.39 9.559-2.39.557-1.043 1.922-1.779 2.984-2.085 2.074-.552 4.199-.674 6.374-.98-.152-.369-.354-.798-.607-1.472 3.642.98 7.03 1.9 10.419 2.881.607.184 1.417 1.226 1.72 1.042 2.327-1.655 3.035.981 4.047 2.023 1.517-.184 2.78-.368 4.097-.49 4.097-.246 8.244-.43 12.34-.675V101c-2.831.306-5.664.551-9.053.919 1.82-3.74 2.934-7.111 1.366-10.85-1.467-3.495-3.692-5.763-7.233-7.418 0 3.188.05 5.701 0 8.214-.051 2.391.253 5.027-2.984 5.885-.304-2.88-1.164-5.885-.76-8.582.557-3.617-.404-6.56-1.77-9.257-.758-1.532-2.528-3.065-3.945-3.187-3.894-.368-7.89 0-11.785.183-2.832.123-6.525 5.947-5.766 9.073.506 2.023 1.264 3.924 1.922 5.885 2.58-1.103 5.007-1.961 7.638-.122.91.613 2.68.674 3.54.061 2.276-1.716 4.3-.184 6.272.49.91.307 1.568 2.146 2.074 3.433.1.246-1.264 1.41-2.074 1.9-.86.491-1.821.736-2.782 1.104.354.552.658 1.042 1.012 1.594l-.455.552c-1.973-2.084-3.946-4.107-5.615-5.885-1.416 1.226-2.984 2.023-3.743 3.433-1.517 2.758-2.832 2.82-4.704 0-.253 3.188-.455 5.824-.708 8.582 3.389-.613 4.957-3.433 5.766-7.234.304.184.658.43.96.614-.454 1.47-.91 2.88-1.263 4.045 2.225.184 4.45.368 6.727.49-.101 2.943-.101 2.943 1.872 2.514-.961-1.961-1.922-3.923-3.187-6.375 3.49 3.31 6.474 6.191 9.813 9.38 1.618-1.288 2.478-3.74 2.933-6.438.05-.184-.101-.49-.253-.735-1.77-2.575-.961-5.15 1.872-5.824.05.306.152.613.152.858-.354 3.556-.152 3.74 2.63 2.881.506-.122 1.062.062 2.276.123-1.265 1.287-1.973 1.962-2.681 2.697 1.062 2.33 2.074 4.475 2.833 6.13 1.163-.06 2.074 0 2.933-.245 1.012-.245 1.922-.92 2.883-1.164 1.063-.307 2.226-.307 3.339-.43v212.047H.152V177.567c1.568-.797 3.086-1.594 2.53-4.476-.911.307-1.72.552-2.53.797v-1.839c.658-.122 1.315-.184 1.973-.429a5.573 5.573 0 0 0 1.618-1.103c.051-.062-.253-1.104-.455-1.165-.607-.184-1.366-.245-1.922 0-.556.184-.86.92-1.264 1.471zm165.753-42.115c-1.872.123-3.794.246-6.171.368 1.315 2.084 2.529 2.514 3.996 1.471.759-.551 1.467-1.226 2.175-1.839-.506 1.349-1.012 2.698-1.568 4.046.253.246.455.49.708.736 1.012-.92 2.074-1.9 3.439-3.127-1.315-.797-1.922-1.226-2.58-1.655zm101.009 48.062c-.657.858-1.315 1.777-2.073 2.82.657.49 1.163.919 1.719 1.287a22.577 22.577 0 0 1-.961 1.778c3.49-.859 3.693-2.33 1.265-5.885.202-1.288.91-3.433.556-3.74-1.062-.981-2.58-1.226-4.25-1.839.558 3.188.457 6.253 3.744 5.579zM55.892 145.137c-.86 1.656-1.77 3.31-3.035 5.702 1.315 1.348 2.681 2.82 4.047 4.29l.303-.367c-.405-.92-.81-1.84-1.568-3.433a614.45 614.45 0 0 0 3.136 2.697c.152-.122.304-.245.405-.368-1.062-2.88-2.175-5.7-3.288-8.52 1.77 2.88 3.54 5.762 5.564 9.195.961-3.985-1.872-5.272-2.68-7.602-.304-.797-1.569-1.103-2.429-1.594-.1-.122-.303 0-.455 0zM280.167 266.15c-.607-.613-1.163-1.717-1.821-1.717-3.136-.245-6.322-.551-9.458-.245-2.175.184-4.907 5.211-4.704 7.602.252 3.371 1.466 6.069 3.186 8.705.86 1.41 3.187 1.778 2.63 4.659-.05.184 2.479 1.165 3.844 1.778.203-1.227.607-2.514.506-3.74-.253-2.329-.81-4.659-1.214-6.988 1.113 2.39 1.872 4.842 2.782 7.233.253.613.96 1.349 1.366 1.288.506-.062 1.214-.859 1.315-1.472.202-1.226.152-2.574.05-3.862-.303-4.536-.86-9.134 1.518-13.241.455 1.165.809 2.452 1.366 3.555.809 1.594 1.669 3.311 2.782 4.598.455.552 1.669.368 2.478.123.202-.062.253-1.594.152-2.391-.101-.92-.506-1.717-.607-2.636-.455-3.74-3.288-5.272-6.171-3.249zm39.756-138.667c-.91-.552-1.77-1.532-2.731-1.594-6.575-.306-13.1-.551-19.676-.49-2.782.061-5.513 1.226-8.295 1.349-6.323.245-12.645.245-18.917.245-11.684-.062-23.368-.184-35.103-.245-4.148 0-8.245.183-12.392.06-.911 0-1.821-.673-2.681-1.103-.76-.367-1.467-1.287-2.125-1.226-2.883.307-5.715 1.165-8.548 1.288-4.451.184-8.902-.184-13.404-.245-2.832-.062-3.591.92-3.641 4.23 0 .98-.152 2.084-.557 2.88-.91 2.024-2.023 3.924-2.984 5.702-.81-3.985-4.401-1.41-6.626-2.943.657.675 1.315 1.349 2.074 2.207-.506.858-.961 1.594-1.366 2.33-1.315 2.513-1.214 6.866.506 8.46 1.87 1.777 3.085 3.494 1.366 5.885.859.245 1.82.183 2.276.735 1.416 1.778 2.984 2.391 5.007 1.84.809-.185 1.669-.123 2.529 0 1.416.183 2.833.49 4.198.735-.202-2.207 2.125-1.41 2.479-2.943.1-.306.152-.674.05-.245-3.338-.368-6.524-.674-9.711-1.165-.506-.06-1.265-.98-1.265-1.532-.05-.552.557-1.471 1.063-1.778a5.655 5.655 0 0 1 2.63-.674c2.124.061 4.198.306 6.272.429 2.883.122 4.4-1.778 4.805-5.272.1-.736.96-1.9 1.467-1.962a182.86 182.86 0 0 1 11.583-.368c7.739.062 15.477.368 23.216.43 22.812.06 45.624.06 68.436.06h13.91c-.102-2.145-.405-2.942-2.074-2.942-13.05.123-26.1.123-39.15.123-15.477 0-30.955-.123-46.433-.123-9.51 0-19.018 0-28.527.062-1.62 0-2.428-.368-1.72-2.514H322.2c0-.306.05-.613.05-.92-1.214-.122-2.428-.367-3.642-.367-37.53-.062-75.112-.062-112.643-.184-2.63 0-5.26-1.288-7.89-1.962.05-.245.05-.429.1-.674h123.418c-.405-1.9-.708-3.433-1.063-4.966 5.31 6.376 4.603 14.345 3.44 22.008-.405 2.575-.304 4.291.556 6.375a152.055 152.055 0 0 0 3.592-2.636c.758 1.533 1.365 2.82 2.377 4.843 1.062-3.126 1.87-5.394 2.73-7.969.709-.184 1.923-.552 3.087-.858-.102-1.655.05-3.433-.304-5.027-.607-2.759-.556-4.843 2.226-5.64-3.086-2.636-6.02-5.088-9.307-7.847a306.548 306.548 0 0 0 3.186-2.697c-3.54 3.494-5.311.061-7.384-2.636-.557-.736-1.315-1.287-2.074-1.655-.81-.368-1.67-.43-2.53-.674-.1 1.41-.151 2.574-.202 3.8zm-211.427 4.72c-2.832-1.042-5.766-1.838-8.498-3.249-1.669-.858-2.984-.858-4.147.49-2.985 3.311-6.677 2.82-10.218 3.127-.556.062-1.517-1.042-1.72-1.839-.252-.92-.151-2.513.355-3.065 2.832-3.249 6.07-5.701 10.166-5.517-.91-3.31-1.871-6.62-2.832-10.115-4.755 3.985-9.256 7.908-9.206 15.387 0 3.004.101 6.498 2.378 8.889.607 3.984-1.922 6.375-3.895 8.95 2.63-1.165 5.26-2.33 7.84-3.555.101.306.202.551.303.858a3155 3155 0 0 0-14.92 7.97c-.052.244-.153.55-.203.796 1.264.49 2.63 1.594 3.793 1.41 2.782-.49 5.766-1.165 8.245-2.697 1.619-1.042 5.16-.613 4.3-5.027l-.051.122c.708.123 1.517.123 2.175.49 5.108 2.576 10.217 5.212 15.326 7.786 2.833 1.41 4.603 3.372 4.856 7.602.253 3.984 1.517 7.847 2.327 11.77h14.516c-1.416 1.778-2.377 2.942-3.692 4.536 4.097.675 6.727 3.188 7.233 7.97a352.65 352.65 0 0 0 7.334-1.901 3386.86 3386.86 0 0 0-3.035-13.118c-1.568.735-3.237 2.268-4.451 1.9-1.012-.307-1.568-2.881-2.276-4.414 2.68-3.433 2.377-8.705-.708-10.973.404-.184.708-.49.96-.43 2.226.185 2.985-.98 3.086-3.739.1-3.126.86-6.252 1.366-9.318.152 0 .303.062.455.062v9.624c.708.123 1.315.245 1.467.245v13.242c.96-2.207 1.669-4.66 3.035-6.498 1.062-1.533 1.01-2.514.404-4.046-.354-.797-.556-1.655-.758-2.514-.557-2.82-1.113-5.7-1.568-8.52-.152-.92 0-1.901 0-2.82.708.674 1.82 1.164 2.023 1.961 1.113 4.659 2.074 9.44 3.035 14.1.354-.307.91-1.042 1.517-1.288 2.782-1.103 2.934-3.249 1.77-5.946-2.63-6.008-5.412-11.954-8.042-18.023-.86-2.023-2.124-2.759-3.894-2.513-4.603.613-9.004-.307-13.101-2.943-.556-.368-1.568.061-2.225.43-1.821.98-3.44 2.39-5.665.98-.71-.43-2.175.429-3.086 1.042-.86.552-1.467 1.655-2.175 2.513l.1-.183zm-27.567-20.045c-.556-2.76-.91-5.15-1.517-7.418-.607-2.33-1.416-2.697-3.136-.736-3.844 4.414-8.346 6.253-13.606 3.862-1.467-.674-3.086-.92-4.603-1.164-1.973-.307-2.58 1.164-2.782 3.249-.202 2.084-.05 3.862 2.023 4.107.253 2.636-.253 4.352-2.428 3.8-.505 3.066-.96 5.824-1.466 8.828-2.125-1.471-2.479-3.065-.81-5.394-2.276-.123-4.957 1.164-5.108-3.066 1.011-.245 1.922-.49 2.984-.735-.152-1.9-.405-3.617-.304-5.333.152-2.637-.809-3.127-2.73-2.698-2.075.49-4.149.858-6.222 1.165-1.973.306-3.541 1.103-4.4 3.433-.86 2.452-1.822 4.843-2.884 7.601-.708-1.348-1.163-2.329-1.67-3.249-.201 2.146-.353 4.66.557 5.947 1.467 1.961 2.125 3.678 1.113 6.007 4.35 1.41 5.969 8.89 11.735 6.192-.557 3.74-1.012 6.743-1.417 9.625 2.074.98 2.277-.246 2.327-2.085.101-2.39.455-4.72.658-7.11.354.06.708.122 1.011.183-.253 1.533-.455 3.004-.708 4.536l.607.184c.759-1.9 1.366-3.923 2.377-5.64.86-1.47.152-4.659 3.035-4.107.304 1.226.607 2.452.86 3.556 2.125-.797 4.35-1.165 6.07-2.514 1.922-1.47 3.389-3.8 5.058-5.762l.303.368c-.202.858-.455 1.777-.809 3.065 2.782-.245 5.16-.49 7.79-.736-.658-1.287-1.012-1.961-1.316-2.575l.506-.613c1.062 1.043 2.175 1.962 3.086 3.066 1.618 1.961 2.782 1.042 4.046-.552.607-.797 1.265-1.471 2.226-2.575-.253-1.165-.658-2.82-1.063-4.598-1.82 1.288-3.136 2.698-4.653 3.25-1.467.49-3.187.122-4.957.122-.05-.184-.202-.49-.303-.92-.86-3.8-.86-3.8-3.288-1.103-1.467 1.655-4.856 2.452-6.373 1.349-.759-.552-1.467-1.349-2.074-2.207-.658-.858-1.163-1.84-1.72-2.759.86-.735 1.619-1.9 2.53-2.084 1.719-.368 3.49-.245 5.26-.245h14.719c-.456-2.33-.81-4.414-1.164-6.376.557.368 1.265.49 2.63.859zm247.998-6.008c1.82.552 3.49.98 4.805 1.349 1.416 3.003 2.68 5.946 4.198 8.766.506.98 1.518 1.962 2.428 2.145 1.922.43 4.148-.245 5.918.552 2.074.981 5.564-.306 5.918 4.414.05.368 1.366 1.103 1.82.858 2.277-1.287 4.806-.061 7.234-2.207 2.579-2.33 4.198-7.417 1.618-11.218.203 2.207.354 3.74.506 5.333-.303.062-.556.123-.86.184-.253-.98-.758-1.961-.758-3.004 0-6.007-.354-11.831-1.973-17.593-1.163-4.17-1.467-5.15-5.058-6.008-3.187-.736-6.373-1.349-9.51-2.207-5.31-1.471-8.8.98-8.851 6.253 0 1.042-.556 2.145-.76 3.188-.403 1.9.052 2.39 1.772 2.268 2.377-.123 4.805.306 7.132.92 1.416.367 1.87 1.777 1.264 3.616-.76 2.452-2.832 4.537-4.906 4.046-2.63-.613-5.16-1.778-7.74-2.758-.252-.123-.505-.797-.505-1.165.152-3.31-1.264-5.517-2.984-7.97-1.467-2.084-2.074-2.39-3.288.613-.81-1.164-1.517-1.961-1.922-2.942-1.821-4.107-3.39-4.843-8.143-3.433 1.062.368 1.669.797 2.225.674 2.125-.49 2.68.675 2.63 3.004 0 2.881 0 5.763.304 8.582.1.981 1.062 2.023 1.87 2.514.305.184 1.215-.858 2.126-1.594.607.184 1.972.552 3.439.92-.05.674 0 1.287.05 1.9zm-59.584-8.092c.96 5.15-.051 9.44-1.872 13.548-.253.552-1.214.98-1.821.98-6.575.062-13.151.123-19.675 0-.71 0-1.821-.796-2.024-1.532-.81-2.636-1.264-5.456-1.922-8.153-.202-.797-.657-1.471-.961-2.146-.404.675-.91 1.288-1.113 2.023-.708 2.698-1.264 5.456-1.972 8.153-.152.613-.658 1.533-1.012 1.533-2.428.123-4.856.184-7.283 0-2.48-.184-5.008-.797-7.486-.797-.76 0-1.518 1.594-2.226 2.514.708.49 1.416 1.41 2.124 1.41 2.479 0 4.957-.552 7.436-.49 2.934.122 6.019-1.534 8.902 1.041.759.675 2.479.736 3.389.184 3.59-2.207 7.385-1.287 11.027-1.226 5.563.123 11.127.674 16.69 1.042.912.061 1.873.061 2.783 0 2.377-.245 4.755-.858 7.132-.92 3.389-.06 6.778.43 10.167.43.809 0 1.568-.981 2.377-1.533-.911-.858-1.72-2.084-2.731-2.575-.961-.429-2.175 0-3.238.062-3.338.306-6.676.735-10.015.797-.758 0-1.871-.797-2.276-1.594-1.871-3.985-2.53-8.276-1.568-12.935-1.062.184-1.871.184-2.832.184zM26.1 103.452c.05.429.152.92.202 1.348-1.062.307-2.124 1.042-3.085.797-2.124-.49-2.53.981-2.63 2.881-.05 1.104.151 2.207.354 3.31.354 1.962 1.416 2.453 2.478.982 2.074-3.004 4.451-3.31 7.486-1.533.455-1.532.86-2.881 1.366-4.475-.759-.184-1.265-.061-1.518-.368-.607-.674-1.062-1.471-1.618-2.207.708 0 1.416-.061 2.124-.061 1.315-.061 2.782.245 3.946-.307 2.58-1.164 5.007-2.758 7.435-4.29.506-.307 1.214-.982 1.163-1.288-.1-.675-.607-1.471-1.113-1.778-.758-.429-1.618-.552-2.427-.49-5.26.306-10.521.551-15.73 1.164-.962.123-1.72 2.023-2.58 3.066.758.858 1.517 1.777 2.377 2.513.455.43 1.163.49 1.77.736zm132.37 19.678l.759.551c6.12-2.82 12.19-5.7 18.158-8.46a439.645 439.645 0 0 1-.506-4.72c-.354-3.8-3.287-5.7-6.02-3.74-3.286 2.392-6.625 4.782-9.862 7.235-1.012.735-1.973 1.655-.607 3.249.253.306.05 1.348-.152 1.9-.505 1.349-1.163 2.636-1.77 3.985zm2.984 182.375c2.125-.858 3.389-1.594 2.934-4.781-.506-3.249-.101-6.744-.051-10.115.05-2.575-.657-4.169-3.034-4.475-2.934-.368-5.16.735-5.817 3.31-1.214 4.782.809 12.567 4.198 15.939.152-.736.354-1.472.556-2.514.557 1.104.86 1.778 1.214 2.636zm-31.006-191.387c.759-2.575.05-3.249-1.517-3.004-.506.062-1.012.123-1.517.062-1.265-.123-2.58-.368-3.845-.552-.05 1.655-.05 3.372-.101 5.027-.05 2.207.304 3.8 2.58 3.862.657 0 1.467.674 1.87 1.287 1.974 3.004 4.048 5.701 7.639 5.088.91-.184 2.478-.429 2.63-.98.304-1.35.304-3.495-.354-4.292-1.416-1.655-3.338-2.574-5.007-3.923-.86-.613-1.568-1.655-2.378-2.575zm6.728 96.613c-.304-.061-.658-.122-.961-.184-.557 1.839-1.113 3.617-1.568 5.518-.658 2.513-.911 5.333-1.973 7.479-1.163 2.329-1.366 3.984.152 5.946 1.517 1.962 3.338 1.839 5.108.858.658-.368 1.265-1.9 1.214-2.82-.354-4.843-.91-9.624-1.416-14.467-.152-.797-.405-1.533-.556-2.33zm73.949-51.31c-2.833-2.39-6.93-2.82-7.79-7.847-.607 3.924-.354 7.48 2.074 10.422.86 1.042 1.568 2.39 2.276 3.617.96 1.593 1.77 1.777 2.934.122 2.074-2.881 4.35-5.64 6.575-8.521-2.276.184-4.653.368-6.98.49.354.552.607 1.104.91 1.717zm-82.093 61.364c-2.175-4.23-4.25-8.276-6.322-12.383-.253.122-.456.306-.71.429.254 1.042.558 2.084.81 3.188.91 4.597 2.125 9.195 2.68 13.915.356 3.372 2.025 3.801 4.048 4.353.809-3.433-.708-7.295 1.618-10.544-.758.368-1.517.735-2.124 1.042zM20.283 301.398c.253.123.455.306.708.429.405-.306.76-.674 1.164-.919 1.72-.859 3.793.551 3.743 2.574-.05 5.211 3.287 7.847 5.462 12.138-1.011-4.352-1.972-7.908-2.63-11.463-.253-1.533-.152-3.311.152-4.843.607-3.127-.455-4.782-2.984-3.74-1.821.736-3.44 2.268-5.058 3.617-.354.307-.354 1.41-.557 2.207zm227.209-131.433c.809 1.962 1.264 3.801 2.226 5.088.657.858 2.073 1.226 3.186 1.287 1.265.062 2.58-.429 3.844-.796 1.062-.307 2.226-.43 3.035-1.104.405-.368.253-2.697.05-2.759a53.832 53.832 0 0 0-7.536-1.655c-1.416-.245-2.832-.061-4.805-.061zm91.55-46.16c.658 1.286.962 2.696 1.62 2.942 2.478.98 5.058 1.777 7.688 2.145.96.123 2.63-.98 2.933-1.961.304-1.104-.303-3.004-1.062-3.985-1.618-2.207-7.283-2.514-9.914-.674 3.187-.246 6.222-1.165 8.346 1.961l-.151 1.104c-2.884-.43-5.666-.92-9.46-1.533zM122.356 291.59c-.758-.368-1.416-.797-2.124-.981-1.62-.368-2.883.674-2.782 2.513.152 3.985-.101 7.908-1.315 11.77 1.265-1.165 2.529-2.391 3.187-3.984 1.163-2.882 1.972-5.947 3.034-9.318zm-15.275-39.725c.152-.245.304-.551.455-.797-.202-4.168-.303-8.275-.556-12.444-.253-3.985-.658-8.031-1.012-12.015-.253 0-.505.061-.81.061-.05.368-.151.736-.151 1.103.152 7.295.253 14.59.506 21.885.05.736 1.012 1.41 1.568 2.207zm-72.786 58.361c.202-.246.455-.491.658-.736 0-.49.151-1.349 0-1.41-2.681-1.471-1.77-3.065-.709-5.579.658-1.593-.303-4.229-.505-6.436-.203-.184-.456-.368-.658-.552-.759.919-2.175 1.9-2.124 2.82.151 3.188.708 6.437 1.416 9.563.101.92 1.265 1.533 1.922 2.33zm-8.346-169.625c-1.011-.858-1.315-1.349-1.517-1.287-3.945 1.348-7.89 2.513-11.735 4.29-1.113.491-1.77 2.575-2.428 3.679 5.109-2.207 10.066-4.291 15.68-6.682zm148.556-10.421c-1.214-2.207-2.225-4.046-3.288-5.824-.303-.49-.86-.858-1.264-1.226-.253.429-.658.92-.658 1.348-.05 2.514-.05 5.027-.05 7.725 1.82-.062 4.35.92 5.26-2.023zM127.16 241.934c1.87-.613 3.54-1.164 4.855-1.593.203-1.656.354-3.127.557-5.027-1.973.245-3.844.429-5.868.674.203 2.268.354 4.107.456 5.946zm2.124-25.195c1.669-1.533 2.934-2.513 4.046-3.678.304-.368.304-1.165.456-1.778-.506 0-1.063-.123-1.518.123-.506.306-.91.919-1.821 1.839v-6.192l-3.186 1.104c.708 3.003 1.315 5.639 2.023 8.582zM113.2 304.586c2.428-3.065 2.175-6.437 1.82-9.686-.1-.858-.96-1.594-1.516-2.391-.455.92-1.265 1.839-1.214 2.697.1 2.575 1.973 5.027.303 7.786-.05.184.253.674.607 1.594zm255.989-188.077c-.101.245-.202.49-.253.736.658.429 1.315 1.103 1.973 1.164 2.023.246 4.046.307 6.069.246.81 0 1.82-.307 2.327-.981.354-.49.304-2.023-.101-2.636-.607-.92-1.62-1.471-2.478-2.207.758 2.82.708 3.249-1.366 3.617-2.023.368-4.097.061-6.171.061zM137.378 246.532c-.101-.552-.202-1.165-.304-1.716-2.933.49-5.867.919-8.801 1.532-.303.061-.657 1.042-.708 1.594 0 .368.658 1.042.96.981 2.986-.674 5.919-1.533 8.853-2.391zM63.074 142.195c.709 1.349 1.113 2.636 1.467 2.636 2.833-.184 5.665-.613 8.498-1.042 0 0 0-.184.101-.858-3.136-.246-6.17-.49-10.066-.736zm-6.12-47.632c-1.264.306-2.276.49-3.288.735-3.439.797-3.743 1.778-1.568 5.947a448.212 448.212 0 0 1 4.856-6.682zm215.727 81.716v3.372c0 .919-.202 2.575.05 2.697.86.491 1.923.368 2.934.491.05-.246.102-.491.102-.736-.557-.429-1.113-.92-1.417-1.104.708-1.226 1.315-2.329 1.922-3.432-1.062-.43-2.175-.797-3.591-1.288zm31.46-58.115c5.262-.306 9.915-.551 14.569-.797 0-.367-.051-.735-.051-1.164-4.603 1.226-9.46-1.962-14.517 1.961zM129.69 203.191c3.945 1.778 7.435.613 10.622-1.962l-.152-.919c-3.49.981-6.98 1.962-10.47 2.881zm-46.08-48l-.455-.92c-.86.368-1.77.736-2.782 1.165.152-.735.202-1.164.405-2.023-1.366.49-2.58.981-3.844 1.41.708 1.349 1.213 2.33 1.972 3.74 1.619-1.165 3.187-2.268 4.704-3.372zm121.242-36.904c.05-.43.05-.858.102-1.288h-12.09v.614c4.047.183 7.993.429 11.988.674zm140.16 24.46c1.466-1.962 2.68-3.74 4.248-5.885a370.23 370.23 0 0 1-6.525 2.88c.81 1.043 1.467 1.963 2.277 3.005zm-307.48-3.433c-1.417-1.226-2.277-2.085-3.238-2.636-.202-.123-.81.613-1.214.98.759.981 1.416 2.023 2.276 2.82.253.184 1.012-.551 2.175-1.164zm-23.42 7.479c2.883 2.758 4.35.858 5.969-.307l-.152-.92c-1.72.368-3.49.736-5.817 1.227zm292.71-55.909c2.075.246 3.997.43 6.222.675-1.82-2.636-3.49-2.759-6.221-.675zm-107.483.246c1.669.306 3.389.613 5.412.98-1.214-2.635-1.77-2.758-5.412-.98zM98.886 121.72c-.152.429-.253.858-.405 1.287 1.062 2.33 3.339.674 4.755 1.778.1-.307.152-.552.253-.858-1.518-.736-3.086-1.472-4.603-2.207zm159.278 86.498c-.404 3.617.456 4.904 2.985 5.395-.911-1.656-1.821-3.311-2.985-5.395zm12.342-26.789c.202-.062.455-.123.658-.184-.405-2.82-.76-5.701-1.164-8.521-.303.061-.657.184-.961.245.456 2.881.96 5.64 1.467 8.46zm-132.42 124.199c.405.122.86.245 1.265.368.303-1.104.607-2.207.96-3.249-.606 0-1.618-.307-1.72 0-.404.858-.404 1.9-.505 2.881zM311.78 113.689v-.735h-6.12v.735h6.12zm-47.9 90.422c3.035 2.513 3.895 2.39 4.502 0h-4.502z" fill="#000"/><path d="M151.894 94.87c.405-.675.76-1.288 1.214-2.085-1.87-2.636-3.49-5.15-6.525-6.314-1.77-.675-3.136-2.881-5.412-3.188-3.844-.49-7.284.797-10.875 2.39-3.186 1.472-4.198 4.721-5.21 7.602-.708 2.085.304 5.027.658 7.54.202 1.471.556 2.881.86 4.291l-.607.552c-1.062-.674-2.125-1.349-3.136-2.084-1.568-1.165-2.934-1.962-3.49 1.165-.05.367-.253.92-.506 1.042-2.428 1.226-2.63 3.862-3.085 6.436-.304 1.594-1.417 2.637-2.226.86-1.87-4.292-4.957-2.024-7.84-3.005.202 1.165.303 1.84.455 2.575-.152.122-.303.367-.506.49-3.439 2.207-3.338 2.146-5.31-2.023-.607-1.287-1.67-2.39-2.63-3.433-1.467-1.47-2.934-2.88-4.553-4.107-.708-.552-1.618-.613-3.136-1.165.658 2.084 1.113 3.31 1.467 4.598.607 2.145.354 3.25-1.871 3.74-1.77.428-3.288 2.206-5.109 3.432-.152-2.575-.354-5.517-.556-8.705 1.72.184 3.641 1.042 3.894-1.96-.151-.247-.303-.553-.354-.553-4.805 1.103-6.778-3.433-9.408-6.804-.708-.92-1.72-1.594-3.237-2.882 2.58-1.839 4.805-3.371 7.183-5.088-1.821-4.352-5.413-3.371-8.397-3.433-3.389-.061-7.132-.184-8.396 5.701 1.871.368 3.844.797 5.766 1.165 0 .184-.05.368-.05.552-4.199.368-8.397.797-12.747 1.165-1.973-3.985-4.856-4.782-8.396-1.9-1.366 1.103-2.479 1.287-4.199.796-2.124-.674-4.299-.613-6.676.613-2.428 1.288-5.514.92-8.295.981-1.923.061-3.845-.674-5.767-.552-2.68.184-4.35 2.146-6.07 4.72-1.82 2.698-3.085 5.456-3.894 8.705-.101.491-1.619 1.042-1.82.797-3.946-4.78-8.549-3.065-13.05-2.145V45.275c1.466-.49 3.388 1.349 5.108-1.839H.05V23.82c.607-.245 1.315-.429 1.872-.858 1.669-1.348 2.782-1.103 3.894 1.165.506.98 2.327 2.268 2.732 1.9 1.264-.98 1.163-2.39.354-4.352-.961-2.452-1.72-6.07-.91-8.276.96-2.575 1.77-4.72 1.466-7.54-.05-.43.152-.858.253-1.226 2.276 1.042 4.451 1.961 6.171 2.758-.202 1.349-.961 3.004-.556 3.985.505 1.287 2.023 2.881 2.933 2.759 1.77-.307 3.49-1.594 5.109-2.698.202-.122.101-1.655-.202-2.207-.91-1.655-2.327-3.126-.658-5.333.101-.123-.455-1.165-.759-1.655-.404-.613-.91-1.104-1.365-1.717H209.05c-.1 2.391-.354 4.66-2.579 5.763-.456.245-.81 1.471-.759 2.207.253 5.15-.91 7.05-4.906 7.785-.203.062-.405.552-.759 1.104 3.187.49 3.642 3.371 3.895 6.069.303 3.555-2.024 5.026-4.4 6.191 2.326 2.268 2.275 3.065.151 5.395-.708.797-1.012 2.207-1.467 3.31 1.113.307 2.226.613 3.39.797.454.061.96-.245 1.466-.368l-.05-.061c.353.98.707 2.023 1.011 2.881-.557.307-1.366.858-2.276 1.226-1.872.797-3.743 1.349-5.564 2.207-.96.43-2.377.981-2.63 1.84-.405 1.41-1.366 2.697-.102 4.842 1.67 2.881 3.541 3.25 5.97 3.188l79.36-.368c11.532-.061 23.065-.184 34.648-.245 1.264 0 2.53.368 3.793.552-.05.429-.05.858-.1 1.348H194.533l-.152 1.104c.657.245 1.264.674 1.922.674 9.863 0 19.676 0 29.54-.061l89.223-.552c3.288 0 3.238 0 3.34-4.23.05-3.004-.305-6.437 2.022-8.521 3.288-3.004 6.778-5.701 10.318-8.644.76 3.74 3.086 3.372 5.058 3.433 5.564.123 11.128.062 16.641-.061 7.486-.123 14.972-.184 22.408-.552 6.778-.367 13.404-2.513 20.283-1.594 3.743.49 4.451 1.472 4.3 5.947-.102 2.575.555 5.333 1.112 7.908.505 2.33 2.023 4.598 1.922 6.804-.253 4.476 1.163 8.154 2.53 11.954v6.744c-4.098.245-8.246.429-12.343.674-1.315.061-2.63.307-4.097.49-1.012-1.103-1.669-3.739-4.046-2.022-.304.183-1.113-.859-1.72-1.043-3.389-.98-6.778-1.9-10.42-2.88.253.673.455 1.103.607 1.47-2.225.307-4.35.43-6.373.981-1.113.307-2.428 1.042-2.984 2.085-2.58 4.781-6.17 3.555-9.56 2.39-4.097-1.41-7.94-1.103-11.836.859-.657.367-1.416.735-2.124.797-5.716.245-11.43.429-17.147.674-2.782.122-3.086-1.165-2.327-4.475.708-3.065.455-6.437.658-10.054.202-.368.81-1.41 1.315-2.207-44.208.062-88.112.736-132.572-1.594-.05.613-.708 2.33-.253 3.31.354.859 2.023.859 2.883 1.104-.202.674-.759 1.655-.657 2.514.455 2.758-1.67 6.13 1.416 8.398.455.368-.05 2.82-.253 4.23-.455 2.82-.455 2.82.81 4.659-2.176 2.268.151 2.636 1.365 3.678a326.382 326.382 0 0 1-7.08 2.023c.201 2.146.656 3.985.403 5.701-.354 2.636-2.175 3.862-4.147 4.72-.253.123-.354.674-.506 1.042l.101-.122c-.96.43-2.124-1.778-2.934.367-.404-.367-1.062-.674-1.264-1.164-2.074-5.578-5.564-9.257-10.116-11.709-.708-.367-1.366-.92-2.479-1.655 4.25-.122 5.716-1.287 6.373-4.536-5.412-3.31-9.61.735-13.909 3.555-2.68 1.717-5.109 3.985-7.638 6.008l-.253.061zm-34.597 7.968c.303-.184.556-.368.86-.552.303-2.635.76-5.332.86-7.968.101-3.433-1.72-5.824-4.502-7.05-.86-.368-1.669-1.288-2.276-2.146-1.922-2.697-5.109-2.575-6.727.368-.405.736-.91 1.471-1.518 2.023-.657.613-1.517.98-2.276 1.41-.05-.981-.1-1.962-.202-3.556-2.175 2.207-4.4 3.985-4.603 7.602-.152 3.617-.05 7.172-.05 11.586 1.112-.429 2.377-.49 2.58-1.104.86-2.39 1.314-4.965 2.073-7.356.202-.613 1.365-1.471 1.568-1.348 2.731 2.39 4.906.306 7.182-1.165 2.327-1.471 3.086-.858 3.996 2.146.708 2.452 1.973 4.72 3.035 7.11zM33.536 88.8c1.72-3.31 1.618-3.187-.81-5.946-.91-1.042-1.517-2.82-1.72-4.414-.556-4.352-1.416-8.46-4.602-11.525-.455 2.023-.91 3.801-1.265 5.579-.354 1.778-.708 3.494-1.113 5.517 2.58.061 5.311.184 4.3 4.904-.05.123.152.368.202.552.759 2.146 1.416 4.352 2.327 6.375.455 1.043 1.366 1.84 2.175 2.636.152.123 1.011-.367 1.011-.49-.05-.98-.303-1.962-.505-3.188zM179.51 46.87c2.934-.859 3.693-3.434 3.642-6.131a22.793 22.793 0 0 0-1.265-6.927c-.354-.92-2.023-1.165-3.085-1.717-.354 1.226-.809 2.391-1.062 3.617-.202.981.152 2.084-.152 2.943-1.062 3.494.051 5.946 1.922 8.214zm-14.06-8.828h-.153c.152 1.594.405 3.187.455 4.843.051 1.961.658 3.065 2.428 2.88 1.72-.244 2.226-1.593 2.226-3.37 0-1.533.253-3.25-.253-4.476-.759-1.962-2.074-4.965-3.187-4.965-1.87 0-1.87 2.758-1.568 4.904.051-.062.051.061.051.184zm-50.48 63.57c-4.199.307-8.397.613-12.545 1.042-.202 0-.657 1.778-.404 2.268 1.264 2.453 3.692 2.33 5.108-.245.708-1.287 1.164-1.839 2.276-.613 2.428 2.636 3.845 2.268 5.564-2.452zM9.104 86.962c.405 4.842.708 9.072 1.113 13.731.759-.123 1.77-.245 2.782-.43-1.012-2.758 1.517-4.72.202-7.662-1.062-2.39-1.062-5.15-4.097-5.64zm162.111-6.928c-1.113-1.41-1.77-2.268-2.478-3.126-.506 1.103-1.265 2.206-1.417 3.371-.1.613.86 1.472 1.315 2.207.708-.674 1.467-1.41 2.58-2.452zM33.486 37.429c.353.06.657.06 1.01.122v-4.597c-.252 0-.505 0-.758-.062-.101 1.533-.152 3.004-.253 4.537z" fill="#fff"/><path d="M404.747 69.675c-1.416-3.8-2.782-7.48-2.529-11.954.101-2.207-1.416-4.475-1.922-6.805-.557-2.574-1.214-5.272-1.113-7.908.202-4.536-.506-5.456-4.299-5.946-6.879-.92-13.505 1.226-20.283 1.594-7.486.368-14.972.429-22.407.551-5.564.123-11.128.123-16.641.062-1.973-.062-4.3.306-5.059-3.433-3.54 2.942-7.03 5.64-10.318 8.643-2.276 2.085-1.922 5.518-2.023 8.522-.101 4.23 0 4.23-3.339 4.23l-89.224.551c-9.863.061-19.676.061-29.539.061-.657 0-1.264-.429-1.922-.674l.152-1.103h122.607c.051-.43.051-.859.101-1.349-1.264-.184-2.529-.552-3.793-.552-11.532.062-23.065.184-34.648.246l-79.36.367c-2.378 0-4.3-.367-5.97-3.187-1.264-2.146-.252-3.433.102-4.843.253-.859 1.669-1.41 2.63-1.84 1.82-.796 3.743-1.41 5.564-2.206.86-.368 1.72-.92 2.276-1.226-.304-.92-.658-1.9-1.012-2.882.304.123.607.307.961.307l103.337-.184c.404 0 .86-.306 1.821-.674-3.086-2.575-5.716-4.905-8.447-6.928-8.043-5.885-16.793-9.87-25.797-12.996l-.05.062c.81-.062 1.618-.123 2.377-.123.506-5.21 1.214-5.701 4.957-3.678.607.306 1.265.552 1.872.92 4.198 2.513 5.412 1.961 7.334-3.25 1.062-2.88 2.326-3.555 4.856-2.574 1.315.49 2.63.98 3.945 1.532.253-1.716.759-3.249.607-4.72-.152-1.165-.911-2.39-1.619-3.372-.708-.98-1.72-1.716-2.579-2.513h70.307c-.456 1.716-.86 3.678.91 4.475 1.619.736 3.338.613 4.249-1.84.202-.55 1.012-.735 1.517-1.103.253.552.708 1.165.708 1.717-.05 2.82 1.164 4.352 3.187 5.15 3.187 1.225 3.642-2.882 5.463-4.353.404-.307-.203-2.636-.354-3.985h22.255c.152 23.05.152 46.1.152 69.21zm-95.8-30.284c-1.264 4.046-3.945 2.269-6.171 2.33h-.758c-30.753.122-61.506.306-92.26.245-3.186 0-5.361 1.042-7.283 4.107-1.062 1.717-2.782 2.882-4.249 4.23-.506.49-1.062.981-1.871 1.778 8.548 1.287 117.144.674 118.611-.613-2.428-3.494-8.143-4.66-6.019-12.077zm77.237-21.885c.101-.735.303-2.697-1.619-2.145-1.669.49-1.922-.49-2.579-1.717-1.012-1.961-2.529-2.636-4.3-1.41-2.377 1.594-3.894 4.843-3.136 6.62.152.43.557.737.86 1.104 2.175 2.453 4.198.613 6.222-.367 1.214-.736 2.529-1.226 4.552-2.085zm-69.144-.98v.306c1.012 0 2.023.123 3.035-.061.556-.123 1.517-1.042 1.467-1.226-.455-1.533-.961-3.188-1.821-4.414-.557-.736-1.872-1.41-2.63-1.165-2.024.736-3.946 1.778-5.817 3.065-.607.43-.809 1.778-1.214 2.698.708.429 1.467 1.226 2.175 1.226 1.618.122 3.237-.246 4.805-.43zm16.742 18.022c.607-.122.961-.06 1.214-.245 1.872-1.471 3.743-2.942 5.463-4.597.506-.49.657-1.9.506-2.76-.101-.673-1.012-1.593-1.518-1.532-.809.062-1.669.613-2.276 1.288-.556.613-.708 2.268-1.264 2.39-2.681.797-1.973 3.127-2.125 5.456z" fill="#000"/><path d="M202.93 38.716c-.506.123-.961.43-1.467.368-1.163-.184-2.276-.552-3.389-.797.506-1.103.759-2.513 1.467-3.31 2.124-2.268 2.175-3.127-.152-5.395 2.377-1.165 4.704-2.636 4.4-6.191-.202-2.698-.708-5.579-3.894-6.07.405-.551.556-1.042.759-1.103 3.945-.735 5.159-2.636 4.906-7.785-.05-.736.303-2.023.759-2.207 2.276-1.104 2.478-3.372 2.58-5.763h62.72c-.962 2.269-.456 4.292 1.01 5.702 1.569 1.41 1.62 2.942 1.215 4.965-.455 2.39-.253 4.904.759 7.172l.05-.06c-7.334-.553-14.719-1.043-21.092-1.533-1.315-2.207-2.124-4.966-3.136-5.089-3.035-.306-3.338 2.76-3.237 5.395-4.906 1.226-9.61 2.207-14.264 3.617-9.813 3.004-18.715 8.521-27.111 15.326-.91.797-1.872 1.777-2.883 2.758z" fill="#000"/><path d="M404.747 108.295c-1.113.122-2.226.184-3.339.429-1.011.245-1.922.858-2.883 1.164-.86.246-1.77.184-2.933.246-.76-1.656-1.77-3.801-2.833-6.13.759-.736 1.416-1.41 2.68-2.698-1.213-.061-1.77-.306-2.275-.122-2.782.858-2.985.674-2.63-2.882.05-.245-.102-.551-.152-.858-2.833.674-3.642 3.31-1.872 5.824.152.184.304.49.253.735-.455 2.698-1.315 5.15-2.933 6.437-3.339-3.187-6.323-6.007-9.813-9.38a256.78 256.78 0 0 0 3.186 6.376c-2.023.43-2.023.43-1.871-2.513-2.226-.184-4.502-.368-6.727-.49.354-1.165.809-2.575 1.264-4.046-.303-.184-.657-.43-.96-.613-.76 3.8-2.378 6.62-5.767 7.233.202-2.758.455-5.394.708-8.582 1.872 2.82 3.187 2.759 4.704 0 .759-1.41 2.327-2.207 3.743-3.433a608.22 608.22 0 0 1 5.614 5.885l.456-.552c-.304-.551-.658-1.042-1.012-1.594.961-.367 1.922-.551 2.782-1.103.81-.49 2.124-1.655 2.074-1.9-.506-1.288-1.163-3.127-2.074-3.433-1.973-.675-3.996-2.207-6.272-.49-.86.674-2.63.612-3.54-.062-2.63-1.84-5.11-.98-7.638.123-.658-1.962-1.467-3.862-1.922-5.886-.759-3.187 2.883-8.95 5.766-9.072 3.945-.184 7.89-.49 11.785-.184 1.416.122 3.187 1.655 3.946 3.187 1.365 2.698 2.276 5.64 1.77 9.257-.405 2.697.455 5.64.758 8.583 3.238-.859 2.934-3.495 2.985-5.886.05-2.513 0-5.026 0-8.214 3.54 1.655 5.766 3.862 7.233 7.418 1.568 3.739.404 7.11-1.366 10.85 3.389-.368 6.222-.613 9.054-.92.05 2.391.05 4.843.05 7.296zM274.703 18.242c-1.011-2.268-1.163-4.72-.759-7.172.355-2.085.354-3.556-1.214-4.966-1.517-1.349-1.972-3.433-1.011-5.701h24.784c.86.797 1.872 1.532 2.58 2.513.708.981 1.467 2.146 1.619 3.372.151 1.41-.355 3.004-.607 4.72-1.316-.49-2.63-1.042-3.946-1.532-2.478-.981-3.793-.246-4.855 2.574-1.922 5.211-3.136 5.763-7.335 3.25-.607-.368-1.264-.552-1.871-.92-3.743-2.023-4.451-1.533-4.957 3.678l-2.428.184z" fill="#fff"/><path d="M20.333.404c.456.552.962 1.103 1.366 1.716.354.49.86 1.472.759 1.655-1.67 2.207-.253 3.617.657 5.334.304.613.456 2.084.203 2.207-1.619 1.103-3.339 2.452-5.109 2.697-.91.123-2.428-1.471-2.934-2.759-.404-.98.354-2.636.557-3.984-1.77-.797-3.895-1.717-6.171-2.759-.05.368-.253.858-.253 1.226.303 2.759-.506 4.966-1.467 7.54-.81 2.207-.05 5.824.91 8.276.81 1.962.911 3.372-.353 4.353-.456.368-2.277-.858-2.732-1.9-1.062-2.269-2.175-2.514-3.895-1.165-.556.429-1.213.551-1.871.858V.404h20.333z" fill="#000"/><path d="M.102 119.329c1.669-.184 3.338-.613 5.007-.552 2.53.061 4.755 2.942 5.109 6.069.1 1.042.758 1.9.96 2.942.254 1.104.355 2.207.507 3.31-.253.062-.506.062-.76.123-1.213-.98-2.427-2.023-3.59-3.003-.203.245-.405.49-.557.735.253 1.104.557 2.207.81 3.31-2.53 2.514-5.16 1.533-6.171-2.022-.152-.49-.86-.736-1.315-1.104v-5.517c3.59 1.594 4.956 1.349 6.828-1.778-2.478-.245-4.653-.49-6.828-.674v-1.84zM382.492.402c.151 1.41.809 3.678.354 3.985-1.821 1.41-2.277 5.578-5.463 4.352-2.074-.797-3.288-2.33-3.187-5.15 0-.551-.455-1.164-.708-1.716-.506.368-1.315.552-1.517 1.104-.91 2.452-2.58 2.636-4.249 1.839-1.77-.797-1.366-2.698-.91-4.475 5.21.06 10.47.06 15.68.06z" fill="#fff"/><path d="M.102 121.168c2.175.245 4.35.43 6.828.674-1.872 3.065-3.237 3.31-6.828 1.778v-2.452zm0-77.854H5.21c-1.72 3.188-3.591 1.349-5.108 1.84v-1.84z" fill="#000"/><path d="M.102 173.889c.809-.245 1.568-.49 2.529-.797.556 2.881-.961 3.678-2.53 4.475v-3.678zm0-3.066c.404-.551.708-1.287 1.214-1.532.556-.245 1.315-.184 1.922 0 .252.061.556 1.103.455 1.164-.506.43-1.012.859-1.619 1.104-.607.245-1.315.306-1.972.43v-1.166zm90.083-25.869c.86 4.475-2.68 4.046-4.3 5.027-2.478 1.532-5.411 2.207-8.244 2.697-1.214.184-2.529-.858-3.793-1.41.05-.245.151-.552.202-.797 4.957-2.636 9.914-5.272 14.921-7.97-.1-.306-.202-.551-.303-.858-2.63 1.165-5.26 2.33-7.84 3.556 1.972-2.636 4.502-4.966 3.895-8.95-2.277-2.39-2.327-5.885-2.378-8.889-.05-7.479 4.451-11.402 9.206-15.387.961 3.494 1.922 6.805 2.833 10.115-4.098-.184-7.335 2.207-10.167 5.517-.506.613-.607 2.146-.354 3.065.202.797 1.163 1.9 1.72 1.84 3.54-.307 7.283.183 10.217-3.127 1.163-1.287 2.529-1.287 4.147-.49 2.732 1.41 5.665 2.206 8.498 3.249-.506 1.41-1.012 2.82-1.568 4.413 4.906-.429 7.739-2.82 6.828-5.456-1.82.43-3.591.797-5.412 1.227.708-.859 1.315-1.962 2.175-2.514.91-.613 2.377-1.471 3.086-1.042 2.225 1.349 3.844 0 5.665-.98.657-.369 1.669-.798 2.225-.43 4.148 2.636 8.498 3.556 13.1 2.943 1.77-.246 2.985.429 3.895 2.513 2.63 6.069 5.362 11.954 8.043 18.023 1.163 2.697 1.011 4.843-1.77 5.946-.658.246-1.164.981-1.518 1.288-.961-4.66-1.922-9.441-3.035-14.1-.202-.797-1.315-1.287-2.023-1.962 0 .92-.152 1.962 0 2.82.455 2.881 1.011 5.701 1.568 8.521.152.859.404 1.717.758 2.514.607 1.471.658 2.513-.404 4.046-1.315 1.839-2.023 4.29-3.035 6.498v-13.242c-.152 0-.759-.122-1.467-.245V143.3c-.152 0-.303-.062-.455-.062-.506 3.127-1.265 6.192-1.366 9.318-.101 2.82-.86 3.924-3.085 3.74-.304 0-.557.245-.961.429 3.035 2.268 3.338 7.54.708 10.973.708 1.533 1.264 4.107 2.276 4.414 1.214.368 2.883-1.165 4.451-1.9.961 4.168 1.922 8.337 3.035 13.118a299.359 299.359 0 0 0-7.334 1.9c-.506-4.842-3.136-7.356-7.233-7.969 1.315-1.593 2.225-2.758 3.692-4.536h-14.516c-.81-3.923-2.074-7.785-2.327-11.77-.253-4.169-2.074-6.13-4.856-7.602-5.109-2.574-10.217-5.21-15.326-7.785-.657-.307-1.467-.307-2.175-.49v-2.085c-2.832 2.268-5.463 4.414-8.093 6.498 3.288-.184 5.868-2.023 8.194-4.536zm28.831 12.628h6.272c-3.389-2.145-6.272-1.839-6.272 0zm-18.31-9.747c-2.377-3.985-3.591-4.352-5.513-2.39 1.568.674 3.237 1.41 5.513 2.39zm219.723-19.555c.354 1.532.658 3.126 1.062 4.965H198.074c-.05.246-.05.43-.1.675 2.63.674 5.26 1.961 7.89 1.961 37.53.184 75.112.123 112.643.184 1.214 0 2.428.245 3.642.368 0 .306-.051.613-.051.92H205.763c-.709 2.145.1 2.513 1.72 2.513 9.508-.061 19.018-.061 28.527-.061 15.477 0 30.955.122 46.433.122 13.05 0 26.099 0 39.149-.122 1.669 0 2.024.735 2.074 2.942h-13.91c-22.811 0-45.623 0-68.435-.061-7.739 0-15.478-.368-23.217-.43-3.844-.06-7.739.062-11.583.369-.556.06-1.416 1.226-1.467 1.961-.354 3.495-1.922 5.395-4.805 5.272-2.124-.061-4.198-.368-6.272-.429-.86 0-1.82.245-2.63.674-.506.307-1.113 1.227-1.062 1.778.05.552.81 1.472 1.264 1.533 3.187.49 6.424.797 9.712 1.165.101-.43.05-.123-.05.245-.355 1.532-2.681.735-2.48 2.942-1.415-.245-2.781-.551-4.197-.735-.81-.123-1.72-.184-2.53 0-1.972.551-3.54-.062-5.007-1.84-.455-.551-1.416-.49-2.276-.735 1.67-2.39.506-4.107-1.366-5.885-1.72-1.594-1.82-5.885-.505-8.46.404-.735.86-1.471 1.365-2.33-.758-.796-1.416-1.47-2.074-2.206 2.175 1.532 5.767-1.042 6.626 2.942.962-1.839 2.074-3.74 2.985-5.7.404-.86.556-1.901.556-2.882.05-3.372.81-4.291 3.642-4.23 4.451.061 8.953.368 13.404.245 2.883-.122 5.715-.98 8.548-1.287.657-.061 1.416.858 2.124 1.226.86.43 1.77 1.103 2.681 1.103 4.148.062 8.245-.122 12.392-.06 11.684.06 23.369.183 35.103.244 6.323 0 12.646.062 18.918-.245 2.781-.122 5.513-1.349 8.295-1.349 6.575-.06 13.1.184 19.676.49.91.062 1.821 1.043 2.731 1.595.253.061.405.306.607.613zm-89.629 2.268v.245h19.12v-.245H230.8z" fill="#fff"/><path d="M80.929 112.157c-1.366-.307-2.074-.49-2.63-.613.354 1.961.708 3.984 1.163 6.375H64.743c-1.77 0-3.54-.122-5.26.245-.91.184-1.67 1.35-2.53 2.085.557.92 1.063 1.9 1.72 2.758.607.797 1.316 1.594 2.074 2.207 1.518 1.104 4.907.368 6.373-1.348 2.428-2.698 2.428-2.698 3.288 1.103.101.368.253.736.304.92 1.77 0 3.44.367 4.957-.123s2.832-1.9 4.653-3.25c.405 1.779.81 3.495 1.062 4.599-.96 1.103-1.618 1.777-2.225 2.574-1.214 1.594-2.428 2.514-4.047.552-.96-1.165-2.074-2.084-3.085-3.065l-.506.613c.354.674.658 1.287 1.315 2.575-2.68.245-5.058.49-7.79.735.355-1.348.557-2.207.81-3.065l-.304-.368c-1.669 1.962-3.136 4.292-5.058 5.763-1.72 1.349-3.945 1.655-6.07 2.513a123.97 123.97 0 0 0-.86-3.555c-2.882-.552-2.174 2.636-3.034 4.107-1.012 1.716-1.619 3.74-2.377 5.64l-.607-.184c.253-1.533.455-3.004.708-4.536-.354-.062-.708-.123-1.012-.184-.253 2.39-.556 4.72-.657 7.11-.05 1.84-.253 3.127-2.327 2.085.405-2.943.86-5.885 1.416-9.625-5.766 2.698-7.435-4.72-11.734-6.191 1.011-2.33.404-4.046-1.113-6.008-.961-1.226-.759-3.74-.557-5.946.456.92.961 1.839 1.67 3.249 1.062-2.759 2.023-5.15 2.883-7.602.86-2.39 2.478-3.126 4.4-3.433 2.074-.306 4.148-.674 6.222-1.164 1.922-.49 2.883 0 2.73 2.697-.1 1.717.203 3.433.304 5.333-1.011.246-1.972.49-2.984.736.152 4.23 2.782 2.943 5.109 3.065-1.67 2.33-1.315 3.923.81 5.395.505-3.004.96-5.824 1.466-8.828 2.225.552 2.68-1.165 2.428-3.8-2.074-.246-2.175-2.024-2.023-4.108.202-2.084.809-3.555 2.782-3.249 1.568.245 3.186.552 4.602 1.165 5.26 2.39 9.813.552 13.607-3.862 1.72-1.962 2.529-1.655 3.136.735.607 2.023.96 4.353 1.517 7.173zM45.472 127.42a606.33 606.33 0 0 0-1.163 6.314c3.085 1.533 3.085 1.533 6.12-1.961-2.833.06-1.77-5.334-4.957-4.353zm-5.867-9.563v1.042c2.933 2.943 5.007 2.636 6.07-1.41-2.176.123-4.098.245-6.07.368zm289.321-11.708c-.05-.613-.1-1.226-.151-1.778a224.67 224.67 0 0 1-3.44-.92c-.91.736-1.82 1.778-2.124 1.594-.81-.551-1.77-1.594-1.872-2.513-.303-2.82-.303-5.762-.303-8.582 0-2.269-.557-3.495-2.63-3.004-.506.122-1.164-.307-2.226-.675 4.755-1.47 6.323-.674 8.143 3.433.456.981 1.164 1.778 1.923 2.943 1.213-3.004 1.82-2.697 3.287-.613 1.72 2.452 3.136 4.659 2.984 7.97 0 .367.253 1.103.506 1.164 2.58.98 5.109 2.084 7.74 2.759 2.073.49 4.147-1.594 4.905-4.046.607-1.84.152-3.25-1.264-3.617-2.327-.613-4.755-1.042-7.132-.92-1.77.123-2.175-.368-1.77-2.268.253-1.103.758-2.146.758-3.188 0-5.21 3.49-7.724 8.852-6.253 3.136.859 6.373 1.41 9.51 2.207 3.59.859 3.894 1.84 5.057 6.008 1.619 5.762 1.922 11.647 1.973 17.594 0 .98.506 1.961.759 3.004.303-.062.556-.123.86-.184-.152-1.594-.304-3.188-.506-5.334 2.58 3.801.96 8.89-1.619 11.219-2.377 2.145-4.957.92-7.233 2.207-.455.245-1.77-.49-1.82-.859-.355-4.72-3.845-3.433-5.919-4.413-1.77-.859-3.945-.123-5.918-.552-.91-.184-1.871-1.165-2.428-2.146-1.466-2.758-2.781-5.7-4.198-8.766-1.214-.49-2.832-.92-4.704-1.471zm23.318-5.088c-.253 0-.506-.062-.759 0l-4.097 1.287c.759 1.717 1.315 3.678 2.378 5.027 2.428 3.126 5.26 1.471 7.89.245 1.67-.797 1.77-2.146.86-3.862-1.517-2.942-3.895-2.82-6.272-2.697zm-9.408 11.034c.354-.797.607-1.349.81-1.839-1.973 1.287-1.872 3.31-1.063 5.088.405.858 1.619 1.778 2.327 1.655 1.467-.184 2.832-1.103 4.3-1.716-.355-.797-.608-2.084-1.063-2.268-1.67-.49-3.44-.613-5.311-.92zm-22.407 16.185c-.152-.246-.354-.552-.506-.797.05-1.165.101-2.391.152-3.556.86.184 1.72.245 2.529.674.758.368 1.568.92 2.074 1.655 2.023 2.698 3.844 6.07 7.384 2.637-.86.735-1.72 1.47-3.186 2.697 3.237 2.759 6.221 5.272 9.307 7.847-2.833.735-2.884 2.88-2.226 5.64.354 1.593.202 3.31.303 5.026-1.112.307-2.377.675-3.085.859-.86 2.574-1.669 4.842-2.731 7.969-1.012-2.023-1.619-3.31-2.378-4.843-.86.613-2.174 1.594-3.59 2.636-.86-2.084-.962-3.8-.557-6.376 1.113-7.785 1.82-15.754-3.49-22.069zm-51.087-30.223h2.782c-.96 4.598-.303 8.95 1.568 12.935.405.797 1.518 1.655 2.276 1.594 3.339-.123 6.677-.552 10.015-.797 1.113-.123 2.276-.49 3.237-.061 1.012.429 1.821 1.655 2.732 2.574-.81.552-1.568 1.533-2.377 1.533-3.39 0-6.778-.49-10.167-.43-2.378 0-4.755.614-7.132.92-.91.123-1.82.062-2.782 0-5.564-.368-11.128-.98-16.692-1.042-3.692-.061-7.435-.98-11.026 1.226-.91.552-2.63.49-3.39-.184-2.882-2.574-5.917-.858-8.901-1.042-2.479-.123-4.957.43-7.436.49-.708 0-1.416-.919-2.124-1.41.759-.858 1.467-2.452 2.226-2.513 2.478-.061 4.956.613 7.485.797 2.428.184 4.856.123 7.284 0 .354 0 .81-.98 1.012-1.532.708-2.698 1.264-5.456 1.972-8.154.203-.735.709-1.348 1.113-2.023.354.736.759 1.41.961 2.146.658 2.697 1.113 5.517 1.922 8.153.203.736 1.315 1.533 2.024 1.533 6.575.122 13.15.061 19.675 0 .607 0 1.568-.43 1.821-.981 1.872-4.291 2.883-8.644 1.922-13.732zm3.086 14.897c-.607-1.962-1.164-3.617-1.77-5.64-.658 2.023-1.215 3.74-1.872 5.64h3.642zm-30.197-.368c-.556-1.84-1.012-3.31-1.517-5.027-.506 1.84-.91 3.372-1.366 5.027h2.883zm37.935 153.502c-2.377 4.108-1.82 8.705-1.517 13.242.1 1.287.151 2.636-.05 3.862-.102.613-.81 1.41-1.316 1.471-.405.061-1.163-.674-1.366-1.287-.91-2.391-1.669-4.843-2.782-7.234.405 2.33.961 4.598 1.214 6.988.102 1.226-.303 2.514-.506 3.74-1.315-.613-3.844-1.594-3.844-1.778.557-2.82-1.77-3.249-2.63-4.659-1.669-2.697-2.883-5.333-3.186-8.705-.203-2.39 2.529-7.418 4.704-7.601 3.136-.307 6.322 0 9.458.245.658.061 1.214 1.103 1.821 1.716 0 .062 0 0 0 0zM151.843 94.747c-2.883 4.659-4.451 9.93-5.615 15.51-.202 1.103-1.72 2.451-2.68 2.451-1.973.062-4.047-.49-5.969-1.103-1.467-.49-2.782-1.716-4.249-2.084-2.58-.736-3.59-2.943-2.175-5.824.506.49.961.92 1.467 1.41.203-.245.354-.49.557-.736l-3.187-3.31v-.92c1.214.123 2.529-.06 3.692.368 2.428.92 4.957-.368 5.767-3.187 1.416-4.905 6.272-5.947 9.205-2.023.203.306.354.735.405.919 1.163-.613 1.972-1.042 2.832-1.471 0 .122-.05 0-.05 0zm-11.735 6.988c3.54 3.862 5.918 3.188 6.88-1.839-2.277.613-4.3 1.165-6.88 1.84zM26.1 103.452c-.607-.245-1.316-.307-1.821-.736-.86-.736-1.568-1.655-2.378-2.513.86-1.104 1.67-2.943 2.58-3.065 5.21-.613 10.47-.859 15.73-1.165.81-.061 1.72.122 2.428.49.506.307 1.012 1.104 1.113 1.778.05.368-.708.98-1.163 1.287-2.479 1.472-4.907 3.066-7.436 4.292-1.163.551-2.63.245-3.945.306-.708.061-1.416.061-2.124.061.506.736 1.011 1.533 1.618 2.207.253.246.76.184 1.518.368-.506 1.594-.91 2.943-1.366 4.475-3.035-1.716-5.412-1.471-7.486 1.533-1.062 1.532-2.124 1.042-2.478-.981-.203-1.103-.405-2.207-.354-3.31.1-1.9.505-3.372 2.63-2.882.96.246 2.074-.49 3.085-.797 0-.429-.05-.92-.151-1.348zm132.369 19.678c.607-1.349 1.265-2.636 1.82-3.985.203-.551.406-1.655.153-1.9-1.366-1.594-.354-2.514.607-3.25 3.287-2.451 6.575-4.842 9.863-7.233 2.731-1.962 5.665-.061 6.019 3.74.152 1.47.303 2.942.506 4.72-5.969 2.758-12.089 5.64-18.159 8.46a11.186 11.186 0 0 1-.809-.552zm2.985 182.376a52.24 52.24 0 0 1-1.164-2.636 113.335 113.335 0 0 0-.556 2.513c-3.389-3.372-5.412-11.157-4.198-15.939.657-2.574 2.883-3.678 5.817-3.31 2.377.306 3.085 1.9 3.034 4.475-.05 3.372-.455 6.805.051 10.115.455 3.188-.86 3.923-2.984 4.782zm-31.006-191.387c.809.92 1.517 1.961 2.377 2.697 1.669 1.349 3.591 2.268 5.007 3.923.658.797.658 2.943.354 4.292-.1.551-1.669.858-2.63.98-3.591.613-5.665-2.145-7.637-5.088-.456-.674-1.265-1.287-1.872-1.287-2.276-.061-2.63-1.655-2.58-3.862.051-1.655.051-3.372.102-5.027 1.264.184 2.58.368 3.844.552.506.061 1.011 0 1.517-.062 1.518-.367 2.276.307 1.518 2.882zm6.727 96.612c.151.736.404 1.471.505 2.268.506 4.843 1.063 9.625 1.417 14.468.05.92-.557 2.452-1.214 2.82-1.72 1.042-3.54 1.103-5.109-.859-1.517-1.961-1.366-3.616-.152-5.946 1.113-2.145 1.315-4.965 1.973-7.479.506-1.839 1.062-3.678 1.568-5.517.354.123.658.184 1.012.245zm73.949-51.311a27.174 27.174 0 0 1-.86-1.716c2.327-.184 4.704-.368 6.98-.49-2.225 2.881-4.502 5.578-6.575 8.52-1.164 1.656-1.973 1.534-2.934-.122-.759-1.226-1.416-2.513-2.276-3.617-2.428-2.942-2.68-6.498-2.074-10.421.81 5.027 4.957 5.456 7.739 7.847zm-82.094 61.365c.608-.306 1.366-.674 2.125-1.042-2.327 3.249-.81 7.111-1.618 10.544-2.024-.552-3.693-.98-4.047-4.352-.506-4.72-1.72-9.257-2.68-13.916-.203-1.042-.507-2.084-.81-3.188.253-.122.455-.306.708-.429 2.074 4.107 4.198 8.153 6.323 12.383zM20.283 301.398c.202-.735.202-1.839.607-2.207 1.618-1.348 3.237-2.88 5.058-3.617 2.529-1.042 3.591.613 2.984 3.74-.303 1.594-.455 3.31-.152 4.843.658 3.617 1.619 7.111 2.63 11.463-2.175-4.352-5.563-6.988-5.462-12.137.05-1.962-2.074-3.372-3.743-2.575-.405.184-.81.613-1.164.92-.303-.123-.556-.307-.758-.43zm227.208-131.433c1.973 0 3.389-.184 4.805.062 2.53.367 5.058.98 7.537 1.655.202.061.354 2.39-.05 2.758-.81.736-1.974.859-3.036 1.104-1.264.368-2.58.858-3.844.797-1.113-.062-2.478-.368-3.186-1.288-1.012-1.287-1.417-3.187-2.226-5.088z" fill="#fff"/><path d="M339.042 123.804c3.794.613 6.626 1.103 9.459 1.532l.151-1.103c-2.124-3.126-5.159-2.207-8.345-1.962 2.63-1.839 8.244-1.532 9.913.675.759.98 1.366 2.942 1.062 3.984-.303.981-1.972 2.085-2.933 1.962-2.58-.368-5.16-1.226-7.688-2.146-.658-.183-.961-1.655-1.619-2.942zM280.167 266.15c2.832-2.024 5.665-.491 6.17 3.248.102.92.507 1.717.608 2.636.101.797.05 2.33-.152 2.391-.81.245-2.023.368-2.478-.123-1.113-1.287-1.973-2.942-2.782-4.597-.557-1.104-.91-2.391-1.366-3.556 0-.061 0 0 0 0zm-157.813 25.44c-1.062 3.372-1.871 6.498-3.034 9.38-.658 1.593-1.922 2.82-3.187 3.984 1.214-3.924 1.416-7.786 1.315-11.77-.05-1.84 1.163-2.881 2.782-2.514.708.123 1.366.552 2.124.92zm-15.274-39.724c-.557-.736-1.518-1.471-1.518-2.268-.253-7.295-.354-14.59-.506-21.885 0-.368.101-.736.152-1.104.253 0 .506-.061.809-.061.354 3.985.759 7.97 1.012 12.015.253 4.108.404 8.276.556 12.445a7.596 7.596 0 0 0-.506.858zm-72.786 58.36c-.708-.797-1.821-1.41-2.023-2.39-.658-3.127-1.214-6.315-1.417-9.564-.05-.858 1.366-1.84 2.125-2.82.202.184.455.368.657.552.253 2.207 1.214 4.781.506 6.437-1.062 2.513-1.922 4.107.708 5.578.152.061 0 .92 0 1.41-.101.307-.303.552-.556.797zm-8.346-169.625c-5.615 2.39-10.572 4.475-15.63 6.682.658-1.042 1.316-3.126 2.428-3.678 3.794-1.717 7.79-2.943 11.735-4.291.202-.062.506.368 1.467 1.287zm148.555-10.421c-.91 2.942-3.44 1.961-5.26 2.023 0-2.698-.05-5.21.05-7.724 0-.49.455-.92.658-1.349.455.43.96.736 1.264 1.226 1.062 1.778 2.074 3.617 3.288 5.824zM127.16 241.935c-.152-1.84-.253-3.678-.405-5.947 1.973-.245 3.895-.429 5.867-.674-.202 1.9-.404 3.31-.556 5.027-1.366.429-3.035.98-4.906 1.594zm2.124-25.195c-.708-2.943-1.315-5.58-2.023-8.645l3.187-1.103v6.192c.91-.92 1.315-1.533 1.82-1.84.405-.245 1.012-.06 1.518-.122-.152.613-.152 1.41-.455 1.778-1.164 1.226-2.378 2.268-4.047 3.74zm54.476-112.737c2.63-1.287 5.21-2.574 8.649-4.29-.91 1.47-1.315 2.574-2.023 3.064-2.63 1.962-5.413 3.801-8.144 5.579-.303.184-.708.184-1.062.245 0-.49-.202-1.226 0-1.532.81-1.104 1.77-2.146 2.68-3.188l-.1.122zM55.892 145.076c1.113 2.881 2.175 5.701 3.287 8.582a2.927 2.927 0 0 0-.404.368c-.86-.735-1.67-1.471-3.136-2.697.759 1.655 1.163 2.513 1.568 3.433l-.304.368c-1.365-1.472-2.782-2.882-4.046-4.292a158.29 158.29 0 0 0 3.035-5.762s0 .061 0 0zm57.307 159.51c-.303-.92-.658-1.41-.556-1.594 1.669-2.759-.203-5.211-.304-7.786-.05-.858.81-1.839 1.214-2.697.506.797 1.416 1.533 1.517 2.39.253 3.25.557 6.621-1.871 9.687zM369.188 116.51c2.074 0 4.148.244 6.12-.062 2.075-.368 2.125-.797 1.366-3.617.86.736 1.872 1.226 2.479 2.207.404.613.455 2.145.101 2.636-.455.674-1.517.98-2.327.98-2.023.062-4.046 0-6.07-.244-.657-.062-1.314-.736-1.972-1.165.152-.184.202-.49.303-.736zM137.377 246.532c-2.934.858-5.868 1.717-8.852 2.452-.253.062-.961-.674-.961-.98 0-.552.354-1.533.708-1.594 2.934-.613 5.867-1.043 8.801-1.533l.304 1.655z" fill="#fff"/><path d="M108.344 132.325c1.821-.43 3.591-.797 5.412-1.226.91 2.636-1.922 5.088-6.828 5.456a525.823 525.823 0 0 1 1.568-4.414c0 .061-.152.184-.152.184z" fill="#000"/><path d="M63.074 142.195c3.895.307 6.93.552 10.015.736-.05.674-.05.858-.101.858-2.833.368-5.665.858-8.498 1.042-.303 0-.708-1.349-1.416-2.636zm-6.12-47.632c-1.72 2.39-3.288 4.475-4.907 6.682-2.175-4.107-1.871-5.15 1.568-5.946 1.062-.246 2.074-.49 3.339-.736zm215.726 81.716c1.366.49 2.53.858 3.642 1.287-.607 1.104-1.214 2.146-1.922 3.433.303.246.86.675 1.416 1.104-.05.245-.1.49-.1.735-1.013-.122-2.075 0-2.935-.49-.303-.184-.05-1.778-.05-2.697-.05-.859-.05-1.778-.05-3.372zm31.462-58.114c5.058-3.923 9.914-.797 14.517-1.962 0 .368.05.736.05 1.165-4.653.245-9.307.49-14.567.797zm-37.228 58.605c-3.338.674-3.237-2.33-3.743-5.579 1.67.674 3.187.858 4.249 1.84.404.367-.354 2.451-.557 3.739h.051zm-137.225 26.421c3.49-.98 6.98-1.9 10.47-2.881l.152.92c-3.237 2.574-6.677 3.739-10.622 1.961zm-73.797-58.054c.151 0 .303-.061.455 0 .86.49 2.124.797 2.428 1.594.86 2.33 3.692 3.617 2.68 7.602-2.023-3.433-3.793-6.315-5.563-9.196 0 0 0-.061 0 0zM83.61 155.19c-1.518 1.104-3.086 2.208-4.704 3.372-.708-1.41-1.265-2.39-1.973-3.739 1.265-.49 2.428-.92 3.844-1.41-.152.858-.253 1.287-.404 2.023 1.011-.43 1.871-.797 2.782-1.165l.455.92zm121.242-36.903c-3.996-.245-7.992-.49-11.988-.674V117h12.089c0 .368-.05.858-.101 1.287zm140.159 24.46c-.81-1.103-1.517-1.962-2.276-3.004 2.074-.92 4.097-1.778 6.525-2.881-1.568 2.207-2.782 3.923-4.249 5.885zm-78.198 34.084c2.428 3.494 2.175 4.966-1.264 5.885.404-.735.657-1.226.96-1.777-.505-.43-1.061-.797-1.719-1.288.759-1.042 1.416-1.9 2.074-2.82.05-.061-.05 0-.05 0zM37.53 139.314c-1.163.613-1.921 1.348-2.174 1.164-.86-.797-1.568-1.839-2.276-2.82.404-.367 1.011-1.103 1.214-.98.96.551 1.82 1.41 3.237 2.636zm-23.418 7.479c2.327-.49 4.046-.858 5.817-1.226l.151.92c-1.618 1.164-3.085 3.126-5.968.306zm292.71-55.908c2.731-2.085 4.4-1.962 6.221.674-2.225-.245-4.147-.429-6.221-.674zm-140.968 37.823c.657.43 1.264.858 2.529 1.716a316.262 316.262 0 0 0-3.44 3.127c-.253-.245-.455-.49-.708-.736.556-1.41 1.113-2.758 1.619-4.107zm33.484-37.578c3.591-1.778 4.198-1.655 5.412.98-2.023-.367-3.692-.674-5.412-.98z" fill="#fff"/><path d="M165.904 128.708c-.758.613-1.466 1.287-2.225 1.84-1.467 1.041-2.68.612-3.996-1.472 2.377-.123 4.3-.245 6.221-.368 0 0-.05 0 0 0zm-67.019-6.988c1.518.736 3.086 1.471 4.603 2.146-.101.306-.152.551-.253.858-1.416-1.104-3.692.552-4.754-1.778.151-.368.252-.797.404-1.226zm159.278 86.498a929.427 929.427 0 0 1 2.985 5.395c-2.53-.49-3.39-1.778-2.985-5.395zm12.343-26.789c-.506-2.82-1.012-5.64-1.467-8.46.303-.061.658-.184.961-.245.405 2.82.759 5.701 1.163 8.521-.202.061-.455.123-.657.184zM138.085 305.628c.152-.98.152-2.023.506-2.88.101-.307 1.113 0 1.72 0-.304 1.103-.607 2.206-.961 3.248-.405-.061-.86-.245-1.265-.368zM311.78 113.69h-6.121v-.736h6.12v.736zm-47.901 90.421h4.502c-.557 2.452-1.417 2.575-4.502 0zM202.93 38.716c1.011-.92 1.972-1.962 2.984-2.82 8.396-6.743 17.298-12.322 27.111-15.326 4.654-1.41 9.358-2.39 14.264-3.616-.101-2.637.202-5.702 3.237-5.395 1.012.122 1.82 2.82 3.136 5.088 6.373.49 13.707.98 21.092 1.533 9.003 3.126 17.754 7.11 25.796 12.996 2.782 2.023 5.362 4.352 8.447 6.927-.961.368-1.416.674-1.821.674l-103.336.184c-.303 0-.607-.245-.961-.306.05-.062.05.061.05.061z" fill="#fff"/><path d="M117.297 102.839c-1.063-2.391-2.327-4.66-3.086-7.173-.91-3.003-1.669-3.616-3.996-2.145-2.276 1.471-4.45 3.555-7.182 1.165-.202-.184-1.366.735-1.568 1.348-.759 2.391-1.214 4.966-2.074 7.356-.202.614-1.467.675-2.58 1.104 0-4.414-.151-8.03.051-11.586.152-3.617 2.377-5.395 4.603-7.602.101 1.594.152 2.575.202 3.556.759-.49 1.568-.797 2.276-1.41a6.953 6.953 0 0 0 1.518-2.023c1.618-2.943 4.805-3.065 6.727-.368.607.858 1.416 1.778 2.276 2.146 2.782 1.226 4.552 3.678 4.502 7.05-.05 2.697-.557 5.333-.86 7.969-.253.306-.557.429-.81.613zM33.535 88.8c.203 1.226.456 2.207.557 3.25 0 .122-.86.674-1.012.49-.81-.797-1.72-1.594-2.175-2.636-.91-2.023-1.568-4.23-2.327-6.376-.05-.184-.253-.368-.202-.551 1.012-4.72-1.72-4.843-4.3-4.905.405-2.023.709-3.8 1.113-5.517.355-1.778.81-3.555 1.265-5.578 3.187 3.065 3.996 7.172 4.603 11.524.202 1.533.759 3.372 1.72 4.414 2.377 2.698 2.478 2.575.758 5.885zM179.51 46.87c-1.87-2.269-2.984-4.782-1.921-8.154.253-.858-.051-2.023.151-2.942.253-1.226.708-2.453 1.063-3.617 1.062.551 2.73.735 3.085 1.716.81 2.084 1.265 4.598 1.265 6.927 0 2.636-.709 5.211-3.642 6.07zm-14.06-8.828v-.307c-.355-2.084-.304-4.904 1.567-4.904 1.113 0 2.378 3.065 3.187 4.966.506 1.287.253 3.003.253 4.475 0 1.778-.506 3.187-2.226 3.371-1.77.246-2.377-.858-2.428-2.88-.05-1.595-.303-3.189-.455-4.844 0 .123.05.123.101.123z" fill="#000"/><path d="M114.97 101.613c-1.72 4.72-3.136 5.088-5.564 2.452-1.112-1.226-1.618-.674-2.276.613-1.416 2.575-3.844 2.697-5.108.245-.253-.49.202-2.268.404-2.268 4.148-.429 8.346-.674 12.544-1.042zM9.104 86.961c2.985.49 3.035 3.25 4.098 5.64 1.315 2.943-1.214 4.966-.203 7.663-1.011.184-2.023.307-2.782.43-.354-4.66-.708-8.89-1.113-13.733zm162.111-6.927c-1.113 1.042-1.82 1.778-2.58 2.452-.455-.735-1.416-1.594-1.315-2.207.152-1.164.91-2.268 1.417-3.371.708.858 1.365 1.716 2.478 3.126zM33.484 37.429c.051-1.533.152-3.004.203-4.537.253 0 .506 0 .758.062v4.597c-.303-.061-.607-.122-.96-.122z" fill="#000"/><path d="M308.947 39.39c-2.125 7.418 3.591 8.583 6.019 12.138-1.467 1.226-110.064 1.84-118.612.613.81-.797 1.366-1.287 1.871-1.777 1.417-1.41 3.136-2.514 4.25-4.23 1.921-3.065 4.096-4.108 7.283-4.108 30.753.062 61.506-.122 92.259-.245h.759c2.225-.122 4.855 1.655 6.171-2.39zm-22.711 11.035c0-.184 0-.307.05-.49h-76.68v.49h76.63zm20.991-.184c.05-.184.05-.307.101-.49h-19.322v.49h19.221zm78.956-32.736c-1.972.859-3.287 1.349-4.603 1.962-2.073.98-4.046 2.881-6.22.368-.304-.368-.659-.675-.86-1.104-.709-1.777.808-4.965 3.135-6.62 1.77-1.226 3.288-.49 4.3 1.41.657 1.226.91 2.207 2.58 1.716 1.972-.429 1.719 1.533 1.668 2.268zm-69.143-.981c-1.568.184-3.187.552-4.755.49-.759 0-1.467-.796-2.175-1.225.405-.92.556-2.268 1.214-2.697 1.82-1.227 3.794-2.33 5.817-3.066.758-.245 2.074.368 2.63 1.165.86 1.226 1.366 2.881 1.82 4.414.051.184-.91 1.103-1.466 1.226-.961.184-2.023.061-3.035.061-.05-.122-.05-.245-.05-.368zm16.742 18.024c.202-2.33-.556-4.66 2.124-5.518.557-.183.658-1.777 1.265-2.39.607-.675 1.517-1.226 2.276-1.288.506 0 1.416.92 1.517 1.533.152.858 0 2.268-.505 2.759-1.72 1.716-3.592 3.126-5.463 4.597-.253.245-.658.184-1.214.307z" fill="#fff"/><path d="M90.185 144.954c-2.326 2.513-4.906 4.352-8.194 4.536 2.63-2.146 5.26-4.23 8.093-6.498v2.084c.05 0 .101-.122.101-.122zm28.832 12.627c0-1.839 2.883-2.145 6.272 0h-6.272zm-18.311-9.746c-2.276-.98-3.895-1.716-5.513-2.39 1.922-1.962 3.136-1.594 5.513 2.39zm130.093-17.287h19.12v.245h-19.12v-.245zm-185.327-3.127c3.187-.98 2.175 4.414 4.957 4.353-3.086 3.494-3.086 3.494-6.12 1.961.303-1.961.708-3.923 1.163-6.314zm-5.867-9.563c1.973-.123 3.895-.245 6.07-.368-1.063 4.046-3.136 4.352-6.07 1.41v-1.042zm312.639-16.797c2.377-.061 4.754-.245 6.272 2.698.91 1.777.809 3.126-.86 3.862-2.63 1.226-5.463 2.88-7.89-.246-1.063-1.348-1.62-3.31-2.378-5.026l4.097-1.288c.253-.061.506 0 .759 0zm-9.408 11.035c1.872.306 3.642.429 5.311.98.506.185.708 1.472 1.062 2.269-1.416.613-2.832 1.471-4.3 1.716-.758.123-1.972-.797-2.326-1.655-.81-1.839-.91-3.862 1.062-5.088-.202.43-.455.98-.809 1.778zm-70.408.858h-3.642c.607-1.9 1.163-3.617 1.872-5.64.606 1.962 1.112 3.617 1.77 5.64zm-30.197-.368h-2.883c.455-1.594.86-3.188 1.366-5.027.505 1.716.96 3.188 1.517 5.027zm-102.123-10.851c2.58-.674 4.603-1.226 6.879-1.839-.961 4.966-3.338 5.701-6.879 1.84zm146.128-51.31h-76.68v-.49h76.68v.49zm20.991-.184h-19.221v-.49h19.322c-.05.184-.05.368-.101.49z" fill="#000"/></g></svg>