<svg viewBox="0 0 84 44" fill="none" xmlns="http://www.w3.org/2000/svg"><path fill="#000" d="M0 0h20v43H0z"/><path d="M18.219 3.469v5.619c0 .933-.293 1.672-.88 2.215-.581.543-1.378.814-2.39.814-.996 0-1.787-.264-2.373-.79-.586-.528-.885-1.253-.896-2.175V3.47h1.757V9.1c0 .56.133.967.399 1.225.27.254.64.381 1.113.381.988 0 1.49-.52 1.506-1.559V3.47h1.764zm-1.64 20.773h-3.083L12.91 26h-1.869l3.176-8.531h1.629L19.039 26h-1.87l-.59-1.758zm-2.608-1.424h2.133l-1.073-3.193-1.06 3.193zm4.54 16.104c-.316.379-.763.674-1.341.885a5.666 5.666 0 0 1-1.922.31c-.738 0-1.387-.16-1.945-.48a3.266 3.266 0 0 1-1.29-1.407c-.3-.613-.454-1.333-.462-2.162v-.58c0-.851.142-1.588.428-2.209.289-.625.703-1.101 1.242-1.43.543-.331 1.177-.497 1.904-.497 1.012 0 1.803.242 2.373.726.57.48.908 1.182 1.014 2.104H16.8c-.078-.489-.252-.846-.522-1.073-.265-.226-.633-.34-1.101-.34-.598 0-1.053.225-1.366.674-.312.45-.47 1.117-.474 2.004v.545c0 .895.17 1.57.51 2.028.34.457.838.685 1.494.685.66 0 1.13-.14 1.412-.422v-1.47h-1.6v-1.295h3.358v3.404z" fill="#D4D801"/><path d="M22.572 8.578l-.914.985V12H19.9V3.469h1.758v3.867l.773-1.06 2.174-2.807h2.162l-3.029 3.79L26.855 12h-2.092l-2.191-3.422zm8.344.299h-1.4V12h-1.759V3.469h3.17c1.008 0 1.785.224 2.332.674.547.449.82 1.084.82 1.904 0 .582-.126 1.068-.38 1.459-.25.387-.631.695-1.143.926l1.846 3.486V12h-1.887l-1.6-3.123zm-1.4-1.424h1.417c.442 0 .783-.111 1.026-.334.242-.226.363-.537.363-.931 0-.403-.115-.72-.346-.95-.227-.23-.576-.345-1.049-.345h-1.412v2.56zm10.962 2.79h-3.082L36.81 12h-1.87l3.177-8.531h1.628L42.94 12h-1.87l-.591-1.758zM37.87 8.817h2.133l-1.072-3.193-1.06 3.193zM45.845 12h-1.758V3.469h1.758V12zm8.812 0h-1.758l-3.422-5.613V12H47.72V3.469h1.757l3.428 5.625V3.469h1.752V12zm3.644 0h-1.757V3.469H58.3V12zm6.797-1.758h-3.082L61.43 12h-1.87l3.177-8.531h1.629L67.559 12h-1.87l-.591-1.758zm-2.607-1.424h2.132l-1.072-3.193-1.06 3.193zM75.533 12h-1.757l-3.422-5.613V12h-1.758V3.469h1.758l3.427 5.625V3.469h1.752V12zM20.076 26v-8.531H22.7c.75 0 1.42.17 2.01.51a3.506 3.506 0 0 1 1.388 1.44c.332.622.498 1.329.498 2.122v.393c0 .793-.164 1.498-.492 2.115a3.485 3.485 0 0 1-1.377 1.435c-.593.34-1.263.512-2.01.516h-2.642zm1.758-7.107v5.695h.85c.687 0 1.212-.225 1.576-.674.363-.45.548-1.092.556-1.928v-.45c0-.868-.18-1.524-.539-1.97-.36-.449-.885-.673-1.576-.673h-.867zm9.31 4.992l1.934-6.416h1.957L32.064 26H30.23l-2.959-8.531h1.951l1.922 6.416zm10.072-1.582h-3.375v2.285h3.961V26h-5.719v-8.531h5.707v1.424h-3.949v2.033h3.375v1.377zm5.016.574h-1.4V26h-1.759v-8.531h3.17c1.008 0 1.785.224 2.332.674.547.449.82 1.084.82 1.904 0 .582-.126 1.068-.38 1.459-.25.387-.631.695-1.143.926l1.846 3.486V26H47.83l-1.6-3.123zm-1.4-1.424h1.417c.442 0 .783-.111 1.026-.334.242-.226.363-.537.363-.931 0-.403-.115-.72-.346-.95-.226-.23-.576-.345-1.049-.345h-1.412v2.56zm12.274-2.56h-2.613V26h-1.758v-7.107h-2.578v-1.424h6.95v1.424zM60.223 26h-1.758v-8.531h1.758V26zm6.299-2.238c0-.332-.117-.586-.352-.762-.234-.18-.656-.367-1.265-.563-.61-.199-1.092-.394-1.448-.585-.968-.524-1.453-1.229-1.453-2.116 0-.46.13-.87.387-1.23.262-.363.635-.647 1.12-.85a4.234 4.234 0 0 1 1.64-.304c.61 0 1.152.11 1.629.334.476.218.845.529 1.107.931.266.402.399.86.399 1.371h-1.758c0-.39-.123-.693-.37-.908-.246-.219-.591-.328-1.037-.328-.43 0-.763.092-1.001.275a.852.852 0 0 0-.358.715c0 .277.139.51.416.697.281.188.693.364 1.236.528 1 .3 1.729.674 2.186 1.119.457.445.686 1 .686 1.664 0 .738-.28 1.318-.838 1.74-.559.418-1.311.627-2.256.627a4.392 4.392 0 0 1-1.793-.357c-.54-.242-.951-.573-1.237-.99a2.552 2.552 0 0 1-.421-1.454h1.763c0 .942.563 1.413 1.688 1.413.418 0 .744-.084.978-.252a.837.837 0 0 0 .352-.715zM71.59 26h-1.758v-8.531h1.758V26zm8.812 0h-1.758l-3.421-5.613V26h-1.758v-8.531h1.758l3.427 5.625v-5.625h1.752V26zM23.34 36.877h-1.4V40h-1.76v-8.531h3.17c1.008 0 1.786.224 2.332.674.547.449.82 1.084.82 1.904 0 .582-.126 1.068-.38 1.459-.25.387-.631.695-1.143.926l1.846 3.486V40h-1.887l-1.6-3.123zm-1.4-1.424h1.417c.442 0 .783-.111 1.026-.334.242-.226.363-.537.363-.931 0-.403-.115-.72-.346-.95-.226-.23-.576-.345-1.049-.345H21.94v2.56zm13.153.475c0 .84-.148 1.576-.445 2.209a3.358 3.358 0 0 1-1.277 1.465c-.551.343-1.184.515-1.899.515-.707 0-1.338-.17-1.892-.51-.555-.34-.985-.824-1.29-1.453-.304-.633-.458-1.36-.462-2.18v-.421c0-.84.15-1.578.45-2.215.306-.64.733-1.131 1.284-1.47.555-.345 1.188-.516 1.899-.516.71 0 1.341.171 1.892.515.555.34.983.83 1.283 1.47.305.638.457 1.374.457 2.21v.38zm-1.781-.387c0-.894-.16-1.574-.48-2.039-.32-.465-.778-.697-1.371-.697-.59 0-1.045.23-1.366.691-.32.457-.482 1.129-.486 2.016v.416c0 .87.16 1.547.48 2.027.32.48.782.72 1.383.72.59 0 1.043-.23 1.36-.69.316-.465.476-1.141.48-2.028v-.416zm9.756-4.072v5.619c0 .934-.293 1.672-.88 2.215-.581.543-1.378.814-2.39.814-.996 0-1.787-.264-2.373-.79-.586-.528-.885-1.253-.896-2.175V31.47h1.757v5.63c0 .56.133.967.399 1.225.27.254.64.381 1.113.381.988 0 1.49-.52 1.506-1.558V31.47h1.764zm3.439 5.525V40h-1.758v-8.531h3.328c.64 0 1.203.117 1.688.351.488.235.863.569 1.125 1.002.261.43.392.92.392 1.471 0 .836-.287 1.496-.861 1.98-.57.48-1.361.721-2.373.721h-1.541zm0-1.424h1.57c.465 0 .819-.11 1.06-.328.247-.219.37-.531.37-.937 0-.418-.123-.756-.37-1.014-.245-.258-.585-.39-1.019-.398h-1.611v2.677z" fill="#fff"/><path d="M20.219 3.469v5.619c0 .933-.293 1.672-.88 2.215-.581.543-1.378.814-2.39.814-.996 0-1.787-.264-2.373-.79-.586-.528-.885-1.253-.896-2.175V3.47h1.758V9.1c0 .56.132.967.398 1.225.27.254.64.381 1.113.381.988 0 1.49-.52 1.506-1.559V3.47h1.764zm-1.64 20.773h-3.083L14.91 26h-1.869l3.176-8.531h1.629L21.039 26h-1.87l-.59-1.758zm-2.608-1.424h2.133l-1.073-3.193-1.06 3.193zm4.54 16.104c-.316.379-.763.674-1.341.885a5.666 5.666 0 0 1-1.922.31c-.738 0-1.387-.16-1.945-.48a3.266 3.266 0 0 1-1.29-1.407c-.3-.613-.454-1.333-.462-2.162v-.58c0-.851.142-1.588.428-2.209.289-.625.703-1.101 1.242-1.43.543-.331 1.177-.497 1.904-.497 1.012 0 1.803.242 2.373.726.57.48.908 1.182 1.014 2.104H18.8c-.078-.489-.252-.846-.522-1.073-.265-.226-.633-.34-1.101-.34-.598 0-1.053.225-1.366.674-.312.45-.47 1.117-.474 2.004v.545c0 .895.17 1.57.51 2.028.34.457.838.685 1.494.685.66 0 1.13-.14 1.412-.422v-1.47h-1.6v-1.295h3.358v3.404z" fill="#fff" fill-opacity=".1"/><path d="M24.572 8.578l-.914.985V12H21.9V3.469h1.758v3.867l.773-1.06 2.174-2.807h2.162l-3.029 3.79L28.855 12h-2.092l-2.191-3.422zm8.344.299h-1.4V12h-1.759V3.469h3.17c1.008 0 1.785.224 2.332.674.547.449.82 1.084.82 1.904 0 .582-.126 1.068-.38 1.459-.25.387-.631.695-1.143.926l1.846 3.486V12h-1.887l-1.6-3.123zm-1.4-1.424h1.417c.441 0 .783-.111 1.025-.334.243-.226.364-.537.364-.931 0-.403-.115-.72-.346-.95-.227-.23-.576-.345-1.049-.345h-1.412v2.56zm10.962 2.79h-3.082L38.81 12h-1.87l3.177-8.531h1.628L44.94 12h-1.87l-.591-1.758zM39.87 8.817h2.133l-1.072-3.193-1.06 3.193zM47.845 12h-1.758V3.469h1.758V12zm8.812 0h-1.758l-3.422-5.613V12H49.72V3.469h1.757l3.428 5.625V3.469h1.752V12zm3.644 0h-1.757V3.469H60.3V12zm6.797-1.758h-3.082L63.43 12h-1.87l3.177-8.531h1.629L69.558 12h-1.87l-.591-1.758zm-2.607-1.424h2.132l-1.072-3.193-1.06 3.193zM77.533 12h-1.757l-3.422-5.613V12h-1.758V3.469h1.758l3.427 5.625V3.469h1.752V12zM22.076 26v-8.531H24.7c.75 0 1.42.17 2.01.51a3.506 3.506 0 0 1 1.388 1.44c.332.622.498 1.329.498 2.122v.393c0 .793-.164 1.498-.492 2.115a3.485 3.485 0 0 1-1.377 1.435c-.593.34-1.263.512-2.01.516h-2.642zm1.758-7.107v5.695h.85c.687 0 1.212-.225 1.576-.674.363-.45.548-1.092.556-1.928v-.45c0-.868-.18-1.524-.539-1.97-.36-.449-.885-.673-1.576-.673h-.867zm9.31 4.992l1.934-6.416h1.957L34.064 26H32.23l-2.959-8.531h1.951l1.922 6.416zm10.072-1.582h-3.375v2.285h3.961V26h-5.719v-8.531h5.707v1.424h-3.949v2.033h3.375v1.377zm5.016.574h-1.4V26h-1.759v-8.531h3.17c1.008 0 1.785.224 2.332.674.547.449.82 1.084.82 1.904 0 .582-.126 1.068-.38 1.459-.25.387-.631.695-1.143.926l1.846 3.486V26H49.83l-1.6-3.123zm-1.4-1.424h1.417c.442 0 .783-.111 1.026-.334.242-.226.363-.537.363-.931 0-.403-.115-.72-.346-.95-.226-.23-.576-.345-1.049-.345h-1.412v2.56zm12.274-2.56h-2.613V26h-1.758v-7.107h-2.578v-1.424h6.95v1.424zM62.223 26h-1.758v-8.531h1.758V26zm6.299-2.238c0-.332-.117-.586-.352-.762-.234-.18-.656-.367-1.265-.563-.61-.199-1.092-.394-1.448-.585-.968-.524-1.453-1.229-1.453-2.116 0-.46.13-.87.387-1.23.262-.363.635-.647 1.12-.85a4.234 4.234 0 0 1 1.64-.304c.61 0 1.152.11 1.629.334.476.218.845.529 1.107.931.266.402.398.86.398 1.371h-1.757c0-.39-.123-.693-.37-.908-.246-.219-.591-.328-1.037-.328-.43 0-.763.092-1.001.275a.852.852 0 0 0-.358.715c0 .277.139.51.416.697.281.188.693.364 1.236.528 1 .3 1.729.674 2.186 1.119.457.445.686 1 .686 1.664 0 .738-.28 1.318-.838 1.74-.559.418-1.311.627-2.256.627a4.392 4.392 0 0 1-1.793-.357c-.54-.242-.951-.573-1.237-.99a2.552 2.552 0 0 1-.421-1.454h1.763c0 .942.563 1.413 1.688 1.413.418 0 .744-.084.978-.252a.837.837 0 0 0 .352-.715zM73.59 26h-1.758v-8.531h1.758V26zm8.812 0h-1.758l-3.421-5.613V26h-1.758v-8.531h1.758l3.427 5.625v-5.625h1.752V26zM25.34 36.877h-1.4V40h-1.76v-8.531h3.17c1.008 0 1.786.224 2.332.674.547.449.82 1.084.82 1.904 0 .582-.126 1.068-.38 1.459-.25.387-.631.695-1.143.926l1.846 3.486V40h-1.887l-1.6-3.123zm-1.4-1.424h1.417c.442 0 .783-.111 1.026-.334.242-.226.363-.537.363-.931 0-.403-.115-.72-.346-.95-.226-.23-.576-.345-1.049-.345H23.94v2.56zm13.153.475c0 .84-.148 1.576-.445 2.209a3.358 3.358 0 0 1-1.277 1.465c-.551.343-1.184.515-1.899.515-.707 0-1.338-.17-1.892-.51-.555-.34-.985-.824-1.29-1.453-.304-.633-.458-1.36-.462-2.18v-.421c0-.84.15-1.578.45-2.215.306-.64.733-1.131 1.284-1.47.555-.345 1.188-.516 1.899-.516.71 0 1.341.171 1.892.515.555.34.983.83 1.283 1.47.305.638.457 1.374.457 2.21v.38zm-1.781-.387c0-.894-.16-1.574-.48-2.039-.32-.465-.778-.697-1.371-.697-.59 0-1.045.23-1.366.691-.32.457-.482 1.129-.486 2.016v.416c0 .87.16 1.547.48 2.027.32.48.782.72 1.383.72.59 0 1.043-.23 1.36-.69.316-.465.476-1.141.48-2.028v-.416zm9.756-4.072v5.619c0 .934-.293 1.672-.88 2.215-.581.543-1.378.814-2.39.814-.996 0-1.787-.264-2.373-.79-.586-.528-.885-1.253-.896-2.175V31.47h1.757v5.63c0 .56.133.967.399 1.225.27.254.64.381 1.113.381.988 0 1.49-.52 1.506-1.558V31.47h1.764zm3.439 5.525V40h-1.758v-8.531h3.328c.64 0 1.203.117 1.688.351.488.235.863.569 1.125 1.002.261.43.392.92.392 1.471 0 .836-.287 1.496-.861 1.98-.57.48-1.361.721-2.373.721h-1.541zm0-1.424h1.57c.465 0 .819-.11 1.06-.328.247-.219.37-.531.37-.937 0-.418-.123-.756-.37-1.014-.245-.258-.585-.39-1.019-.398h-1.611v2.677z" fill="#333"/></svg>