<svg viewBox="0 0 233 81" fill="none" xmlns="http://www.w3.org/2000/svg">
<path d="M82 47.7667C82 47.7667 79.1476 55.5192 70.7713 56.3352C70.7713 56.3352 89.1538 45.0918 78.5136 22.1063C78.5136 22.1063 78.8306 29.7228 75.8423 33.3497C75.8423 33.3497 79.6003 12.903 63.3457 5.69453C63.9796 6.01189 65.9718 7.59864 66.651 14.1724C66.651 14.1724 52.9319 -8.22376 24.4072 3.29168C24.4072 3.29168 50.804 1.65958 61.4894 20.0208C70.726 35.8885 66.7415 49.0814 59.5877 56.2899C56.4635 59.7355 51.3473 62.5464 44.3745 62.2743C36.8132 61.957 30.2027 54.3405 29.433 47.0867C28.9802 43.6864 29.8405 40.0142 33.689 36.7046C33.689 36.7046 40.4807 31.3096 47.0459 36.7046C47.0459 36.7046 49.2645 38.7901 48.4495 41.8276C48.4495 41.8276 56.9164 38.0647 52.8867 29.8588C48.857 21.653 37.8999 23.0584 37.8999 23.0584C37.8999 23.0584 31.6516 23.4664 26.3541 25.5519C26.3541 25.5519 30.0669 24.9172 32.1043 26.9573C32.1043 26.9573 21.7812 28.0907 19.1551 32.4883C19.1551 32.4883 21.1019 31.0375 23.9544 31.6269C23.9544 31.6269 17.7061 36.2966 15.8045 42.5076C15.8045 42.5076 4.53044 27.184 15.8045 8.95873C15.8045 8.95873 -23.5868 45.5905 22.0075 76.0112C22.0075 76.0112 15.2159 69.1655 15.6686 61.9116C15.6686 61.9116 32.1497 94.5992 64.4324 74.4245C64.4324 74.4245 53.8375 76.1473 47.3176 71.8856C47.3176 71.8403 78.3778 75.5126 82 47.7667Z" fill="#515151"/>
<path d="M82 47.7667C82 47.7667 79.1476 55.5192 70.7713 56.3352C70.7713 56.3352 89.1538 45.0918 78.5136 22.1063C78.5136 22.1063 78.8306 29.7228 75.8423 33.3497C75.8423 33.3497 79.6003 12.903 63.3457 5.69453C63.9796 6.01189 65.9718 7.59864 66.651 14.1724C66.651 14.1724 52.9319 -8.22376 24.4072 3.29168C24.4072 3.29168 50.804 1.65958 61.4894 20.0208C70.726 35.8885 66.7415 49.0814 59.5877 56.2899C56.4635 59.7355 51.3473 62.5464 44.3745 62.2743C36.8132 61.957 30.2027 54.3405 29.433 47.0867C28.9802 43.6864 29.8405 40.0142 33.689 36.7046C33.689 36.7046 40.4807 31.3096 47.0459 36.7046C47.0459 36.7046 49.2645 38.7901 48.4495 41.8276C48.4495 41.8276 56.9164 38.0647 52.8867 29.8588C48.857 21.653 37.8999 23.0584 37.8999 23.0584C37.8999 23.0584 31.6516 23.4664 26.3541 25.5519C26.3541 25.5519 30.0669 24.9172 32.1043 26.9573C32.1043 26.9573 21.7812 28.0907 19.1551 32.4883C19.1551 32.4883 21.1019 31.0375 23.9544 31.6269C23.9544 31.6269 17.7061 36.2966 15.8045 42.5076C15.8045 42.5076 4.53044 27.184 15.8045 8.95873C15.8045 8.95873 -23.5868 45.5905 22.0075 76.0112C22.0075 76.0112 15.2159 69.1655 15.6686 61.9116C15.6686 61.9116 32.1497 94.5992 64.4324 74.4245C64.4324 74.4245 53.8375 76.1473 47.3176 71.8856C47.3176 71.8403 78.3778 75.5126 82 47.7667Z" fill="url(#paint0_linear)"/>
<path d="M6.85918 27.5C6.50918 27.55 6.21751 27.575 5.98418 27.575C4.38418 27.575 3.19251 27.1833 2.40918 26.4C1.62585 25.6 1.23418 24.2083 1.23418 22.225V17.175C1.23418 15.2417 1.60085 13.8583 2.33418 13.025C3.08418 12.1917 4.18418 11.775 5.63418 11.775C6.11751 11.775 6.52585 11.7917 6.85918 11.825V7.925H9.68418V11.825C10.1175 11.7917 10.5425 11.775 10.9592 11.775C12.4258 11.775 13.5258 12.1917 14.2592 13.025C15.0092 13.8583 15.3842 15.2417 15.3842 17.175V22.225C15.3842 24.1417 15.0258 25.5167 14.3092 26.35C13.5925 27.1667 12.5925 27.575 11.3092 27.575C10.7758 27.575 10.2342 27.55 9.68418 27.5V30.9H6.85918V27.5ZM6.15918 25.875C6.42585 25.875 6.65918 25.8583 6.85918 25.825V13.525C6.45918 13.4917 6.16751 13.475 5.98418 13.475C5.41751 13.475 4.97585 13.5833 4.65918 13.8C4.35918 14.0167 4.14251 14.3917 4.00918 14.925C3.87585 15.4417 3.80918 16.1917 3.80918 17.175V22.225C3.80918 23.2583 3.86751 24.025 3.98418 24.525C4.10085 25.025 4.31751 25.375 4.63418 25.575C4.96751 25.775 5.47585 25.875 6.15918 25.875ZM10.6092 25.875C11.2092 25.875 11.6592 25.775 11.9592 25.575C12.2758 25.375 12.4925 25.0167 12.6092 24.5C12.7425 23.9833 12.8092 23.225 12.8092 22.225V17.175C12.8092 16.1583 12.7508 15.4 12.6342 14.9C12.5175 14.3833 12.3008 14.0167 11.9842 13.8C11.6675 13.5833 11.1925 13.475 10.5592 13.475C10.3092 13.475 10.0175 13.4917 9.68418 13.525V25.825C9.98418 25.8583 10.2925 25.875 10.6092 25.875ZM19.6619 9.75H27.5119V11.85H22.4869V18.55H26.5619V20.55H22.4869V27.975H27.5619V30H19.6619V9.75ZM31.3426 9.75H34.1676V18.5H39.3676V9.75H42.1926V30H39.3676V20.525H34.1676V30H31.3426V9.75ZM46.8563 9.75H49.3563V23.775L55.2813 9.75H57.3063V30H54.8312V15.75L48.9562 30H46.8563V9.75ZM61.9793 9.75H64.8043V18.75H65.8543L69.4793 9.75H72.3043L68.3043 19.375L72.8043 30H69.9793L65.8793 20.125H64.8043V30H61.9793V9.75ZM81.2496 30.225C79.2496 30.225 77.8413 29.6333 77.0246 28.45C76.2079 27.25 75.7996 25.6 75.7996 23.5V16.35C75.7996 14.1333 76.1996 12.45 76.9996 11.3C77.7996 10.15 79.2163 9.575 81.2496 9.575C83.0663 9.575 84.3663 10.0667 85.1496 11.05C85.9496 12.0333 86.3496 13.4833 86.3496 15.4V17H83.6746V15.575C83.6746 14.6417 83.6329 13.925 83.5496 13.425C83.4663 12.925 83.2496 12.525 82.8996 12.225C82.5663 11.925 82.0246 11.775 81.2746 11.775C80.5079 11.775 79.9329 11.9417 79.5496 12.275C79.1829 12.5917 78.9413 13.0417 78.8246 13.625C78.7079 14.1917 78.6496 14.9583 78.6496 15.925V23.95C78.6496 24.9833 78.7329 25.7917 78.8996 26.375C79.0663 26.9583 79.3329 27.375 79.6996 27.625C80.0829 27.875 80.6079 28 81.2746 28C81.9913 28 82.5246 27.8417 82.8746 27.525C83.2246 27.2083 83.4413 26.775 83.5246 26.225C83.6246 25.675 83.6746 24.925 83.6746 23.975V22.475H86.3496V23.975C86.3496 25.9917 85.9663 27.5417 85.1996 28.625C84.4496 29.6917 83.1329 30.225 81.2496 30.225Z" transform="translate(121 8)" fill="#A9A9A9"/>
<path d="M6.85918 27.5C6.50918 27.55 6.21751 27.575 5.98418 27.575C4.38418 27.575 3.19251 27.1833 2.40918 26.4C1.62585 25.6 1.23418 24.2083 1.23418 22.225V17.175C1.23418 15.2417 1.60085 13.8583 2.33418 13.025C3.08418 12.1917 4.18418 11.775 5.63418 11.775C6.11751 11.775 6.52585 11.7917 6.85918 11.825V7.925H9.68418V11.825C10.1175 11.7917 10.5425 11.775 10.9592 11.775C12.4258 11.775 13.5258 12.1917 14.2592 13.025C15.0092 13.8583 15.3842 15.2417 15.3842 17.175V22.225C15.3842 24.1417 15.0258 25.5167 14.3092 26.35C13.5925 27.1667 12.5925 27.575 11.3092 27.575C10.7758 27.575 10.2342 27.55 9.68418 27.5V30.9H6.85918V27.5ZM6.15918 25.875C6.42585 25.875 6.65918 25.8583 6.85918 25.825V13.525C6.45918 13.4917 6.16751 13.475 5.98418 13.475C5.41751 13.475 4.97585 13.5833 4.65918 13.8C4.35918 14.0167 4.14251 14.3917 4.00918 14.925C3.87585 15.4417 3.80918 16.1917 3.80918 17.175V22.225C3.80918 23.2583 3.86751 24.025 3.98418 24.525C4.10085 25.025 4.31751 25.375 4.63418 25.575C4.96751 25.775 5.47585 25.875 6.15918 25.875ZM10.6092 25.875C11.2092 25.875 11.6592 25.775 11.9592 25.575C12.2758 25.375 12.4925 25.0167 12.6092 24.5C12.7425 23.9833 12.8092 23.225 12.8092 22.225V17.175C12.8092 16.1583 12.7508 15.4 12.6342 14.9C12.5175 14.3833 12.3008 14.0167 11.9842 13.8C11.6675 13.5833 11.1925 13.475 10.5592 13.475C10.3092 13.475 10.0175 13.4917 9.68418 13.525V25.825C9.98418 25.8583 10.2925 25.875 10.6092 25.875ZM19.6619 9.75H27.5119V11.85H22.4869V18.55H26.5619V20.55H22.4869V27.975H27.5619V30H19.6619V9.75ZM31.3426 9.75H34.1676V18.5H39.3676V9.75H42.1926V30H39.3676V20.525H34.1676V30H31.3426V9.75ZM46.8563 9.75H49.3563V23.775L55.2813 9.75H57.3063V30H54.8312V15.75L48.9562 30H46.8563V9.75ZM61.9793 9.75H64.8043V18.75H65.8543L69.4793 9.75H72.3043L68.3043 19.375L72.8043 30H69.9793L65.8793 20.125H64.8043V30H61.9793V9.75ZM81.2496 30.225C79.2496 30.225 77.8413 29.6333 77.0246 28.45C76.2079 27.25 75.7996 25.6 75.7996 23.5V16.35C75.7996 14.1333 76.1996 12.45 76.9996 11.3C77.7996 10.15 79.2163 9.575 81.2496 9.575C83.0663 9.575 84.3663 10.0667 85.1496 11.05C85.9496 12.0333 86.3496 13.4833 86.3496 15.4V17H83.6746V15.575C83.6746 14.6417 83.6329 13.925 83.5496 13.425C83.4663 12.925 83.2496 12.525 82.8996 12.225C82.5663 11.925 82.0246 11.775 81.2746 11.775C80.5079 11.775 79.9329 11.9417 79.5496 12.275C79.1829 12.5917 78.9413 13.0417 78.8246 13.625C78.7079 14.1917 78.6496 14.9583 78.6496 15.925V23.95C78.6496 24.9833 78.7329 25.7917 78.8996 26.375C79.0663 26.9583 79.3329 27.375 79.6996 27.625C80.0829 27.875 80.6079 28 81.2746 28C81.9913 28 82.5246 27.8417 82.8746 27.525C83.2246 27.2083 83.4413 26.775 83.5246 26.225C83.6246 25.675 83.6746 24.925 83.6746 23.975V22.475H86.3496V23.975C86.3496 25.9917 85.9663 27.5417 85.1996 28.625C84.4496 29.6917 83.1329 30.225 81.2496 30.225Z" transform="translate(121 8)" fill="url(#paint1_linear)"/>
<path d="M2.0136 10.596H8.0616V21H6.1356V12.054H3.9396V21H2.0136V10.596ZM13.9536 21.144C12.8496 21.144 12.0636 20.82 11.5956 20.172C11.1396 19.512 10.9116 18.558 10.9116 17.31V14.286C10.9116 13.038 11.1396 12.09 11.5956 11.442C12.0636 10.782 12.8496 10.452 13.9536 10.452C15.0456 10.452 15.8196 10.782 16.2757 11.442C16.7437 12.09 16.9777 13.038 16.9777 14.286V17.31C16.9777 18.558 16.7437 19.512 16.2757 20.172C15.8196 20.82 15.0456 21.144 13.9536 21.144ZM13.9536 19.722C14.3016 19.722 14.5536 19.62 14.7096 19.416C14.8656 19.212 14.9616 18.96 14.9976 18.66C15.0336 18.36 15.0516 17.952 15.0516 17.436V14.178C15.0516 13.662 15.0336 13.254 14.9976 12.954C14.9616 12.642 14.8656 12.384 14.7096 12.18C14.5536 11.976 14.3016 11.874 13.9536 11.874C13.6056 11.874 13.3476 11.976 13.1796 12.18C13.0236 12.384 12.9276 12.642 12.8916 12.954C12.8556 13.254 12.8376 13.662 12.8376 14.178V17.436C12.8376 17.952 12.8556 18.36 12.8916 18.66C12.9276 18.96 13.0236 19.212 13.1796 19.416C13.3476 19.62 13.6056 19.722 13.9536 19.722ZM21.3481 15.528L19.0621 10.596H20.8981L22.4281 13.89L23.7781 10.596H25.6681L23.2921 15.762L25.7041 21H23.8681L22.2301 17.472L20.8261 21H19.0081L21.3481 15.528ZM30.7562 21.144C29.6522 21.144 28.8662 20.82 28.3982 20.172C27.9422 19.512 27.7142 18.558 27.7142 17.31V14.286C27.7142 13.038 27.9422 12.09 28.3982 11.442C28.8662 10.782 29.6522 10.452 30.7562 10.452C31.8482 10.452 32.6222 10.782 33.0782 11.442C33.5462 12.09 33.7802 13.038 33.7802 14.286V17.31C33.7802 18.558 33.5462 19.512 33.0782 20.172C32.6222 20.82 31.8482 21.144 30.7562 21.144ZM30.7562 19.722C31.1042 19.722 31.3562 19.62 31.5122 19.416C31.6682 19.212 31.7642 18.96 31.8002 18.66C31.8362 18.36 31.8542 17.952 31.8542 17.436V14.178C31.8542 13.662 31.8362 13.254 31.8002 12.954C31.7642 12.642 31.6682 12.384 31.5122 12.18C31.3562 11.976 31.1042 11.874 30.7562 11.874C30.4082 11.874 30.1502 11.976 29.9822 12.18C29.8262 12.384 29.7302 12.642 29.6942 12.954C29.6582 13.254 29.6402 13.662 29.6402 14.178V17.436C29.6402 17.952 29.6582 18.36 29.6942 18.66C29.7302 18.96 29.8262 19.212 29.9822 19.416C30.1502 19.62 30.4082 19.722 30.7562 19.722ZM36.6207 10.596H38.5467V11.424C39.1107 10.776 39.7707 10.452 40.5267 10.452C41.4747 10.452 42.1047 10.86 42.4167 11.676C42.7407 12.48 42.9027 13.374 42.9027 14.358V16.878C42.9027 18.15 42.7047 19.182 42.3087 19.974C41.9247 20.754 41.2587 21.144 40.3107 21.144C39.6987 21.144 39.1107 20.838 38.5467 20.226V24.42H36.6207V10.596ZM39.9327 19.632C40.3767 19.632 40.6587 19.41 40.7787 18.966C40.9107 18.51 40.9767 17.814 40.9767 16.878V14.358C40.9767 13.59 40.9047 13.002 40.7607 12.594C40.6167 12.174 40.3167 11.964 39.8607 11.964C39.4167 11.964 38.9787 12.144 38.5467 12.504V19.164C38.9667 19.476 39.4287 19.632 39.9327 19.632ZM48.5959 21.144C47.4919 21.144 46.7059 20.82 46.2379 20.172C45.7819 19.512 45.5539 18.558 45.5539 17.31V14.286C45.5539 13.038 45.7819 12.09 46.2379 11.442C46.7059 10.782 47.4919 10.452 48.5959 10.452C49.6879 10.452 50.4619 10.782 50.9179 11.442C51.3859 12.09 51.6199 13.038 51.6199 14.286V17.31C51.6199 18.558 51.3859 19.512 50.9179 20.172C50.4619 20.82 49.6879 21.144 48.5959 21.144ZM48.5959 19.722C48.9439 19.722 49.1959 19.62 49.3519 19.416C49.5079 19.212 49.6039 18.96 49.6399 18.66C49.6759 18.36 49.6939 17.952 49.6939 17.436V14.178C49.6939 13.662 49.6759 13.254 49.6399 12.954C49.6039 12.642 49.5079 12.384 49.3519 12.18C49.1959 11.976 48.9439 11.874 48.5959 11.874C48.2479 11.874 47.9899 11.976 47.8219 12.18C47.6659 12.384 47.5699 12.642 47.5339 12.954C47.4979 13.254 47.4799 13.662 47.4799 14.178V17.436C47.4799 17.952 47.4979 18.36 47.5339 18.66C47.5699 18.96 47.6659 19.212 47.8219 19.416C47.9899 19.62 48.2479 19.722 48.5959 19.722ZM54.4604 10.596H56.3864V14.97H58.8524V10.596H60.7784V21H58.8524V16.374H56.3864V21H54.4604V10.596ZM63.8021 10.596H65.7281V14.97H68.1941V10.596H70.1201V21H68.1941V16.374H65.7281V21H63.8021V10.596ZM76.0058 21.144C74.9018 21.144 74.1158 20.82 73.6478 20.172C73.1918 19.512 72.9638 18.558 72.9638 17.31V14.286C72.9638 13.038 73.1918 12.09 73.6478 11.442C74.1158 10.782 74.9018 10.452 76.0058 10.452C77.0978 10.452 77.8718 10.782 78.3278 11.442C78.7958 12.09 79.0298 13.038 79.0298 14.286V17.31C79.0298 18.558 78.7958 19.512 78.3278 20.172C77.8718 20.82 77.0978 21.144 76.0058 21.144ZM76.0058 19.722C76.3538 19.722 76.6058 19.62 76.7618 19.416C76.9178 19.212 77.0138 18.96 77.0498 18.66C77.0858 18.36 77.1038 17.952 77.1038 17.436V14.178C77.1038 13.662 77.0858 13.254 77.0498 12.954C77.0138 12.642 76.9178 12.384 76.7618 12.18C76.6058 11.976 76.3538 11.874 76.0058 11.874C75.6578 11.874 75.3998 11.976 75.2318 12.18C75.0758 12.384 74.9798 12.642 74.9438 12.954C74.9078 13.254 74.8898 13.662 74.8898 14.178V17.436C74.8898 17.952 74.9078 18.36 74.9438 18.66C74.9798 18.96 75.0758 19.212 75.2318 19.416C75.3998 19.62 75.6578 19.722 76.0058 19.722ZM84.7503 21.144C83.9463 21.144 83.3223 20.994 82.8783 20.694C82.4343 20.382 82.1223 19.926 81.9423 19.326C81.7623 18.726 81.6723 17.946 81.6723 16.986V14.61C81.6723 13.17 81.8943 12.12 82.3383 11.46C82.7943 10.788 83.5983 10.452 84.7503 10.452C85.5903 10.452 86.2203 10.626 86.6403 10.974C87.0723 11.322 87.3543 11.814 87.4863 12.45C87.6303 13.074 87.7023 13.92 87.7023 14.988V15.834H83.5983V17.922C83.5983 18.558 83.6883 19.02 83.8683 19.308C84.0603 19.584 84.3603 19.722 84.7683 19.722C85.1763 19.722 85.4523 19.584 85.5963 19.308C85.7403 19.02 85.8123 18.588 85.8123 18.012V17.382H87.6843V17.778C87.6843 18.87 87.4503 19.704 86.9823 20.28C86.5143 20.856 85.7703 21.144 84.7503 21.144ZM85.8123 14.79V13.854C85.8123 13.146 85.7403 12.642 85.5963 12.342C85.4643 12.03 85.1763 11.874 84.7323 11.874C84.4203 11.874 84.1803 11.946 84.0123 12.09C83.8563 12.234 83.7483 12.474 83.6883 12.81C83.6283 13.134 83.5983 13.608 83.5983 14.232V14.79H85.8123ZM98.5818 21.144C97.6698 21.144 96.9558 20.838 96.4398 20.226C95.9358 19.602 95.6838 18.708 95.6838 17.544V11.424C95.6838 10.512 95.7498 9.774 95.8818 9.21C96.0258 8.634 96.2418 8.178 96.5298 7.842C96.8298 7.506 97.2258 7.236 97.7178 7.032C98.0778 6.888 98.6358 6.72 99.3918 6.528C99.8238 6.42 100.178 6.324 100.454 6.24C100.742 6.144 101.036 6.006 101.336 5.826L101.732 7.428C101.468 7.584 101.186 7.71 100.886 7.806C100.586 7.902 100.226 7.998 99.8058 8.094C99.7458 8.106 99.5478 8.154 99.2118 8.238C98.8758 8.322 98.5758 8.424 98.3118 8.544C97.9518 8.724 97.6758 8.988 97.4838 9.336C97.3038 9.684 97.2138 10.146 97.2138 10.722V12.396C97.4658 12.156 97.8078 11.94 98.2398 11.748C98.6838 11.556 99.0978 11.46 99.4818 11.46C100.19 11.46 100.76 11.754 101.192 12.342C101.636 12.93 101.858 13.878 101.858 15.186V17.166C101.858 18.21 101.72 19.026 101.444 19.614C101.18 20.19 100.808 20.592 100.328 20.82C99.8598 21.036 99.2778 21.144 98.5818 21.144ZM98.7978 19.722C99.1938 19.722 99.4758 19.572 99.6438 19.272C99.8238 18.972 99.9138 18.468 99.9138 17.76V14.61C99.9138 13.95 99.8418 13.482 99.6978 13.206C99.5658 12.918 99.3318 12.774 98.9958 12.774C98.5998 12.774 98.1378 12.954 97.6098 13.314V17.598C97.6098 18.366 97.6998 18.912 97.8798 19.236C98.0598 19.56 98.3658 19.722 98.7978 19.722ZM110.524 21.144C109.528 21.144 108.826 20.82 108.418 20.172C108.022 19.524 107.824 18.57 107.824 17.31V16.428H106.384V21H104.692V10.596H106.384V15.15H107.824V14.286C107.824 13.026 108.022 12.072 108.418 11.424C108.826 10.776 109.528 10.452 110.524 10.452C111.52 10.452 112.216 10.776 112.612 11.424C113.02 12.072 113.224 13.026 113.224 14.286V17.31C113.224 18.57 113.02 19.524 112.612 20.172C112.216 20.82 111.52 21.144 110.524 21.144ZM110.524 19.722C110.836 19.722 111.064 19.62 111.208 19.416C111.352 19.212 111.442 18.96 111.478 18.66C111.514 18.36 111.532 17.952 111.532 17.436V14.178C111.532 13.662 111.514 13.254 111.478 12.954C111.442 12.642 111.352 12.384 111.208 12.18C111.064 11.976 110.836 11.874 110.524 11.874C110.212 11.874 109.984 11.976 109.84 12.18C109.696 12.384 109.606 12.642 109.57 12.954C109.534 13.254 109.516 13.662 109.516 14.178V17.436C109.516 17.952 109.534 18.36 109.57 18.66C109.606 18.96 109.696 19.212 109.84 19.416C109.984 19.62 110.212 19.722 110.524 19.722ZM116.091 10.596H118.017V11.424C118.581 10.776 119.241 10.452 119.997 10.452C120.945 10.452 121.575 10.86 121.887 11.676C122.211 12.48 122.373 13.374 122.373 14.358V16.878C122.373 18.15 122.175 19.182 121.779 19.974C121.395 20.754 120.729 21.144 119.781 21.144C119.169 21.144 118.581 20.838 118.017 20.226V24.42H116.091V10.596ZM119.403 19.632C119.847 19.632 120.129 19.41 120.249 18.966C120.381 18.51 120.447 17.814 120.447 16.878V14.358C120.447 13.59 120.375 13.002 120.231 12.594C120.087 12.174 119.787 11.964 119.331 11.964C118.887 11.964 118.449 12.144 118.017 12.504V19.164C118.437 19.476 118.899 19.632 119.403 19.632ZM128.066 21.144C126.962 21.144 126.176 20.82 125.708 20.172C125.252 19.512 125.024 18.558 125.024 17.31V14.286C125.024 13.038 125.252 12.09 125.708 11.442C126.176 10.782 126.962 10.452 128.066 10.452C129.158 10.452 129.932 10.782 130.388 11.442C130.856 12.09 131.09 13.038 131.09 14.286V17.31C131.09 18.558 130.856 19.512 130.388 20.172C129.932 20.82 129.158 21.144 128.066 21.144ZM128.066 19.722C128.414 19.722 128.666 19.62 128.822 19.416C128.978 19.212 129.074 18.96 129.11 18.66C129.146 18.36 129.164 17.952 129.164 17.436V14.178C129.164 13.662 129.146 13.254 129.11 12.954C129.074 12.642 128.978 12.384 128.822 12.18C128.666 11.976 128.414 11.874 128.066 11.874C127.718 11.874 127.46 11.976 127.292 12.18C127.136 12.384 127.04 12.642 127.004 12.954C126.968 13.254 126.95 13.662 126.95 14.178V17.436C126.95 17.952 126.968 18.36 127.004 18.66C127.04 18.96 127.136 19.212 127.292 19.416C127.46 19.62 127.718 19.722 128.066 19.722Z" transform="translate(99 47)" fill="#9C9C9C"/>
<rect width="134" height="1" transform="translate(99 48)" fill="#71A3E8"/>
<defs>
<linearGradient id="paint0_linear" x2="1" gradientUnits="userSpaceOnUse" gradientTransform="translate(82) scale(82 81) rotate(90)">
<stop stop-color="#E7E7E7"/>
<stop offset="1" stop-color="white" stop-opacity="0"/>
</linearGradient>
<linearGradient id="paint1_linear" x2="1" gradientUnits="userSpaceOnUse" gradientTransform="translate(89) scale(89 38) rotate(90)">
<stop stop-color="white"/>
<stop offset="1" stop-color="white" stop-opacity="0"/>
</linearGradient>
</defs>
</svg>
