<svg viewBox="0 0 405 321" fill="none" xmlns="http://www.w3.org/2000/svg">
<g style="mix-blend-mode:screen">
<path d="M0 108.199C0 94.2835 0 80.4291 0 66.5134C0.455226 66.8812 1.16334 67.1264 1.31508 67.6169C2.3267 71.1724 4.9569 72.1533 7.48593 69.6399C7.23303 68.5364 6.92956 67.433 6.67665 66.3295C6.87898 66.0843 7.08129 65.8391 7.23303 65.5939C8.44696 66.5747 9.66092 67.6169 10.8243 68.5977C11.0772 68.5364 11.3301 68.5364 11.583 68.4751C11.4312 67.3717 11.3807 66.2069 11.0772 65.1648C10.8243 64.1839 10.2173 63.2644 10.1161 62.2222C9.76207 59.0958 7.53653 56.2146 5.0075 56.1533C3.33834 56.1533 1.66916 56.5211 0 56.705C0 51.9847 0 47.3257 0 42.6054C4.55226 41.6858 9.10451 39.9694 13.0498 44.751C13.2521 44.9962 14.7696 44.4445 14.8707 43.954C15.68 40.705 16.9445 37.9464 18.7654 35.249C20.4852 32.6743 22.2049 30.7126 24.8351 30.5287C26.7572 30.4061 28.6792 31.0805 30.6013 31.0805C33.3832 31.0192 36.4687 31.387 38.8965 30.0996C41.2738 28.8736 43.4488 28.8123 45.5732 29.4866C47.2423 29.977 48.3551 29.7931 49.7714 28.6896C53.312 25.8084 56.1951 26.6667 58.1678 30.59C62.5177 30.1609 66.7159 29.7931 70.9141 29.4253C70.9141 29.2414 70.9646 29.0575 70.9646 28.8736C68.992 28.5058 67.07 28.0766 65.1985 27.7088C66.463 21.8238 70.2059 21.9464 73.5949 22.0077C76.5791 22.069 80.1197 21.1494 81.9912 25.4406C79.6139 27.0958 77.3884 28.6897 74.8088 30.5287C76.3262 31.8774 77.2872 32.4904 78.0459 33.41C80.6761 36.7816 82.6488 41.318 87.454 40.2146C87.5551 40.2146 87.6563 40.5211 87.808 40.7663C87.5551 43.8314 85.6331 42.9119 83.9133 42.728C84.1156 45.9157 84.3179 48.8582 84.4697 51.433C86.24 50.1456 87.808 48.4291 89.5783 48C91.8039 47.4483 92.0568 46.3448 91.4498 44.2605C91.0958 42.9732 90.6405 41.7471 89.983 39.6628C91.5004 40.2146 92.4614 40.3372 93.119 40.8276C94.687 42.0536 96.2044 43.4636 97.6712 44.9349C98.6323 45.9157 99.6945 47.0192 100.301 48.3678C102.274 52.5364 102.223 52.5977 105.612 50.3908C105.815 50.2682 105.966 50.023 106.118 49.9004C105.966 49.1648 105.865 48.4904 105.663 47.3257C108.496 48.3065 111.581 46.0996 113.503 50.3295C114.312 52.1073 115.425 51.0651 115.729 49.4713C116.184 46.8966 116.386 44.1992 118.814 43.0345C119.067 42.9119 119.219 42.3602 119.32 41.9923C119.876 38.8046 121.292 39.6015 122.81 40.8276C123.821 41.5632 124.884 42.2376 125.946 42.9119C126.148 42.728 126.35 42.5441 126.553 42.3602C126.249 40.9502 125.895 39.5402 125.693 38.069C125.339 35.5556 124.327 32.5517 125.035 30.5287C126.047 27.6475 127.008 24.3372 130.245 22.9272C133.836 21.3333 137.225 20.046 141.12 20.5364C143.396 20.8429 144.762 23.0498 146.532 23.7241C149.618 24.8276 151.236 27.4023 153.057 30.0383C152.602 30.8353 152.197 31.4483 151.843 32.1226C151.034 32.5517 150.174 32.9808 149.011 33.5939C148.909 33.41 148.808 32.9808 148.606 32.6743C145.672 28.751 140.817 29.8544 139.4 34.6973C138.591 37.5172 136.062 38.8046 133.634 37.8851C132.471 37.4559 131.206 37.5786 129.942 37.5173C129.942 37.8238 129.942 38.1303 129.942 38.4368C131.004 39.5402 132.066 40.6437 133.128 41.7471C132.926 41.9923 132.774 42.2375 132.572 42.4828C132.066 41.9923 131.611 41.5632 131.105 41.0728C129.689 43.8927 130.7 46.1609 133.28 46.8966C134.747 47.3257 136.062 48.5517 137.529 48.9808C139.501 49.5939 141.525 50.1456 143.497 50.0843C144.458 50.0843 145.925 48.6743 146.178 47.6322C147.341 42.0537 148.909 36.7203 151.793 32.1226C154.322 30.0996 156.749 27.8314 159.43 26.1149C163.73 23.295 167.928 19.249 173.34 22.5594C172.682 25.8084 171.216 26.9732 166.967 27.0958C168.08 27.8314 168.737 28.3831 169.445 28.751C173.997 31.1418 177.488 34.8199 179.561 40.4598C179.764 40.9502 180.371 41.2567 180.826 41.6245C181.635 39.4789 182.798 41.6858 183.76 41.2567C182.849 42.2988 181.888 43.2797 181.079 44.4444C180.876 44.751 181.079 45.4253 181.079 45.977C181.433 45.9157 181.837 45.9157 182.141 45.7318C184.872 43.8927 187.604 42.1149 190.284 40.1533C190.993 39.6015 191.397 38.4981 192.308 37.0881C188.868 38.8046 186.289 40.092 183.658 41.3793C183.81 41.0115 183.962 40.4598 184.164 40.3372C186.137 39.4789 187.958 38.1916 188.312 35.6169C188.565 33.9004 188.059 32 187.907 29.9157C189.93 29.364 192.308 28.6284 194.988 27.8927C193.774 26.7893 191.397 26.4215 193.623 24.2146C192.308 22.3142 192.358 22.3142 192.813 19.5556C193.016 18.0843 193.522 15.6322 193.066 15.3257C189.981 12.9962 192.105 9.68582 191.65 6.9272C191.498 6.13026 192.105 5.14943 192.308 4.4138C191.448 4.10729 189.779 4.10728 189.425 3.31034C188.969 2.3295 189.627 0.613027 189.677 0C234.087 2.3295 277.991 1.65518 322.249 1.59387C321.794 2.39081 321.187 3.43296 320.934 3.80077C320.732 7.41763 320.985 10.7893 320.277 13.8544C319.518 17.1648 319.822 18.4521 322.603 18.3295C328.319 18.0843 334.035 17.9004 339.75 17.6552C340.458 17.5939 341.167 17.2261 341.875 16.8582C345.719 14.8966 349.613 14.59 353.711 16C357.099 17.1648 360.691 18.3908 363.27 13.6092C363.827 12.5671 365.192 11.8314 366.254 11.5249C368.328 10.9732 370.453 10.8506 372.628 10.5441C372.476 10.1763 372.274 9.74712 372.021 9.07279C375.663 10.0536 379.051 10.9732 382.44 11.954C383.047 12.1379 383.857 13.1801 384.16 12.9962C386.487 11.341 387.195 13.977 388.207 15.0192C389.724 14.8352 390.988 14.6513 392.304 14.5287C396.401 14.2835 400.548 14.0996 404.645 13.8544C404.645 22.0077 404.645 30.2222 404.645 38.3755C401.813 38.682 398.98 38.9272 395.591 39.295C397.412 35.5556 398.525 32.1839 396.957 28.4444C395.49 24.9502 393.265 22.682 389.724 21.0268C389.724 24.2146 389.775 26.728 389.724 29.2414C389.673 31.6322 389.977 34.2682 386.74 35.1264C386.436 32.2452 385.576 29.2414 385.981 26.5441C386.537 22.9272 385.576 19.9847 384.211 17.2874C383.452 15.7548 381.682 14.2222 380.265 14.0996C376.371 13.7318 372.375 14.0996 368.48 14.2835C365.648 14.4061 361.955 20.2299 362.714 23.3563C363.22 25.3793 363.978 27.2797 364.636 29.2414C367.216 28.1379 369.643 27.2797 372.274 29.1188C373.184 29.7318 374.954 29.7931 375.814 29.1801C378.09 27.4636 380.114 28.9962 382.086 29.6705C382.997 29.977 383.654 31.8161 384.16 33.1035C384.261 33.3487 382.896 34.5134 382.086 35.0038C381.226 35.4943 380.265 35.7395 379.304 36.1073C379.658 36.659 379.962 37.1494 380.316 37.7012C380.164 37.8851 380.012 38.069 379.861 38.2529C377.888 36.1686 375.915 34.1456 374.246 32.3678C372.83 33.5939 371.262 34.3908 370.503 35.8008C368.986 38.5594 367.671 38.6207 365.799 35.8008C365.546 38.9885 365.344 41.6245 365.091 44.3831C368.48 43.7701 370.048 40.9502 370.857 37.1494C371.161 37.3333 371.515 37.5786 371.818 37.7625C371.363 39.2337 370.908 40.6437 370.554 41.8084C372.779 41.9923 375.005 42.1762 377.281 42.2989C377.18 45.2414 377.18 45.2414 379.153 44.8123C378.192 42.8506 377.231 40.8889 375.966 38.4368C379.456 41.7471 382.44 44.6284 385.779 47.8161C387.397 46.5287 388.257 44.0766 388.712 41.3793C388.763 41.1954 388.611 40.8889 388.459 40.6437C386.689 38.069 387.498 35.4942 390.331 34.8199C390.381 35.1264 390.483 35.433 390.483 35.6782C390.129 39.2337 390.331 39.4176 393.113 38.5594C393.619 38.4368 394.175 38.6207 395.389 38.682C394.124 39.9694 393.416 40.6437 392.708 41.3793C393.77 43.7088 394.782 45.8544 395.541 47.5096C396.704 47.4483 397.615 47.5096 398.474 47.2644C399.486 47.0192 400.396 46.3448 401.357 46.0996C402.42 45.7931 403.583 45.7931 404.696 45.6705C404.696 116.353 404.696 187.035 404.696 257.717C269.797 257.717 134.949 257.717 0.0505683 257.717C0.0505683 210.084 0.0505683 162.513 0.0505683 114.943C1.61857 114.146 3.13599 113.349 2.5796 110.467C1.66915 110.774 0.859859 111.019 0.0505683 111.264C0.0505683 110.651 0.0505683 110.038 0.0505683 109.425C0.708117 109.303 1.36568 109.241 2.02323 108.996C2.57961 108.751 3.13601 108.383 3.64181 107.893C3.69239 107.831 3.3889 106.789 3.18657 106.728C2.57961 106.544 1.8209 106.483 1.26452 106.728C0.708129 106.912 0.404645 107.648 0 108.199ZM165.753 66.0843C163.881 66.2069 161.959 66.3295 159.582 66.4521C160.897 68.5364 162.111 68.9655 163.578 67.9234C164.337 67.3716 165.045 66.6973 165.753 66.0843C165.247 67.4329 164.741 68.7816 164.185 70.1303C164.438 70.3755 164.64 70.6207 164.893 70.8659C165.905 69.9464 166.967 68.9655 168.332 67.7395C167.017 66.9425 166.41 66.5134 165.753 66.0843ZM266.762 114.146C266.105 115.004 265.447 115.923 264.689 116.966C265.346 117.456 265.852 117.885 266.408 118.253C266.105 118.866 265.852 119.356 265.447 120.031C268.937 119.172 269.14 117.701 266.712 114.146C266.914 112.858 267.622 110.713 267.268 110.406C266.206 109.425 264.689 109.18 263.019 108.567C263.576 111.755 263.475 114.82 266.762 114.146ZM55.7905 82.5134C54.9306 84.1686 54.0201 85.8238 52.7556 88.2146C54.0707 89.5632 55.4364 91.0345 56.8021 92.5058C56.9032 92.3832 57.0044 92.2605 57.1056 92.1379C56.7009 91.2184 56.2963 90.2989 55.5376 88.705C56.9538 89.9311 57.8137 90.6667 58.6736 91.4023C58.8253 91.2797 58.977 91.1571 59.0782 91.0345C58.016 88.1533 56.9032 85.3333 55.7905 82.5134C57.5608 85.3946 59.3311 88.2759 61.3543 91.7088C62.3154 87.7241 59.4828 86.4368 58.6736 84.1073C58.3701 83.3104 57.1056 83.0038 56.2457 82.5134C56.1445 82.3908 55.9422 82.5134 55.7905 82.5134ZM280.065 203.525C279.458 202.912 278.902 201.808 278.244 201.808C275.108 201.563 271.922 201.257 268.786 201.563C266.611 201.747 263.879 206.774 264.082 209.165C264.334 212.536 265.548 215.234 267.268 217.87C268.128 219.28 270.455 219.648 269.898 222.529C269.848 222.713 272.377 223.694 273.742 224.307C273.945 223.08 274.349 221.793 274.248 220.567C273.995 218.238 273.439 215.908 273.034 213.579C274.147 215.969 274.906 218.421 275.816 220.812C276.069 221.425 276.777 222.161 277.182 222.1C277.688 222.038 278.396 221.241 278.497 220.628C278.699 219.402 278.649 218.054 278.548 216.766C278.244 212.23 277.688 207.632 280.065 203.525C280.52 204.69 280.874 205.977 281.431 207.08C282.24 208.674 283.1 210.391 284.213 211.678C284.668 212.23 285.882 212.046 286.691 211.801C286.893 211.739 286.944 210.207 286.843 209.41C286.742 208.49 286.337 207.693 286.236 206.774C285.781 203.034 282.948 201.502 280.065 203.525ZM319.821 64.8582C318.911 64.3065 318.051 63.3257 317.09 63.2644C310.515 62.9579 303.99 62.7126 297.414 62.7739C294.632 62.8353 291.901 64 289.119 64.1226C282.796 64.3678 276.474 64.3678 270.202 64.3678C258.518 64.3065 246.834 64.1839 235.099 64.1226C230.951 64.1226 226.854 64.3065 222.707 64.1839C221.796 64.1839 220.886 63.5096 220.026 63.0805C219.267 62.7126 218.559 61.7931 217.901 61.8544C215.018 62.1609 212.186 63.0192 209.353 63.1418C204.902 63.3257 200.451 62.9579 195.949 62.8966C193.117 62.8353 192.358 63.8161 192.308 67.1264C192.308 68.1073 192.156 69.2107 191.751 70.0077C190.841 72.0307 189.728 73.931 188.767 75.7088C187.958 71.7241 184.366 74.2989 182.141 72.7663C182.798 73.4406 183.456 74.1149 184.215 74.9732C183.709 75.8314 183.254 76.5671 182.849 77.3027C181.534 79.8161 181.635 84.1686 183.355 85.7625C185.226 87.5402 186.44 89.2567 184.721 91.6475C185.58 91.8927 186.541 91.8314 186.997 92.3832C188.413 94.1609 189.981 94.774 192.004 94.2222C192.813 94.0383 193.673 94.0996 194.533 94.2222C195.949 94.4061 197.366 94.7127 198.731 94.9579C198.529 92.751 200.856 93.5479 201.21 92.0153C201.311 91.7088 201.362 91.341 201.26 91.7701C197.922 91.4023 194.736 91.0958 191.549 90.6054C191.043 90.5441 190.284 89.6245 190.284 89.0728C190.234 88.5211 190.841 87.6016 191.347 87.295C192.156 86.8659 193.066 86.6207 193.977 86.6207C196.101 86.682 198.175 86.9272 200.249 87.0498C203.132 87.1724 204.649 85.272 205.054 81.7778C205.155 81.0422 206.015 79.8774 206.521 79.8161C210.365 79.5709 214.26 79.4483 218.104 79.4483C225.843 79.5096 233.581 79.8161 241.32 79.8774C264.132 79.9387 286.944 79.9387 309.756 79.9387C314.359 79.9387 318.962 79.9387 323.666 79.9387C323.564 77.7931 323.261 76.9962 321.592 76.9962C308.542 77.1188 295.492 77.1188 282.442 77.1188C266.965 77.1188 251.487 76.9962 236.009 76.9962C226.5 76.9962 216.991 76.9962 207.482 77.0575C205.863 77.0575 205.054 76.6897 205.762 74.5441C244.557 74.5441 283.353 74.5441 322.098 74.5441C322.098 74.2376 322.148 73.931 322.148 73.6245C320.934 73.5019 319.72 73.2567 318.506 73.2567C280.976 73.1954 243.394 73.1954 205.863 73.0728C203.233 73.0728 200.603 71.7854 197.973 71.1111C198.023 70.8659 198.023 70.682 198.074 70.4368C239.095 70.4368 280.166 70.4368 321.491 70.4368C321.086 68.5364 320.783 67.0038 320.428 65.4713C325.739 71.8467 325.031 79.8161 323.868 87.4789C323.463 90.0537 323.564 91.7701 324.424 93.8544C325.891 92.8123 327.206 91.8314 328.016 91.2184C328.774 92.751 329.381 94.0383 330.393 96.0613C331.455 92.9349 332.264 90.6667 333.124 88.092C333.832 87.9081 335.046 87.5402 336.21 87.2337C336.108 85.5785 336.26 83.8008 335.906 82.2069C335.299 79.4483 335.35 77.364 338.132 76.5671C335.046 73.931 332.113 71.4789 328.825 68.7203C330.292 67.4943 331.152 66.7586 332.011 66.023C328.471 69.5173 326.7 66.0843 324.627 63.387C324.07 62.6513 323.312 62.0996 322.553 61.7318C321.744 61.364 320.884 61.3027 320.024 61.0575C319.923 62.4674 319.872 63.6322 319.821 64.8582ZM108.394 69.5786C105.562 68.5364 102.628 67.7395 99.8968 66.3295C98.2276 65.4713 96.9125 65.4713 95.7492 66.8199C92.7649 70.1303 89.0725 69.6399 85.5319 69.9464C84.9755 70.0077 84.0145 68.9042 83.8121 68.1073C83.5592 67.1878 83.6604 65.5939 84.1662 65.0422C86.9987 61.7931 90.2359 59.341 94.3329 59.5249C93.4225 56.2146 92.4614 52.9042 91.5004 49.41C86.7458 53.3946 82.2441 57.318 82.2947 64.7969C82.2947 67.8008 82.3959 71.295 84.672 73.6858C85.279 77.6705 82.75 80.0613 80.7773 82.636C83.4075 81.4713 86.0377 80.3065 88.6173 79.0805C88.7185 79.387 88.8196 79.6322 88.9208 79.9387C83.9639 82.5747 79.007 85.2108 73.9995 87.9081C73.9489 88.1533 73.8478 88.4598 73.7972 88.705C75.0617 89.1954 76.4274 90.2989 77.5907 90.115C80.3727 89.6245 83.3569 88.9502 85.8354 87.4176C87.454 86.3755 90.9946 86.8046 90.1347 82.3908L90.0841 82.5134C90.7923 82.636 91.6016 82.636 92.2591 83.0039C97.3678 85.5786 102.476 88.2146 107.585 90.7893C110.418 92.1992 112.188 94.1609 112.441 98.3908C112.694 102.375 113.958 106.238 114.768 110.161C119.522 110.161 123.973 110.161 129.284 110.161C127.868 111.939 126.907 113.103 125.592 114.697C129.689 115.372 132.319 117.885 132.825 122.667C135.556 121.992 137.883 121.379 140.159 120.766C139.046 115.923 138.085 111.755 137.124 107.648C135.556 108.383 133.887 109.916 132.673 109.548C131.661 109.241 131.105 106.667 130.397 105.134C133.078 101.701 132.774 96.4291 129.689 94.1609C130.093 93.977 130.397 93.6705 130.65 93.7318C132.875 93.9157 133.634 92.751 133.735 89.9923C133.836 86.8659 134.595 83.7395 135.101 80.6743C135.253 80.6743 135.404 80.7356 135.556 80.7356C135.556 83.9234 135.556 87.1724 135.556 90.3602C136.264 90.4828 136.871 90.6054 137.023 90.6054C137.023 95.3257 137.023 99.6782 137.023 103.847C137.984 101.64 138.692 99.1877 140.058 97.3487C141.12 95.8161 141.069 94.8353 140.462 93.3027C140.108 92.5058 139.906 91.6475 139.704 90.7893C139.147 87.9693 138.591 85.0881 138.136 82.2682C137.984 81.3487 138.136 80.3678 138.136 79.4483C138.844 80.1226 139.957 80.613 140.159 81.41C141.272 86.069 142.233 90.8506 143.194 95.5096C143.548 95.2031 144.104 94.4675 144.711 94.2222C147.493 93.1188 147.645 90.9732 146.482 88.2759C143.851 82.2682 141.069 76.3219 138.439 70.2529C137.579 68.2299 136.315 67.4943 134.545 67.7395C129.942 68.3525 125.541 67.433 121.444 64.7969C120.888 64.4291 119.876 64.8582 119.219 65.2261C117.398 66.2069 115.779 67.6169 113.554 66.2069C112.845 65.7778 111.379 66.636 110.468 67.2491C109.608 67.8008 109.001 68.9042 108.293 69.7624L108.394 69.5786ZM80.8279 49.5326C80.2715 46.7739 79.9174 44.3832 79.3105 42.115C78.7035 39.7854 77.8942 39.4176 76.1744 41.3793C72.3303 45.7931 67.8287 47.6322 62.5683 45.2414C61.1014 44.567 59.4828 44.3218 57.9654 44.0766C55.9928 43.7701 55.3858 45.2414 55.1835 47.3257C54.9812 49.41 55.1329 51.1877 57.2067 51.433C57.4596 54.069 56.9538 55.7854 54.7788 55.2337C54.273 58.2989 53.8178 61.0575 53.312 64.0613C51.1876 62.59 50.8336 60.9962 52.5027 58.6667C50.2266 58.5441 47.5458 59.8314 47.3941 55.6015C48.4057 55.3563 49.3161 55.1111 50.3783 54.8659C50.2266 52.9655 49.9737 51.249 50.0748 49.5326C50.2266 46.8965 49.2655 46.4061 47.3435 46.8353C45.2697 47.3257 43.1959 47.6935 41.1221 48C39.1494 48.3065 37.5814 49.1034 36.7215 51.433C35.8617 53.8851 34.9007 56.2759 33.8385 59.0345C33.1303 57.6858 32.6751 56.705 32.1693 55.7854C31.967 57.931 31.8152 60.4445 32.7257 61.7318C34.1925 63.6935 34.8501 65.41 33.8385 67.7395C38.1884 69.1494 39.807 76.6284 45.5732 73.931C45.0168 77.6705 44.5616 80.6743 44.1569 83.5556C46.2307 84.5364 46.4331 83.3104 46.4836 81.4713C46.5848 79.0805 46.9389 76.751 47.1412 74.3602C47.4952 74.4215 47.8493 74.4828 48.1528 74.5441C47.8999 76.0766 47.6975 77.5479 47.4446 79.0805C47.647 79.1418 47.8493 79.2031 48.0516 79.2644C48.8103 77.364 49.4173 75.341 50.4289 73.6245C51.2888 72.1533 50.5807 68.9655 53.4638 69.5172C53.7672 70.7433 54.0707 71.9694 54.3236 73.0728C56.448 72.2759 58.6736 71.9081 60.3933 70.5594C62.3154 69.0881 63.7822 66.7586 65.4514 64.7969C65.5525 64.9196 65.6537 65.0421 65.7548 65.1648C65.5525 66.023 65.2996 66.9425 64.9456 68.2299C67.7275 67.9847 70.1048 67.7395 72.735 67.4943C72.0774 66.2069 71.7234 65.5326 71.4199 64.9195C71.5716 64.7356 71.774 64.4904 71.9257 64.3065C72.9879 65.3487 74.1007 66.2682 75.0111 67.3716C76.6297 69.3333 77.793 68.4138 79.0576 66.8199C79.6645 66.023 80.3221 65.3487 81.2831 64.2452C81.0302 63.0805 80.6256 61.4253 80.2209 59.6475C78.4 60.9349 77.0849 62.3448 75.5675 62.8966C74.1007 63.387 72.3809 63.0192 70.6106 63.0192C70.56 62.8352 70.4083 62.5287 70.3071 62.0996C69.4472 58.2988 69.4472 58.2989 67.0194 60.9962C65.5525 62.6513 62.1636 63.4483 60.6462 62.3448C59.8875 61.7931 59.1794 60.9962 58.5724 60.1379C57.9148 59.2797 57.4091 58.2989 56.8527 57.3793C57.7125 56.6437 58.4713 55.4789 59.3817 55.295C61.1014 54.9272 62.8717 55.0498 64.6421 55.0498C69.3461 55.0498 74.0501 55.0498 79.3611 55.0498C78.9058 52.7203 78.5517 50.636 78.1977 48.6743C78.7541 49.0421 79.4622 49.1647 80.8279 49.5326ZM328.825 43.5249C330.646 44.0766 332.315 44.5058 333.63 44.8736C335.046 47.8774 336.311 50.8199 337.828 53.6399C338.334 54.6207 339.346 55.6015 340.256 55.7854C342.178 56.2146 344.404 55.5402 346.174 56.3372C348.248 57.318 351.738 56.0307 352.092 60.751C352.142 61.1188 353.458 61.8544 353.913 61.6092C356.189 60.3218 358.718 61.5479 361.146 59.4023C363.725 57.0728 365.344 51.9847 362.764 48.1839C362.967 50.3908 363.118 51.9234 363.27 53.5172C362.967 53.5785 362.714 53.6399 362.41 53.7012C362.157 52.7203 361.652 51.7395 361.652 50.6973C361.652 44.6897 361.298 38.8659 359.679 33.1035C358.516 28.9349 358.212 27.954 354.621 27.0958C351.434 26.3602 348.248 25.7471 345.112 24.8889C339.801 23.4176 336.311 25.8697 336.26 31.1418C336.26 32.1839 335.704 33.2874 335.501 34.3295C335.097 36.2299 335.552 36.7203 337.272 36.5977C339.649 36.4751 342.077 36.9042 344.404 37.5173C345.82 37.8851 346.275 39.295 345.668 41.1341C344.909 43.5862 342.836 45.6705 340.762 45.1801C338.132 44.5671 335.603 43.4023 333.023 42.4215C332.77 42.2989 332.517 41.6245 332.517 41.2567C332.669 37.9464 331.253 35.7395 329.533 33.2874C328.066 31.2031 327.459 30.8965 326.245 33.9004C325.436 32.7356 324.728 31.9387 324.323 30.9579C322.502 26.8506 320.934 26.1149 316.18 27.5249C317.242 27.8927 317.849 28.3218 318.405 28.1992C320.53 27.7088 321.086 28.8736 321.035 31.2031C321.035 34.0843 321.035 36.9655 321.339 39.7854C321.44 40.7663 322.401 41.8084 323.21 42.2989C323.514 42.4828 324.424 41.4406 325.335 40.705C325.942 40.8889 327.307 41.2567 328.774 41.6245C328.724 42.2989 328.774 42.9119 328.825 43.5249ZM269.241 35.4329C270.202 40.5824 269.19 44.8736 267.369 48.9808C267.116 49.5326 266.155 49.9617 265.548 49.9617C258.973 50.023 252.397 50.0843 245.873 49.9617C245.164 49.9617 244.052 49.1648 243.849 48.4291C243.04 45.7931 242.585 42.9732 241.927 40.2759C241.725 39.4789 241.27 38.8046 240.966 38.1303C240.562 38.8046 240.056 39.4176 239.853 40.1533C239.145 42.8506 238.589 45.6092 237.881 48.3065C237.729 48.9195 237.223 49.8391 236.869 49.8391C234.441 49.9617 232.013 50.023 229.586 49.8391C227.107 49.6552 224.578 49.0421 222.1 49.0421C221.341 49.0421 220.582 50.636 219.874 51.5556C220.582 52.046 221.29 52.9655 221.998 52.9655C224.477 52.9655 226.955 52.4138 229.434 52.4751C232.368 52.5977 235.453 50.9425 238.336 53.5172C239.095 54.1916 240.815 54.2529 241.725 53.7012C245.316 51.4943 249.11 52.4138 252.752 52.4751C258.315 52.5977 263.879 53.1494 269.443 53.5172C270.354 53.5785 271.315 53.5785 272.225 53.5172C274.602 53.272 276.98 52.659 279.357 52.5977C282.746 52.5364 286.135 53.0268 289.524 53.0268C290.333 53.0268 291.092 52.046 291.901 51.4943C290.99 50.636 290.181 49.41 289.17 48.9195C288.209 48.4904 286.995 48.9195 285.932 48.9808C282.594 49.2874 279.256 49.7165 275.917 49.7778C275.159 49.7778 274.046 48.9809 273.641 48.1839C271.77 44.1992 271.112 39.9081 272.073 35.249C271.011 35.433 270.202 35.4329 269.241 35.4329ZM25.9985 40.8276C26.049 41.2567 26.1502 41.7471 26.2008 42.1762C25.1386 42.4828 24.0764 43.2184 23.1154 42.9732C20.991 42.4828 20.5863 43.954 20.4852 45.8544C20.4346 46.9578 20.6369 48.0613 20.8392 49.1648C21.1933 51.1264 22.2555 51.6169 23.3177 50.1456C25.3915 47.1418 27.7688 46.8352 30.8036 48.613C31.2589 47.0805 31.6635 45.7318 32.1693 44.1379C31.4106 43.954 30.9048 44.0766 30.6519 43.7701C30.0449 43.0958 29.5897 42.2988 29.0333 41.5632C29.7414 41.5632 30.4495 41.5019 31.1577 41.5019C32.4728 41.4406 33.9396 41.7471 35.103 41.1954C37.6826 40.0307 40.1104 38.4368 42.5383 36.9042C43.0441 36.5977 43.7523 35.9234 43.7017 35.6169C43.6005 34.9425 43.0947 34.1456 42.5889 33.8391C41.8302 33.41 40.9703 33.2874 40.1611 33.3487C34.9007 33.6552 29.6403 33.9004 24.4305 34.5134C23.4694 34.636 22.7107 36.5364 21.8508 37.5785C22.6096 38.4368 23.3683 39.3563 24.2281 40.092C24.6834 40.5211 25.3915 40.5824 25.9985 40.8276ZM158.368 60.5058C158.621 60.6897 158.874 60.8736 159.127 61.0575C165.247 58.2376 171.317 55.3563 177.285 52.5977C177.083 50.8199 176.931 49.3487 176.779 47.8774C176.425 44.0766 173.492 42.1762 170.76 44.1379C167.473 46.5287 164.134 48.9195 160.897 51.3716C159.885 52.1073 158.924 53.0268 160.29 54.6207C160.543 54.9272 160.341 55.9694 160.138 56.5211C159.633 57.8697 158.975 59.1571 158.368 60.5058ZM161.352 242.881C163.477 242.023 164.741 241.287 164.286 238.1C163.78 234.851 164.185 231.356 164.235 227.985C164.286 225.41 163.578 223.816 161.201 223.51C158.267 223.142 156.041 224.245 155.384 226.82C154.17 231.602 156.193 239.387 159.582 242.759C159.734 242.023 159.936 241.287 160.138 240.245C160.695 241.349 160.998 242.023 161.352 242.881ZM130.346 51.4943C131.105 48.9195 130.397 48.2452 128.829 48.4904C128.323 48.5517 127.817 48.613 127.312 48.5517C126.047 48.4291 124.732 48.1839 123.467 48C123.417 49.6552 123.417 51.3716 123.366 53.0268C123.316 55.2337 123.67 56.8276 125.946 56.8889C126.603 56.8889 127.413 57.5632 127.817 58.1762C129.79 61.1801 131.864 63.8774 135.455 63.2644C136.365 63.0805 137.933 62.8353 138.085 62.2835C138.389 60.9349 138.389 58.7893 137.731 57.9923C136.315 56.3372 134.393 55.4176 132.724 54.069C131.864 53.4559 131.156 52.4138 130.346 51.4943ZM137.074 148.107C136.77 148.046 136.416 147.985 136.113 147.923C135.556 149.762 135 151.54 134.545 153.441C133.887 155.954 133.634 158.774 132.572 160.92C131.409 163.249 131.206 164.904 132.724 166.866C134.241 168.828 136.062 168.705 137.832 167.724C138.49 167.356 139.097 165.824 139.046 164.904C138.692 160.061 138.136 155.28 137.63 150.437C137.478 149.64 137.225 148.904 137.074 148.107ZM211.023 96.797C208.19 94.4062 204.093 93.977 203.233 88.9502C202.626 92.8736 202.879 96.4291 205.307 99.3716C206.167 100.414 206.875 101.762 207.583 102.989C208.544 104.582 209.353 104.766 210.517 103.111C212.591 100.23 214.867 97.4713 217.092 94.59C214.816 94.7739 212.439 94.9578 210.112 95.0805C210.466 95.6322 210.719 96.1839 211.023 96.797ZM128.93 158.161C126.755 153.931 124.681 149.885 122.608 145.778C122.355 145.9 122.152 146.084 121.899 146.207C122.152 147.249 122.456 148.291 122.709 149.395C123.619 153.992 124.833 158.59 125.389 163.31C125.744 166.682 127.413 167.111 129.436 167.663C130.245 164.23 128.728 160.368 131.054 157.119C130.296 157.487 129.537 157.854 128.93 158.161ZM20.1817 238.774C20.4346 238.897 20.6369 239.08 20.8898 239.203C21.2945 238.897 21.6485 238.529 22.0532 238.284C23.7729 237.425 25.8467 238.835 25.7961 240.858C25.7456 246.069 29.0839 248.705 31.2588 252.996C30.2472 248.644 29.2862 245.088 28.6286 241.533C28.3757 240 28.4769 238.222 28.7804 236.69C29.3874 233.563 28.3252 231.908 25.7961 232.95C23.9752 233.686 22.3566 235.218 20.7381 236.567C20.384 236.874 20.384 237.977 20.1817 238.774ZM247.39 107.341C248.199 109.303 248.654 111.142 249.616 112.429C250.273 113.287 251.689 113.655 252.802 113.716C254.067 113.778 255.382 113.287 256.646 112.92C257.708 112.613 258.872 112.49 259.681 111.816C260.086 111.448 259.934 109.119 259.732 109.057C257.253 108.322 254.724 107.77 252.195 107.402C250.779 107.157 249.363 107.341 247.39 107.341ZM338.941 61.1801C339.598 62.4674 339.902 63.8774 340.56 64.1226C343.038 65.1035 345.618 65.9004 348.248 66.2682C349.209 66.3908 350.878 65.2874 351.181 64.3065C351.485 63.2031 350.878 61.3027 350.119 60.3218C348.501 58.1149 342.836 57.8084 340.205 59.6475C343.392 59.4023 346.427 58.4828 348.551 61.6092C348.501 61.977 348.45 62.3448 348.4 62.7126C345.516 62.2835 342.734 61.7931 338.941 61.1801ZM122.253 228.966C121.495 228.598 120.837 228.169 120.129 227.985C118.51 227.617 117.246 228.659 117.347 230.498C117.499 234.483 117.246 238.406 116.032 242.268C117.297 241.103 118.561 239.877 119.219 238.284C120.382 235.402 121.191 232.337 122.253 228.966ZM106.978 189.241C107.13 188.996 107.282 188.69 107.433 188.444C107.231 184.276 107.13 180.169 106.877 176C106.624 172.015 106.219 167.969 105.865 163.985C105.612 163.985 105.36 164.046 105.056 164.046C105.005 164.414 104.904 164.782 104.904 165.149C105.056 172.444 105.157 179.739 105.41 187.034C105.461 187.77 106.422 188.444 106.978 189.241ZM34.1925 247.602C34.3948 247.356 34.6478 247.111 34.8501 246.866C34.8501 246.376 35.0018 245.517 34.8501 245.456C32.1693 243.985 33.0797 242.391 34.1419 239.877C34.7995 238.284 33.8385 235.648 33.6361 233.441C33.4338 233.257 33.1809 233.073 32.9786 232.889C32.2199 233.808 30.8036 234.789 30.8542 235.709C31.0059 238.897 31.5623 242.146 32.2705 245.272C32.3716 246.192 33.535 246.805 34.1925 247.602ZM25.8467 77.977C24.8351 77.1188 24.5316 76.6284 24.3293 76.6897C20.384 78.0383 16.4387 79.2031 12.5946 80.9808C11.4818 81.4713 10.8242 83.5555 10.1667 84.659C15.2753 82.4521 20.2322 80.3678 25.8467 77.977ZM174.402 67.5556C173.188 65.3487 172.177 63.5096 171.114 61.7318C170.811 61.2414 170.254 60.8736 169.85 60.5058C169.597 60.9349 169.192 61.4253 169.192 61.8544C169.142 64.3678 169.142 66.8812 169.142 69.5786C170.963 69.5172 173.492 70.4981 174.402 67.5556ZM127.059 179.31C128.93 178.697 130.599 178.146 131.914 177.717C132.117 176.061 132.268 174.59 132.471 172.69C130.498 172.935 128.627 173.119 126.603 173.364C126.806 175.632 126.957 177.471 127.059 179.31ZM129.183 154.115C130.852 152.582 132.117 151.602 133.229 150.437C133.533 150.069 133.533 149.272 133.685 148.659C133.179 148.659 132.622 148.536 132.167 148.782C131.661 149.088 131.257 149.701 130.346 150.621C130.346 148.169 130.346 146.452 130.346 144.429C129.284 144.797 128.222 145.165 127.16 145.533C127.868 148.536 128.475 151.172 129.183 154.115ZM113.098 241.962C115.526 238.897 115.273 235.525 114.919 232.276C114.818 231.418 113.958 230.682 113.402 229.885C112.947 230.805 112.137 231.724 112.188 232.582C112.289 235.157 114.161 237.609 112.491 240.368C112.441 240.552 112.744 241.042 113.098 241.962ZM369.087 53.8851C368.986 54.1303 368.885 54.3755 368.834 54.6207C369.492 55.0498 370.149 55.7241 370.807 55.7854C372.83 56.0307 374.853 56.092 376.876 56.0307C377.686 56.0307 378.697 55.7241 379.203 55.0498C379.557 54.5594 379.507 53.0268 379.102 52.4138C378.495 51.4943 377.483 50.9425 376.624 50.2069C377.382 53.0268 377.332 53.4559 375.258 53.8238C373.235 54.1916 371.161 53.8851 369.087 53.8851ZM137.276 183.908C137.175 183.356 137.074 182.743 136.972 182.192C134.039 182.682 131.105 183.111 128.171 183.724C127.868 183.785 127.514 184.766 127.463 185.318C127.463 185.686 128.121 186.36 128.424 186.299C131.409 185.625 134.342 184.766 137.276 183.908ZM62.9729 79.5709C63.681 80.9195 64.0857 82.2069 64.4398 82.2069C67.2723 82.023 70.1048 81.5939 72.9373 81.1648C72.9373 81.1648 72.9373 80.9809 73.0385 80.3065C69.9025 80.0613 66.8676 79.8161 62.9729 79.5709ZM56.8527 31.9387C55.5882 32.2452 54.5765 32.4291 53.5649 32.6743C50.1254 33.4713 49.8219 34.4521 51.9969 38.6207C53.5649 36.4138 55.1329 34.2682 56.8527 31.9387ZM272.579 113.655C272.579 115.31 272.579 116.169 272.579 117.027C272.579 117.946 272.377 119.602 272.63 119.724C273.49 120.215 274.552 120.092 275.563 120.215C275.614 119.969 275.665 119.724 275.665 119.479C275.108 119.05 274.552 118.559 274.248 118.375C274.956 117.149 275.563 116.046 276.17 114.943C275.108 114.513 273.995 114.146 272.579 113.655ZM304.04 55.5402C309.301 55.2337 313.954 54.9885 318.608 54.7433C318.608 54.3755 318.557 54.0077 318.557 53.5785C313.954 54.8046 309.098 51.6169 304.04 55.5402ZM129.588 140.567C133.533 142.345 137.023 141.18 140.21 138.605C140.159 138.299 140.108 137.992 140.058 137.686C136.568 138.667 133.078 139.648 129.588 140.567ZM83.5087 92.5671C83.3569 92.2605 83.2052 91.954 83.0534 91.6475C82.1936 92.0153 81.2831 92.3832 80.2715 92.8123C80.4232 92.0766 80.4738 91.6475 80.6761 90.7893C79.3105 91.2797 78.0965 91.7701 76.832 92.1993C77.5402 93.5479 78.0459 94.5287 78.8047 95.9387C80.4232 94.774 81.9912 93.6705 83.5087 92.5671ZM204.75 55.6628C204.801 55.2337 204.801 54.8046 204.852 54.3755C200.805 54.3755 196.809 54.3755 192.763 54.3755C192.763 54.5594 192.763 54.8046 192.763 54.9885C196.809 55.1724 200.755 55.4176 204.75 55.6628ZM344.91 80.1226C346.376 78.1609 347.59 76.3832 349.158 74.2376C346.73 75.341 344.758 76.1992 342.633 77.1188C343.443 78.1609 344.1 79.0805 344.91 80.1226ZM37.4297 76.6897C36.0134 75.4636 35.1535 74.6054 34.1925 74.0536C33.9902 73.931 33.3832 74.6667 32.9786 75.0345C33.7373 76.0153 34.3949 77.0575 35.2547 77.8544C35.5076 78.0383 36.2663 77.3027 37.4297 76.6897ZM14.0108 84.1686C16.8939 86.9272 18.3608 85.0268 19.9794 83.8621C19.9288 83.5555 19.8782 83.249 19.8276 82.9425C18.1079 83.3103 16.3376 83.6782 14.0108 84.1686ZM306.721 28.2605C308.795 28.5058 310.717 28.6897 312.942 28.9349C311.122 26.2989 309.452 26.1763 306.721 28.2605ZM199.237 28.5057C200.906 28.8123 202.626 29.1188 204.649 29.4866C203.435 26.8506 202.879 26.728 199.237 28.5057ZM98.784 59.0958C98.6323 59.5249 98.5311 59.954 98.3794 60.3831C99.4416 62.7126 101.718 61.0575 103.134 62.1609C103.235 61.8544 103.286 61.6092 103.387 61.3027C101.869 60.5671 100.301 59.8314 98.784 59.0958ZM258.062 145.594C257.658 149.211 258.518 150.498 261.047 150.989C260.136 149.333 259.226 147.678 258.062 145.594ZM270.404 118.805C270.606 118.743 270.859 118.682 271.062 118.621C270.657 115.801 270.303 112.92 269.898 110.1C269.595 110.161 269.241 110.284 268.937 110.345C269.393 113.226 269.898 115.985 270.404 118.805ZM137.984 243.004C138.389 243.126 138.844 243.249 139.249 243.372C139.552 242.268 139.856 241.165 140.21 240.123C139.603 240.123 138.591 239.816 138.49 240.123C138.085 240.981 138.085 242.023 137.984 243.004ZM311.678 51.0651C311.678 50.8199 311.678 50.5747 311.678 50.3295C309.655 50.3295 307.581 50.3295 305.558 50.3295C305.558 50.5747 305.558 50.8199 305.558 51.0651C307.581 51.0651 309.604 51.0651 311.678 51.0651ZM263.778 141.487C266.813 144 267.673 143.877 268.28 141.487C267.066 141.487 265.801 141.487 263.778 141.487Z" transform="translate(0.101562 62.624)" fill="black"/>
<path d="M151.843 94.3448C152.248 93.6705 152.602 93.0575 153.057 92.2605C151.186 89.6245 149.567 87.1111 146.532 85.9464C144.762 85.272 143.396 83.0651 141.12 82.7586C137.276 82.2682 133.836 83.5556 130.245 85.1494C127.059 86.6207 126.047 89.8697 125.035 92.751C124.327 94.8353 125.339 97.7778 125.693 100.291C125.895 101.762 126.249 103.172 126.553 104.582C126.35 104.766 126.148 104.95 125.946 105.134C124.884 104.46 123.821 103.785 122.81 103.05C121.242 101.885 119.876 101.088 119.32 104.215C119.269 104.582 119.067 105.134 118.814 105.257C116.386 106.483 116.184 109.119 115.729 111.693C115.425 113.287 114.312 114.33 113.503 112.552C111.632 108.261 108.546 110.529 105.663 109.548C105.865 110.713 105.966 111.387 106.118 112.123C105.966 112.245 105.815 112.49 105.612 112.613C102.173 114.82 102.274 114.759 100.301 110.59C99.6945 109.303 98.6323 108.199 97.6713 107.157C96.2044 105.686 94.7376 104.276 93.119 103.05C92.4109 102.498 91.5004 102.437 89.983 101.885C90.6405 103.969 91.0958 105.195 91.4498 106.483C92.0568 108.628 91.8039 109.732 89.5784 110.222C87.808 110.651 86.2906 112.429 84.4697 113.655C84.318 111.08 84.1156 108.138 83.9133 104.95C85.6331 105.134 87.5551 105.992 87.808 102.989C87.6563 102.743 87.5045 102.437 87.454 102.437C82.6488 103.54 80.6762 99.0038 78.046 95.6322C77.3378 94.7127 76.3262 94.0383 74.8088 92.751C77.3884 90.9119 79.614 89.3793 81.9913 87.6628C80.1704 83.3104 76.5791 84.2912 73.5949 84.2299C70.206 84.1686 66.463 84.046 65.1985 89.931C67.07 90.2989 69.0426 90.728 70.9647 91.0958C70.9647 91.2797 70.9141 91.4636 70.9141 91.6475C66.7159 92.0153 62.5177 92.4445 58.1678 92.8123C56.1951 88.8276 53.312 88.0307 49.7714 90.9119C48.4057 92.0153 47.2929 92.1992 45.5732 91.7088C43.4488 91.0345 41.2738 91.0958 38.8965 92.3218C36.4686 93.6092 33.3832 93.2414 30.6013 93.3027C28.6792 93.364 26.7572 92.6284 24.8351 92.751C22.1543 92.9349 20.4852 94.8966 18.7654 97.4713C16.9445 100.169 15.68 102.927 14.8707 106.176C14.7695 106.667 13.2521 107.218 13.0498 106.973C9.10453 102.192 4.50169 103.908 1.23488e-05 104.828C1.23488e-05 84.7816 1.23488e-05 64.7969 1.23488e-05 44.751C1.46685 44.2605 3.3889 46.0996 5.10865 42.9119C3.03484 42.9119 1.51743 42.9119 1.23488e-05 42.9119C1.23488e-05 36.3525 1.23488e-05 29.8544 1.23488e-05 23.295C0.60698 23.0498 1.31508 22.8659 1.87147 22.4368C3.54063 21.0881 4.65341 21.3333 5.76619 23.6015C6.272 24.5824 8.09291 25.8697 8.49756 25.5019C9.76207 24.5211 9.66092 23.1111 8.85163 21.1494C7.8906 18.6973 7.13186 15.0805 7.94115 12.8736C8.90218 10.2989 9.71149 8.15325 9.408 5.33333C9.35742 4.90421 9.55975 4.47509 9.66091 4.10728C11.937 5.14942 14.112 6.06896 15.8318 6.8659C15.6294 8.21456 14.8707 9.86973 15.2753 10.8506C15.7812 12.1379 17.2986 13.7318 18.209 13.6092C19.9794 13.3027 21.6991 12.0153 23.3177 10.9119C23.52 10.7893 23.4188 9.2567 23.1153 8.70498C22.2049 7.04981 20.7886 5.57855 22.4578 3.37166C22.559 3.24905 22.0026 2.2069 21.6991 1.71648C21.2945 1.10345 20.7886 0.613034 20.3334 7.48324e-06C83.2052 7.48324e-06 146.128 7.48324e-06 208.999 7.48324e-06C208.898 2.39081 208.645 4.65901 206.42 5.76246C205.964 6.00767 205.61 7.23372 205.661 7.96936C205.914 13.1188 204.751 15.0192 200.755 15.7548C200.552 15.8161 200.35 16.3065 199.996 16.8582C203.183 17.3487 203.638 20.2299 203.891 22.9272C204.194 26.4828 201.867 27.954 199.49 29.1188C201.817 31.387 201.766 32.1839 199.642 34.5134C198.934 35.3103 198.63 36.7203 198.175 37.8238C199.288 38.1303 200.401 38.4368 201.564 38.6207C202.019 38.682 202.525 38.3755 203.031 38.2529L202.98 38.1916C203.334 39.1724 203.688 40.2146 203.992 41.0728C203.435 41.3793 202.626 41.931 201.716 42.2989C199.844 43.0958 197.973 43.6475 196.152 44.5057C195.191 44.9349 193.775 45.4866 193.522 46.3448C193.117 47.7548 192.156 49.0422 193.42 51.1878C195.09 54.069 196.961 54.4368 199.389 54.3755C225.843 54.2529 252.296 54.1303 278.75 54.0077C290.282 53.9464 301.815 53.8238 313.398 53.7625C314.662 53.7625 315.927 54.1303 317.191 54.3142C317.141 54.7433 317.141 55.1724 317.09 55.6628C276.221 55.6628 235.352 55.6628 194.483 55.6628C194.432 56.0307 194.381 56.3985 194.331 56.7663C194.988 57.0115 195.595 57.4406 196.253 57.4406C206.116 57.4406 215.929 57.4406 225.792 57.3793C255.533 57.1954 285.275 57.0115 315.016 56.8276C318.304 56.8276 318.254 56.8276 318.355 52.5977C318.405 49.5939 318.051 46.1609 320.378 44.0766C323.666 41.0728 327.156 38.3755 330.696 35.433C331.455 39.1724 333.782 38.8046 335.754 38.8659C341.318 38.9885 346.882 38.9272 352.395 38.8046C359.881 38.682 367.367 38.6207 374.803 38.2529C381.581 37.8851 388.207 35.7395 395.086 36.659C398.829 37.1494 399.537 38.1303 399.385 42.6054C399.284 45.1801 399.941 47.9387 400.498 50.5134C401.003 52.8429 402.521 55.1111 402.42 57.318C402.167 61.7931 403.583 65.4713 404.949 69.272C404.949 71.5402 404.949 73.7471 404.949 76.0153C400.852 76.2605 396.704 76.4444 392.607 76.6897C391.292 76.751 389.977 76.9962 388.51 77.1801C387.498 76.0766 386.841 73.4406 384.464 75.1571C384.16 75.341 383.351 74.2989 382.744 74.115C379.355 73.1341 375.966 72.2146 372.324 71.2337C372.577 71.908 372.779 72.3372 372.931 72.705C370.706 73.0115 368.581 73.1341 366.558 73.6858C365.445 73.9923 364.13 74.728 363.574 75.7701C360.994 80.5517 357.403 79.3257 354.014 78.1609C349.917 76.751 346.073 77.0575 342.178 79.0192C341.521 79.387 340.762 79.7548 340.054 79.8161C334.338 80.0613 328.623 80.2452 322.907 80.4904C320.125 80.613 319.821 79.3257 320.58 76.0153C321.288 72.9502 321.035 69.5785 321.238 65.9617C321.44 65.5939 322.047 64.5517 322.553 63.7548C278.345 63.8161 234.441 64.4904 189.981 62.1609C189.93 62.774 189.273 64.4904 189.728 65.4713C190.082 66.3295 191.751 66.3295 192.611 66.5747C192.409 67.249 191.852 68.2299 191.954 69.0881C192.409 71.8467 190.284 75.2184 193.37 77.4866C193.825 77.8544 193.319 80.3065 193.117 81.7165C192.662 84.5364 192.662 84.5364 193.926 86.3755C191.751 88.6437 194.078 89.0115 195.292 90.0536C192.611 90.8506 190.234 91.5249 188.211 92.0766C188.413 94.2222 188.868 96.0613 188.615 97.7778C188.261 100.414 186.44 101.64 184.468 102.498C184.215 102.621 184.114 103.172 183.962 103.54L184.063 103.418C183.102 103.847 181.939 101.64 181.129 103.785C180.725 103.418 180.067 103.111 179.865 102.621C177.791 97.0422 174.301 93.364 169.749 90.9119C169.041 90.5441 168.383 89.9923 167.27 89.2567C171.519 89.1341 172.986 87.9694 173.643 84.7203C168.231 81.41 164.033 85.456 159.734 88.2759C157.053 89.9924 154.625 92.2605 152.096 94.2835L151.843 94.3448ZM117.246 102.314C117.549 102.13 117.802 101.946 118.106 101.762C118.409 99.1264 118.865 96.4291 118.966 93.7931C119.067 90.3602 117.246 87.9694 114.464 86.7433C113.604 86.3755 112.795 85.456 112.188 84.5977C110.266 81.9004 107.079 82.023 105.461 84.9655C105.056 85.7011 104.55 86.4368 103.943 86.9885C103.286 87.6015 102.426 87.9694 101.667 88.3985C101.617 87.4176 101.566 86.4368 101.465 84.8429C99.2898 87.0498 97.0643 88.8276 96.862 92.4444C96.7102 96.0613 96.8114 99.6169 96.8114 104.031C97.9242 103.602 99.1887 103.54 99.391 102.927C100.251 100.536 100.706 97.9617 101.465 95.5709C101.667 94.9579 102.83 94.0996 103.033 94.2222C105.764 96.613 107.939 94.5287 110.215 93.0575C112.542 91.5862 113.301 92.1992 114.211 95.2031C114.919 97.6552 116.184 99.9234 117.246 102.314ZM33.4844 88.2759C35.2041 84.9655 35.103 85.0881 32.6751 82.3295C31.7647 81.2874 31.1577 79.5096 30.9554 77.9157C30.399 73.5632 29.5391 69.4559 26.3525 66.3908C25.8973 68.4138 25.4421 70.1916 25.088 71.9694C24.7339 73.7471 24.3799 75.4636 23.9752 77.4866C26.5548 77.5479 29.2862 77.6705 28.2746 82.3908C28.224 82.5134 28.4263 82.7586 28.4769 82.9425C29.2356 85.0881 29.8932 87.295 30.8036 89.318C31.2588 90.3602 32.1693 91.1571 32.9786 91.954C33.1303 92.0766 33.9902 91.5862 33.9902 91.4636C33.9396 90.4828 33.6867 89.5019 33.4844 88.2759ZM179.46 46.3448C182.394 45.4866 183.153 42.9119 183.102 40.2146C183.051 37.8851 182.596 35.433 181.837 33.2874C181.483 32.3678 179.814 32.1226 178.752 31.5709C178.398 32.7969 177.943 33.9617 177.69 35.1877C177.488 36.1686 177.842 37.272 177.538 38.1303C176.476 41.6245 177.589 44.0766 179.46 46.3448ZM165.399 37.5172C165.348 37.5172 165.298 37.5172 165.247 37.5172C165.399 39.1111 165.652 40.705 165.702 42.3601C165.753 44.3218 166.36 45.4253 168.13 45.2414C169.85 44.9962 170.356 43.6475 170.356 41.8697C170.356 40.3372 170.609 38.6207 170.103 37.3946C169.344 35.433 168.029 32.4291 166.916 32.4291C165.045 32.4291 165.045 35.1877 165.348 37.3333C165.399 37.272 165.399 37.3946 165.399 37.5172ZM114.919 101.088C110.721 101.395 106.523 101.701 102.375 102.13C102.173 102.13 101.718 103.908 101.971 104.398C103.235 106.851 105.663 106.728 107.079 104.153C107.787 102.866 108.243 102.314 109.355 103.54C111.783 106.176 113.2 105.808 114.919 101.088ZM9.05393 86.4368C9.45858 91.2797 9.76207 95.5096 10.1667 100.169C10.9254 100.046 11.937 99.9234 12.9486 99.7395C11.937 96.9808 14.4661 95.0192 13.151 92.0766C12.0888 89.6858 12.0888 86.9272 9.05393 86.4368ZM171.165 79.5096C170.052 78.0996 169.395 77.2414 168.687 76.3831C168.181 77.4866 167.422 78.59 167.27 79.7548C167.169 80.3678 168.13 81.2261 168.585 81.9617C169.293 81.2874 170.052 80.5517 171.165 79.5096ZM33.4338 36.9042C33.7879 36.9655 34.0914 36.9655 34.4454 37.0268C34.4454 35.4943 34.4454 33.9617 34.4454 32.4291C34.1925 32.4291 33.9396 32.4291 33.6867 32.3678C33.5856 33.9004 33.535 35.3716 33.4338 36.9042Z" transform="translate(0.0512695 0.524414)" fill="white"/>
<path d="M212.146 69.272C210.73 65.4713 209.364 61.7931 209.617 57.318C209.718 55.1111 208.201 52.8429 207.695 50.5134C207.138 47.9387 206.481 45.2414 206.582 42.6054C206.784 38.069 206.076 37.1494 202.283 36.659C195.404 35.7395 188.778 37.8851 182 38.2529C174.514 38.6207 167.028 38.682 159.593 38.8046C154.029 38.9272 148.465 38.9272 142.952 38.8659C140.979 38.8046 138.652 39.1724 137.893 35.4329C134.353 38.3755 130.863 41.0728 127.575 44.0766C125.299 46.1609 125.653 49.5939 125.552 52.5977C125.451 56.8276 125.552 56.8276 122.213 56.8276C92.4721 57.0115 62.7307 57.1954 32.9892 57.3793C23.126 57.4406 13.3134 57.4406 3.45014 57.4406C2.79259 57.4406 2.1856 57.0115 1.52805 56.7663C1.57863 56.3985 1.62924 56.0306 1.67982 55.6628C42.549 55.6628 83.4182 55.6628 124.287 55.6628C124.338 55.2337 124.338 54.8046 124.388 54.3142C123.124 54.1303 121.859 53.7625 120.595 53.7625C109.063 53.8238 97.5302 53.9464 85.9472 54.0077C59.4935 54.1303 33.0398 54.2529 6.58612 54.3755C4.20883 54.3755 2.28677 54.0077 0.617608 51.1877C-0.646909 49.0421 0.36471 47.7548 0.718775 46.3448C0.971678 45.4866 2.38794 44.9349 3.34898 44.5058C5.16988 43.7088 7.09194 43.0958 8.91285 42.2989C9.77272 41.931 10.6326 41.3793 11.189 41.0728C10.8855 40.1533 10.5314 39.1724 10.1774 38.1916C10.4808 38.3142 10.7843 38.4981 11.1384 38.4981C45.5838 38.4368 80.0293 38.3755 114.475 38.3142C114.879 38.3142 115.335 38.0077 116.296 37.6398C113.21 35.0651 110.58 32.7356 107.849 30.7126C99.8063 24.8276 91.0559 20.8429 82.0525 17.7165L82.0019 17.7778C82.8112 17.7165 83.6205 17.6552 84.3792 17.6552C84.885 12.4444 85.5931 11.954 89.3361 13.977C89.943 14.2835 90.6006 14.5287 91.2076 14.8965C95.4058 17.41 96.6197 16.8582 98.5418 11.6475C99.604 8.76628 100.868 8.09195 103.398 9.07279C104.713 9.56321 106.028 10.0536 107.343 10.6054C107.596 8.88888 108.102 7.35633 107.95 5.88506C107.798 4.72031 107.039 3.49426 106.331 2.51341C105.623 1.53257 104.611 0.796935 103.752 0C127.17 0 150.64 0 174.059 0C173.603 1.71648 173.199 3.67815 174.969 4.47509C176.588 5.21072 178.307 5.08812 179.218 2.63601C179.42 2.08428 180.23 1.90038 180.735 1.53257C180.988 2.08429 181.443 2.69731 181.443 3.24903C181.393 6.06896 182.607 7.60154 184.63 8.39848C187.817 9.62453 188.272 5.51725 190.093 4.04598C190.497 3.73947 189.89 1.40997 189.739 0.0613064C197.174 0.0613064 204.559 0.0613064 211.994 0.0613064C212.146 23.1111 212.146 46.1609 212.146 69.272ZM116.346 38.9885C115.082 43.0345 112.401 41.2567 110.175 41.318C109.922 41.318 109.67 41.318 109.417 41.318C78.6636 41.4406 47.9105 41.6245 17.1575 41.5632C13.9709 41.5632 11.7959 42.6054 9.87386 45.6705C8.81167 47.387 7.09194 48.5517 5.6251 49.9004C5.1193 50.3908 4.5629 50.8812 3.75361 51.6782C12.3017 52.9655 120.898 52.3525 122.365 51.0651C119.937 47.5709 114.222 46.4061 116.346 38.9885ZM193.583 17.1034C193.684 16.3678 193.886 14.4061 191.964 14.9579C190.295 15.4483 190.042 14.4674 189.385 13.2414C188.373 11.2797 186.856 10.6054 185.085 11.8314C182.708 13.4253 181.191 16.6743 181.949 18.4521C182.101 18.8812 182.506 19.1877 182.809 19.5556C184.984 22.0077 187.007 20.1686 189.031 19.1877C190.245 18.4521 191.56 17.9617 193.583 17.1034ZM124.439 16.1226C124.439 16.2452 124.439 16.3065 124.439 16.4291C125.451 16.4291 126.462 16.5517 127.474 16.3678C128.03 16.2452 128.991 15.3257 128.941 15.1418C128.486 13.6092 127.98 11.954 127.12 10.728C126.563 9.99234 125.248 9.31801 124.49 9.56322C122.466 10.2989 120.544 11.341 118.673 12.6284C118.066 13.0575 117.864 14.4061 117.459 15.3257C118.167 15.7548 118.926 16.5517 119.634 16.5517C121.252 16.6743 122.871 16.3065 124.439 16.1226ZM141.181 34.1456C141.788 34.023 142.142 34.0843 142.395 33.9004C144.267 32.4291 146.138 30.9578 147.858 29.3027C148.364 28.8123 148.515 27.4023 148.364 26.5441C148.263 25.8697 147.352 24.9502 146.846 25.0115C146.037 25.0728 145.177 25.6245 144.57 26.2988C144.014 26.9119 143.862 28.567 143.306 28.6896C140.625 29.4866 141.333 31.8161 141.181 34.1456Z" transform="translate(192.601 0.402832)" fill="black"/>
<path d="M4.85574 38.2529C4.34994 38.3755 3.8947 38.682 3.38889 38.6207C2.22554 38.4368 1.11279 38.069 1.23488e-05 37.8238C0.505819 36.7203 0.758704 35.3103 1.46683 34.5134C3.59122 32.2452 3.64181 31.387 1.3151 29.1188C3.69239 27.954 6.0191 26.4828 5.71562 22.9272C5.5133 20.2299 5.00749 17.3487 1.8209 16.8582C2.22555 16.3065 2.37729 15.8161 2.57961 15.7548C6.52491 15.0192 7.73885 13.1188 7.48594 7.96935C7.43536 7.23372 7.78943 5.94636 8.24465 5.76245C10.5208 4.659 10.7231 2.39081 10.8243 3.74162e-06C31.7141 3.74162e-06 52.6545 3.74162e-06 73.5443 3.74162e-06C72.5833 2.2682 73.0891 4.29118 74.5559 5.70115C76.1239 7.11111 76.1745 8.64368 75.7698 10.6667C75.3146 13.0575 75.5169 15.5709 76.5285 17.8391L76.5791 17.7778C69.245 17.2261 61.8601 16.7356 55.487 16.2452C54.1719 14.0383 53.3626 11.2797 52.351 11.1571C49.3162 10.8506 49.0127 13.9157 49.1138 16.5517C44.2075 17.7778 39.5035 18.7586 34.8501 20.1686C25.0374 23.1724 16.1352 28.6897 7.73885 35.4943C6.8284 36.2912 5.86736 37.272 4.85574 38.2529Z" transform="translate(198.074 0.463379)" fill="black"/>
<path d="M42.0836 31.7011C40.9709 31.8237 39.8581 31.8851 38.7453 32.1303C37.7337 32.3755 36.8232 32.9885 35.8622 33.295C35.0023 33.5402 34.0919 33.4789 32.9286 33.5402C32.1698 31.885 31.1582 29.7394 30.096 27.4099C30.8548 26.6743 31.5123 26 32.7768 24.7126C31.5628 24.6513 31.0065 24.4061 30.5007 24.59C27.7187 25.4483 27.5164 25.2644 27.8705 21.7088C27.9211 21.4636 27.7693 21.1571 27.7187 20.8506C24.8862 21.5249 24.0769 24.1609 25.8473 26.6743C25.999 26.8582 26.1507 27.1647 26.1002 27.4099C25.6449 30.1073 24.785 32.5594 23.1665 33.8467C19.8281 30.659 16.8439 27.8391 13.3538 24.4674C14.5677 26.9808 15.5288 28.8812 16.5404 30.8429C14.5172 31.272 14.5172 31.272 14.6689 28.3295C12.4434 28.1456 10.1672 27.9617 7.9417 27.8391C8.29576 26.6743 8.75099 25.2644 9.20621 23.7931C8.90273 23.6092 8.54865 23.364 8.24517 23.1801C7.48646 26.9808 5.86786 29.8007 2.47896 30.4138C2.68128 27.6552 2.9342 25.0191 3.1871 21.8314C5.05859 24.6513 6.37371 24.59 7.89113 21.8314C8.64984 20.4214 10.2178 19.6245 11.6341 18.3984C13.3033 20.1149 15.2759 22.1992 17.2485 24.2835C17.4003 24.0996 17.552 23.9157 17.7038 23.7318C17.4003 23.1801 17.0462 22.6896 16.6922 22.1379C17.6532 21.7701 18.6142 21.5862 19.4741 21.0345C20.2834 20.5441 21.5985 19.3793 21.5479 19.1341C21.0421 17.8467 20.3846 16.0076 19.4741 15.7011C17.5015 15.0268 15.4782 13.4942 13.2021 15.2107C12.3422 15.885 10.5719 15.8237 9.66145 15.1494C7.03126 13.3103 4.55282 14.1686 2.02378 15.272C1.36623 13.3103 0.55692 11.41 0.101694 9.38696C-0.657016 6.19922 2.9848 0.436759 5.8679 0.314154C9.81319 0.130246 13.7584 -0.17626 17.6532 0.130253C19.0694 0.252858 20.8398 1.78543 21.5985 3.318C22.9642 6.01532 23.8746 8.95783 23.3688 12.5747C22.9642 15.272 23.824 18.2145 24.1275 21.1571C27.3647 20.2988 27.0612 17.6628 27.1118 15.272C27.1624 12.7586 27.1118 10.2452 27.1118 7.05745C30.6524 8.71262 32.8779 10.9195 34.3448 14.4751C35.9128 18.2145 34.7494 21.5862 32.9791 25.3257C36.368 24.9578 39.2006 24.7126 42.0331 24.4061C42.0836 26.7969 42.0836 29.249 42.0836 31.7011Z" transform="translate(362.663 76.5935)" fill="white"/>
<path d="M3.48816 17.8391C2.47655 15.5709 2.3248 13.1188 2.72945 10.6667C3.08351 8.58237 3.0835 7.1111 1.5155 5.70114C-0.0019184 4.35248 -0.457144 2.2682 0.503888 0C8.74854 0 17.0438 0 25.2884 0C26.1483 0.796935 27.1599 1.53257 27.868 2.51341C28.5761 3.49426 29.3349 4.65901 29.4866 5.88506C29.6384 7.29502 29.1325 8.88888 28.8796 10.6054C27.5645 10.1149 26.2495 9.56321 24.9344 9.07279C22.4559 8.09195 21.1408 8.82759 20.0786 11.6475C18.1565 16.8582 16.9426 17.41 12.7444 14.8965C12.1374 14.5287 11.4799 14.3448 10.8729 13.977C7.12995 11.954 6.4218 12.4444 5.91599 17.6552C5.1067 17.7165 4.29745 17.7778 3.48816 17.8391Z" transform="translate(271.215 0.402832)" fill="white"/>
<path d="M20.3334 0C20.7886 0.551724 21.2945 1.10344 21.6991 1.71647C22.0532 2.20689 22.559 3.18774 22.4578 3.37165C20.7887 5.57854 22.2049 6.98851 23.1154 8.70499C23.4188 9.31802 23.5706 10.7893 23.3177 10.9119C21.6991 12.0153 19.9794 13.364 18.209 13.6092C17.2986 13.7318 15.7812 12.1379 15.2754 10.8506C14.8707 9.86974 15.6294 8.21457 15.8317 6.86591C14.0614 6.06897 11.937 5.14943 9.66092 4.10729C9.61034 4.4751 9.40801 4.96553 9.40801 5.33334C9.7115 8.09196 8.90219 10.2989 7.94116 12.8736C7.13187 15.0805 7.89058 18.6973 8.85161 21.1494C9.6609 23.1111 9.76205 24.5211 8.49754 25.5019C8.04231 25.8697 6.22143 24.6437 5.7662 23.6015C4.70401 21.3333 3.59123 21.0881 1.87148 22.4368C1.3151 22.8659 0.657542 22.9885 -6.1744e-06 23.295C-6.1744e-06 15.5096 -6.1744e-06 7.78544 -6.1744e-06 0C6.82838 0 13.6062 0 20.3334 0Z" transform="translate(0 0.403809)" fill="black"/>
<path d="M0 0.557665C1.66916 0.373757 3.33834 -0.0553583 5.0075 0.00594442C7.53653 0.0672471 9.76207 2.94847 10.1161 6.07491C10.2173 7.11705 10.8749 7.97528 11.0772 9.01743C11.3301 10.1209 11.4312 11.2243 11.583 12.3278C11.3301 12.3891 11.0772 12.3891 10.8243 12.4504C9.61034 11.4695 8.39638 10.4274 7.23303 9.44655C7.03071 9.69176 6.8284 9.93698 6.67665 10.1822C6.92956 11.2856 7.23303 12.3891 7.48593 13.4925C4.9569 16.0059 2.3267 15.0251 1.31508 11.4695C1.16334 10.9791 0.455226 10.7339 0 10.3661C0 8.52701 0 6.68793 0 4.84885C3.59123 6.44272 4.9569 6.19752 6.82839 3.07108C4.34994 2.82587 2.17497 2.58065 0 2.39675C0 1.78372 0 1.17069 0 0.557665Z" transform="translate(0.101562 118.771)" fill="white"/>
<path d="M16.0706 0.0613027C16.2223 1.47126 16.8798 3.73946 16.4246 4.04598C14.6037 5.45594 14.1485 9.62453 10.9619 8.39847C8.88812 7.60154 7.67416 6.06897 7.77532 3.24905C7.77532 2.69733 7.32008 2.08429 7.06718 1.53256C6.56137 1.90038 5.75208 2.0843 5.54976 2.63602C4.63931 5.08813 2.9702 5.27204 1.30103 4.4751C-0.469289 3.67817 -0.0646685 1.77777 0.390557 -3.74162e-06C5.60037 0.0612989 10.8608 0.0613027 16.0706 0.0613027Z" transform="translate(366.421 0.340576)" fill="white"/>
<path d="M0 0C2.17497 0.245211 4.34994 0.429123 6.82839 0.674333C4.9569 3.73947 3.59123 3.98467 0 2.45211C0 1.65517 0 0.796935 0 0Z" transform="translate(0.101562 121.168)" fill="black"/>
<path d="M0 0C1.51742 0 3.03483 0 5.10863 0C3.38889 3.18774 1.51742 1.34866 0 1.83908C0 1.22605 0 0.613027 0 0Z" transform="translate(0.101562 43.314)" fill="black"/>
<path d="M0 0.796935C0.809291 0.551724 1.568 0.306521 2.52903 7.48324e-06C3.08542 2.88123 1.568 3.67816 0 4.4751C0 3.24904 0 2.02299 0 0.796935Z" transform="translate(0.101562 173.092)" fill="white"/>
<path d="M0 1.6943C0.404645 1.14258 0.708142 0.406943 1.21395 0.161732C1.77034 -0.0834784 2.52904 -0.0221757 3.13601 0.161732C3.38891 0.223035 3.69238 1.2652 3.59121 1.3265C3.08541 1.75562 2.57963 2.18473 1.97266 2.42994C1.36569 2.67515 0.657548 2.73646 0 2.85907C0 2.49125 0 2.12342 0 1.6943Z" transform="translate(0.101562 169.129)" fill="white"/>
<path d="M16.3375 32.9808C17.1974 37.4559 13.6568 37.0268 12.0382 38.0077C9.55973 39.5402 6.62606 40.2146 3.79354 40.705C2.57961 40.8889 1.26451 39.8467 -6.1744e-06 39.295C0.0505745 39.0498 0.151748 38.7433 0.202329 38.4981C5.15923 35.8621 10.1161 33.226 15.1236 30.5287C15.0225 30.2222 14.9213 29.977 14.8201 29.6705C12.1899 30.8352 9.55973 32 6.98012 33.2261C8.95276 30.59 11.4818 28.2605 10.8748 24.2759C8.59871 21.8851 8.54812 18.3908 8.49754 15.387C8.44696 7.90805 12.9486 3.98467 17.7032 0C18.6643 3.49425 19.6253 6.8046 20.5358 10.1149C16.4387 9.93103 13.2015 12.3218 10.369 15.6322C9.86322 16.2452 9.76205 17.7778 10.015 18.6973C10.2173 19.4943 11.1783 20.5977 11.7347 20.5364C15.2754 20.2299 19.0183 20.7203 21.952 17.41C23.1154 16.1226 24.4811 16.1226 26.0996 16.9195C28.831 18.3295 31.7647 19.1264 34.5972 20.1686C34.0914 21.5785 33.5855 22.9885 33.0292 24.5824C37.9355 24.1533 40.768 21.7625 39.8575 19.1264C38.0366 19.5556 36.2663 19.9234 34.4454 20.3525C35.1536 19.4943 35.7605 18.3908 36.6204 17.8391C37.5309 17.2261 38.9977 16.3678 39.7058 16.7969C41.9314 18.1456 43.5499 16.7969 45.3708 15.8161C46.0284 15.4483 47.04 15.0192 47.5964 15.387C51.744 18.023 56.0939 18.9425 60.6968 18.3295C62.4671 18.0843 63.681 18.7586 64.5915 20.8429C67.2217 26.9119 69.9531 32.797 72.6338 38.8659C73.7972 41.5632 73.6454 43.7088 70.8635 44.8122C70.206 45.0575 69.7002 45.7931 69.3461 46.0996C68.3851 41.4406 67.424 36.659 66.3113 32C66.1089 31.2031 64.9962 30.7126 64.288 30.0383C64.288 30.9579 64.1363 32 64.288 32.8582C64.7433 35.7394 65.2996 38.5594 65.856 41.3793C66.0078 42.2375 66.2607 43.0958 66.6147 43.8927C67.2217 45.364 67.2723 46.4061 66.2101 47.9387C64.895 49.7778 64.1869 52.2299 63.1752 54.4368C63.1752 50.2682 63.1752 45.8544 63.1752 41.1954C63.0235 41.1954 62.4165 41.0728 61.7084 40.9502C61.7084 37.7624 61.7084 34.5747 61.7084 31.3257C61.5567 31.3257 61.4049 31.2644 61.2532 31.2644C60.7474 34.3908 59.9887 37.4559 59.8875 40.5824C59.7863 43.4023 59.0276 44.5057 56.8021 44.3218C56.4986 44.3218 56.2457 44.5671 55.841 44.751C58.8759 47.0192 59.1794 52.2912 56.5492 55.7242C57.2573 57.2567 57.8137 59.8314 58.8253 60.1379C60.0392 60.5057 61.7084 58.9732 63.2764 58.2375C64.2374 62.4061 65.1985 66.5747 66.3113 71.3563C64.0351 71.9081 61.7084 72.5211 58.9771 73.2567C58.4712 68.4138 55.841 65.9004 51.744 65.2874C53.0591 63.6935 53.9696 62.5287 55.4364 60.7509C50.1254 60.7509 45.7249 60.7509 40.9198 60.7509C40.1105 56.8276 38.8459 52.9655 38.593 48.9809C38.3401 44.8123 36.5192 42.8506 33.7373 41.3793C28.6286 38.8046 23.52 36.1686 18.4114 33.5939C17.7538 33.2873 16.9445 33.2874 16.2364 33.1034C16.2364 32.4904 16.2364 31.9387 16.2364 31.0191C13.4039 33.2873 10.7737 35.433 8.1435 37.5172C11.4312 37.3333 14.0108 35.4942 16.3375 32.9808ZM45.1685 45.6092C47.3941 45.6092 49.4173 45.6092 51.4405 45.6092C48.0516 43.4636 45.1685 43.7701 45.1685 45.6092ZM26.8583 35.8621C24.4811 31.8774 23.2671 31.5096 21.345 33.4712C22.913 34.1456 24.5822 34.8812 26.8583 35.8621Z" transform="translate(73.8477 111.973)" fill="white"/>
<path d="M138.476 3.61978C138.83 5.15235 139.134 6.74622 139.538 8.58531C98.2138 8.58531 57.1928 8.58531 16.1214 8.58531C16.0708 8.83052 16.0708 9.01441 16.0202 9.25962C18.6504 9.93395 21.2806 11.2213 23.9108 11.2213C61.4416 11.4052 99.023 11.3439 136.554 11.4052C137.768 11.4052 138.982 11.6504 140.196 11.773C140.196 12.0795 140.145 12.3861 140.145 12.6926C101.4 12.6926 62.605 12.6926 23.8096 12.6926C23.1015 14.8382 23.9108 15.206 25.5293 15.206C35.0385 15.1447 44.5477 15.1447 54.0568 15.1447C69.5345 15.1447 85.0122 15.2673 100.49 15.2673C113.54 15.2673 126.589 15.2673 139.639 15.1447C141.308 15.1447 141.663 15.8803 141.713 18.0872C137.009 18.0872 132.406 18.0872 127.803 18.0872C104.992 18.0872 82.1797 18.0872 59.3678 18.0259C51.629 18.0259 43.8901 17.6581 36.1513 17.5968C32.3072 17.5355 28.4124 17.6581 24.5683 17.9646C24.0119 18.0259 23.1521 19.1907 23.1015 19.9263C22.7474 23.4206 21.1794 25.3209 18.2963 25.1983C16.1719 25.137 14.0981 24.8305 12.0243 24.7692C11.1644 24.7692 10.2034 25.0144 9.3941 25.4435C8.8883 25.7501 8.28134 26.6696 8.33192 27.2213C8.3825 27.773 9.14121 28.6926 9.59644 28.7539C12.783 29.2443 16.0202 29.5508 19.3079 29.9186C19.4091 29.4895 19.3585 29.796 19.2573 30.1639C18.9033 31.6964 16.5766 30.8995 16.7789 33.1064C15.3626 32.8612 13.997 32.5546 12.5807 32.3707C11.7714 32.2481 10.861 32.1868 10.0517 32.3707C8.07903 32.9225 6.51102 32.3094 5.04418 30.5317C4.58896 29.9799 3.62792 30.0412 2.76805 29.796C4.43721 27.4052 3.27385 25.6888 1.40237 23.911C-0.317374 22.3171 -0.418536 18.0259 0.896561 15.4512C1.30121 14.7156 1.75644 13.9799 2.26225 13.1217C1.50354 12.3248 0.845999 11.6504 0.188451 10.9148C2.36342 12.4474 5.95463 9.87265 6.8145 13.8573C7.77554 12.0182 8.88832 10.1179 9.79877 8.15618C10.2034 7.29794 10.3551 6.25579 10.3551 5.27495C10.4057 1.9033 11.1644 0.983761 13.997 1.04506C18.4481 1.10637 22.9497 1.41288 27.4008 1.29027C30.2839 1.16767 33.1164 0.309443 35.9489 0.00292962C36.6065 -0.0583731 37.3652 0.861167 38.0733 1.22898C38.9332 1.6581 39.8437 2.33242 40.7541 2.33242C44.9017 2.39373 48.9988 2.20981 53.1464 2.27112C64.8305 2.33242 76.5146 2.45502 88.2494 2.51632C94.5719 2.51632 100.895 2.57763 107.167 2.27112C109.948 2.14851 112.68 0.92247 115.462 0.92247C122.037 0.861167 128.562 1.10637 135.138 1.41288C136.048 1.47419 136.959 2.45503 137.869 3.00676C138.122 3.06806 138.274 3.31327 138.476 3.61978ZM48.847 5.88797C48.847 5.94928 48.847 6.0719 48.847 6.1332C55.2202 6.1332 61.5934 6.1332 67.9665 6.1332C67.9665 6.0719 67.9665 5.94928 67.9665 5.88797C61.5934 5.88797 55.2202 5.88797 48.847 5.88797Z" transform="translate(181.953 124.66)" fill="white"/>
<path d="M48.8273 9.19576C47.4617 8.88925 46.7535 8.70534 46.1971 8.58273C46.5512 10.5444 46.9053 12.5674 47.3605 14.9582C42.1001 14.9582 37.3961 14.9582 32.6415 14.9582C30.8712 14.9582 29.1009 14.8356 27.3812 15.2034C26.4707 15.3873 25.712 16.5521 24.8521 17.2877C25.4085 18.2073 25.9143 19.1881 26.5718 20.0463C27.1788 20.8433 27.887 21.6402 28.6457 22.2532C30.1631 23.3567 33.552 22.6211 35.0188 20.9046C37.4467 18.2073 37.4467 18.2073 38.3066 22.008C38.4077 22.3759 38.5595 22.7437 38.61 22.9276C40.3804 22.9276 42.0495 23.2954 43.567 22.805C45.0844 22.3145 46.3995 20.9046 48.2204 19.5559C48.625 21.3337 49.0297 23.0502 49.2826 24.1536C48.3215 25.2571 47.664 25.9314 47.057 26.7283C45.8431 28.3222 44.6291 29.2417 43.0106 27.2801C42.0495 26.1153 40.9368 25.1958 39.9252 24.2149C39.7734 24.3988 39.5711 24.644 39.4193 24.8279C39.7734 25.5023 40.0769 26.1153 40.7344 27.4027C38.0537 27.6479 35.6764 27.8931 32.945 28.1383C33.2991 26.7896 33.5014 25.9314 33.7543 25.0732C33.6531 24.9506 33.552 24.828 33.4508 24.7054C31.7817 26.667 30.3148 28.9965 28.3928 30.4678C26.673 31.8165 24.4475 32.123 22.3231 32.9812C22.0702 31.8778 21.7667 30.5904 21.4632 29.4256C18.5801 28.8739 19.2882 32.0617 18.4284 33.5329C17.4168 35.2494 16.8098 37.2724 16.0511 39.1728C15.8488 39.1115 15.6464 39.0502 15.4441 38.9889C15.697 37.4563 15.8993 35.985 16.1522 34.4525C15.7982 34.3912 15.4441 34.3299 15.1406 34.2686C14.8877 36.6594 14.5842 38.9889 14.4831 41.3797C14.4325 43.2188 14.2302 44.5061 12.1564 43.464C12.561 40.5214 13.0162 37.5789 13.5726 33.8394C7.80642 36.5368 6.13728 29.1191 1.83792 27.6479C2.84954 25.3184 2.24256 23.6019 0.725142 21.6402C-0.23589 20.4142 -0.0335862 17.9007 0.168736 15.6938C0.623962 16.6134 1.12979 17.5329 1.83792 18.9429C2.90012 16.1843 3.86112 13.7935 4.721 11.3414C5.58087 8.95055 7.19945 8.21493 9.12152 7.90842C11.1953 7.60191 13.2691 7.23407 15.3429 6.74365C17.265 6.25323 18.226 6.74367 18.0743 9.44099C17.9731 11.1575 18.2766 12.8739 18.3778 14.7743C17.3662 15.0195 16.4051 15.2647 15.3935 15.5099C15.5453 19.7398 18.1755 18.4525 20.5022 18.5751C18.833 20.9046 19.1871 22.4984 21.3115 23.9697C21.8173 20.9659 22.2725 18.146 22.7783 15.1421C25.0038 15.6939 25.4591 13.9774 25.2062 11.3414C23.1324 11.0961 23.0312 9.31838 23.1829 7.23409C23.3853 5.14979 23.9922 3.67852 25.9649 3.98503C27.5329 4.23024 29.1515 4.53677 30.5677 5.1498C35.8281 7.5406 40.3804 5.70151 44.1739 1.28772C45.8937 -0.673968 46.7029 -0.367447 47.3099 2.02336C47.9169 4.04635 48.2709 6.37584 48.8273 9.19576ZM13.3703 24.4601C12.9151 26.8509 12.561 28.8126 12.207 30.7743C15.2924 32.3069 15.2924 32.3069 18.3272 28.8126C15.4947 28.8739 16.5569 23.4793 13.3703 24.4601ZM7.50293 14.8969C7.50293 15.2647 7.50293 15.5712 7.50293 15.9391C10.4366 18.8816 12.5104 18.5751 13.5726 14.5291C11.3976 14.6517 9.47558 14.7743 7.50293 14.8969Z" transform="translate(32.1016 102.961)" fill="white"/>
<path d="M12.7463 18.9293C12.6957 18.3163 12.6452 17.7033 12.5946 17.1515C11.1783 16.7837 9.81265 16.4159 9.1551 16.232C8.24465 16.9676 7.33422 18.0098 7.03074 17.8259C6.22145 17.2742 5.26038 16.232 5.15921 15.3125C4.85573 12.4925 4.85574 9.55002 4.85574 6.73009C4.85574 4.46189 4.29938 3.23584 2.22557 3.72627C1.71977 3.84887 1.06221 3.41975 1.23488e-05 3.05193C4.75459 1.58067 6.32258 2.37761 8.14349 6.48489C8.59871 7.46573 9.30687 8.26266 10.0656 9.42741C11.2795 6.42358 11.8865 6.73009 13.3533 8.81438C15.0731 11.2665 16.4893 13.4734 16.3375 16.7837C16.3375 17.1515 16.5904 17.8872 16.8433 17.9485C19.4229 18.9293 21.952 20.0328 24.5822 20.7071C26.656 21.1975 28.7298 19.1132 29.4885 16.6611C30.0955 14.822 29.6402 13.4121 28.224 13.0443C25.8973 12.4312 23.4694 12.0021 21.0921 12.1247C19.3218 12.2473 18.9172 11.7569 19.3218 9.85653C19.5747 8.75309 20.0805 7.71093 20.0805 6.66879C20.0805 1.45806 23.5706 -1.05536 28.9321 0.415906C32.0681 1.27414 35.3053 1.82587 38.4413 2.62281C42.0325 3.48104 42.336 4.4619 43.4994 8.63048C45.118 14.3929 45.4215 20.278 45.472 26.2243C45.472 27.2052 45.9778 28.186 46.2307 29.2282C46.5342 29.1669 46.7871 29.1056 47.0906 29.0443C46.9388 27.4504 46.7871 25.8565 46.5848 23.7109C49.1644 27.5117 47.5458 32.5998 44.9662 34.9293C42.5889 37.0749 40.0093 35.8489 37.7332 37.1362C37.2779 37.3814 35.9629 36.6458 35.9123 36.278C35.5582 31.5577 32.0681 32.845 29.9943 31.8642C28.224 31.006 26.049 31.7416 24.0764 31.3125C23.1659 31.1286 22.2049 30.1477 21.6485 29.1669C20.1817 26.4083 18.8666 23.4657 17.4503 20.4006C16.2364 19.9102 14.6178 19.481 12.7463 18.9293ZM36.064 13.8412C35.8111 13.8412 35.5582 13.7799 35.3053 13.8412C33.9396 14.2703 32.5739 14.6994 31.2083 15.1286C31.967 16.845 32.5234 18.8067 33.5856 20.1554C36.0135 23.2818 38.846 21.6266 41.4761 20.4006C43.1453 19.6037 43.2464 18.255 42.336 16.5385C40.8186 13.596 38.4413 13.7186 36.064 13.8412ZM26.656 24.8757C27.0101 24.0788 27.2629 23.527 27.4653 23.0366C25.4926 24.324 25.5938 26.347 26.4031 28.1247C26.8077 28.983 28.0217 29.9025 28.7298 29.7799C30.1966 29.596 31.5623 28.6764 33.0291 28.0634C32.6751 27.2665 32.4222 25.9791 31.967 25.7952C30.2978 25.3048 28.5275 25.1822 26.656 24.8757Z" transform="translate(316.18 87.2195)" fill="white"/>
<path d="M0.505831 4.35249C0.354089 4.10728 0.151767 3.80076 2.46976e-05 3.55555C0.0506054 2.3908 0.101149 1.16475 0.15173 0C1.0116 0.183908 1.87147 0.245214 2.68076 0.674333C3.43947 1.04215 4.24875 1.59386 4.75456 2.32949C6.77778 5.02681 8.59874 8.39847 12.1394 4.96552C11.2795 5.70115 10.4196 6.43678 8.95278 7.66284C12.1899 10.4215 15.1742 12.9349 18.2596 15.5096C15.4271 16.2452 15.3765 18.3908 16.0341 21.1494C16.3881 22.7433 16.2364 24.4598 16.3375 26.1763C15.2248 26.4828 13.9603 26.8506 13.2521 27.0345C12.3923 29.6092 11.583 31.8774 10.5208 35.0038C9.50915 32.9808 8.90221 31.6935 8.1435 30.1609C7.28363 30.774 5.96854 31.7548 4.55228 32.7969C3.69241 30.7126 3.5912 28.9962 3.99585 26.4214C5.10862 18.636 5.8168 10.6667 0.505831 4.35249Z" transform="translate(319.923 123.927)" fill="white"/>
<path d="M49.4173 -7.48324e-06C50.4289 -7.48324e-06 51.2382 -7.48324e-06 52.1993 -7.48324e-06C51.2382 4.59769 51.8958 8.95019 53.7673 12.9349C54.1719 13.7318 55.2847 14.59 56.0434 14.5287C59.3817 14.4061 62.72 13.977 66.0583 13.7318C67.1711 13.6092 68.3345 13.2414 69.2955 13.6705C70.3071 14.0996 71.1164 15.3257 72.0269 16.2452C71.2176 16.7969 70.4589 17.7778 69.6496 17.7778C66.2607 17.7778 62.8717 17.2874 59.4828 17.3487C57.1055 17.3487 54.7283 17.9617 52.351 18.2682C51.4405 18.3908 50.5301 18.3295 49.569 18.2682C44.0052 17.9004 38.4413 17.2874 32.8774 17.2261C29.185 17.1647 25.4421 16.2452 21.8509 18.4521C20.9404 19.0038 19.2206 18.9425 18.4619 18.2682C15.5788 15.6935 12.544 17.41 9.55974 17.2261C7.08129 17.1034 4.60283 17.6552 2.12438 17.7165C1.41625 17.7165 0.708117 16.7969 -1.23488e-05 16.3065C0.758698 15.4483 1.46684 13.8544 2.22555 13.7931C4.704 13.7318 7.18245 14.4061 9.71148 14.59C12.1394 14.774 14.5672 14.7126 16.9951 14.59C17.3491 14.59 17.8044 13.6092 18.0067 13.0575C18.7148 10.3602 19.2712 7.60153 19.9793 4.90421C20.1817 4.16857 20.6875 3.55556 21.0922 2.88123C21.4462 3.61686 21.8508 4.29119 22.0531 5.02682C22.7107 7.72414 23.1659 10.5441 23.9752 13.1801C24.1776 13.9157 25.2903 14.7126 25.9985 14.7126C32.5739 14.8352 39.1494 14.7739 45.6743 14.7126C46.2813 14.7126 47.2423 14.2835 47.4952 13.7318C49.3667 9.44062 50.3784 5.08812 49.4173 -7.48324e-06ZM52.5027 14.8966C51.8958 12.9349 51.3394 11.2797 50.7324 9.2567C50.0749 11.2797 49.5184 12.9962 48.8609 14.8966C50.1254 14.8966 51.1371 14.8966 52.5027 14.8966ZM22.306 14.5287C21.7497 12.6897 21.2944 11.2184 20.7886 9.50191C20.2828 11.341 19.8782 12.8736 19.423 14.5287C20.4852 14.5287 21.2944 14.5287 22.306 14.5287Z" transform="translate(219.925 98.0571)" fill="white"/>
<path d="M15.9941 2.09025C13.6168 6.19753 14.1732 10.7952 14.4767 15.3316C14.5778 16.619 14.6284 17.9676 14.4261 19.1937C14.3249 19.8067 13.6168 20.6037 13.111 20.665C12.7064 20.7263 11.9477 19.9906 11.7454 19.3776C10.8349 16.9868 10.0762 14.5347 8.96341 12.1439C9.36806 14.4734 9.9244 16.7416 10.1773 19.1324C10.2785 20.3584 9.87382 21.6458 9.67149 22.8718C8.3564 22.2588 5.82738 21.278 5.82738 21.0941C6.38376 18.2742 4.05708 17.845 3.19721 16.4351C1.52804 13.7377 0.314084 11.1017 0.0106003 7.73007C-0.191722 5.33927 2.53966 0.312468 4.71463 0.12856C7.85063 -0.177954 11.0372 0.128537 14.1732 0.373748C14.8307 0.435051 15.3871 1.47723 15.9941 2.09025C15.9941 2.15156 15.9941 2.09025 15.9941 2.09025Z" transform="translate(264.172 263.998)" fill="white"/>
<path d="M21.8508 1.84619C18.9677 6.50519 17.3998 11.7772 16.2364 17.3558C16.0341 18.4592 14.5166 19.8079 13.5556 19.8079C11.583 19.8692 9.50916 19.3175 7.58709 18.7044C6.12025 18.214 4.80517 16.988 3.33834 16.6201C0.758722 15.8845 -0.252916 13.6776 1.16334 10.7964C1.66915 11.2868 2.12439 11.7159 2.63019 12.2063C2.83252 11.9611 2.98425 11.7159 3.18657 11.4707C2.12438 10.3673 1.06219 9.26383 -6.1744e-06 8.16038C-6.1744e-06 7.85386 -6.1744e-06 7.54735 -6.1744e-06 7.24084C1.21393 7.36344 2.52902 7.17952 3.69238 7.60864C6.12025 8.52818 8.64929 7.24083 9.45858 4.42091C10.8748 -0.483306 15.7306 -1.52546 18.6643 2.39791C18.8666 2.70442 19.0183 3.13354 19.0689 3.31745C20.2323 2.70442 21.0415 2.27531 21.9014 1.84619C21.9014 1.96879 21.8508 1.84619 21.8508 1.84619ZM10.1161 8.83469C13.6568 12.6968 16.0341 12.0224 16.9951 6.99561C14.719 7.60864 12.6957 8.16036 10.1161 8.83469Z" transform="translate(129.992 92.9006)" fill="white"/>
<path d="M5.57175 7.49055C4.96478 7.24534 4.25663 7.18403 3.75082 6.75491C2.89095 6.01928 2.18282 5.09973 1.37353 4.24149C2.2334 3.13805 3.04271 1.29897 3.95316 1.17636C9.16297 0.563334 14.4233 0.318127 19.6837 0.0116131C20.493 -0.0496895 21.4035 0.13423 22.1116 0.502046C22.6174 0.808559 23.1232 1.60549 23.2244 2.27982C23.275 2.64764 22.5163 3.26067 22.061 3.56718C19.5826 5.03844 17.1547 6.63231 14.6257 7.85837C13.4623 8.41009 11.9955 8.10358 10.6804 8.16488C9.97225 8.22618 9.26412 8.22617 8.55599 8.22617C9.06179 8.9618 9.56761 9.75874 10.1746 10.4331C10.4275 10.6783 10.9333 10.617 11.692 10.8009C11.1862 12.3948 10.7815 13.7434 10.3263 15.276C7.29147 13.5595 4.91419 13.8047 2.84038 16.8085C1.77818 18.3411 0.715978 17.8507 0.361913 15.8277C0.159591 14.7243 -0.0427072 13.6208 0.00787347 12.5174C0.109035 10.617 0.513656 9.14572 2.63804 9.63614C3.59908 9.88135 4.71187 9.14571 5.72348 8.8392C5.72348 8.41008 5.67291 7.91967 5.57175 7.49055Z" transform="translate(20.5278 95.9612)" fill="white"/>
<path d="M-1.23488e-05 17.1508C0.606956 15.8022 1.26452 14.5148 1.82091 13.1662C2.02323 12.6145 2.22555 11.511 1.97265 11.2658C0.606968 9.67192 1.61859 8.75237 2.57962 8.01673C5.86736 5.56463 9.15511 3.17383 12.4428 0.783026C15.1742 -1.17866 18.1079 0.721727 18.4619 4.52249C18.6137 5.99376 18.7654 7.46501 18.9677 9.24279C12.9992 12.0014 6.87898 14.8826 0.809297 17.7026C0.505813 17.5187 0.252891 17.3348 -1.23488e-05 17.1508Z" transform="translate(158.469 105.979)" fill="white"/>
<path d="M6.27282 19.4406C5.86817 18.5824 5.5647 17.9081 5.10947 16.8046C4.85657 17.9081 4.70481 18.5824 4.55307 19.318C1.16416 15.9464 -0.859058 8.16092 0.354877 3.37931C1.01243 0.804598 3.23797 -0.298866 6.17165 0.0689506C8.54894 0.375464 9.25707 1.96936 9.20649 4.54408C9.15591 7.91572 8.75128 11.3487 9.25709 14.659C9.71232 17.8468 8.39721 18.5824 6.27282 19.4406Z" transform="translate(155.181 286.065)" fill="white"/>
<path d="M6.98456 3.37165C7.79385 4.29119 8.50199 5.33333 9.36186 6.06896C11.031 7.41762 12.9531 8.33716 14.3693 9.99233C15.0269 10.7893 15.0269 12.9349 14.7234 14.2835C14.6222 14.8352 13.0542 15.1418 12.0932 15.2644C8.50197 15.8774 6.42817 13.1188 4.45553 10.1762C4.0003 9.50192 3.19101 8.88889 2.58404 8.88889C0.307909 8.82759 -0.0461438 7.23372 0.0044369 5.02683C0.0550176 3.37166 0.0549929 1.65517 0.105574 0C1.37009 0.183908 2.68521 0.367812 3.94972 0.55172C4.45553 0.613023 4.96134 0.551717 5.46714 0.490414C6.98456 0.122598 7.74327 0.796935 6.98456 3.37165Z" transform="translate(123.463 110.747)" fill="white"/>
<path d="M5.50065 0.245196C5.65239 0.980828 5.90529 1.71647 6.00645 2.5134C6.51226 7.35631 7.06864 12.1379 7.42271 16.9809C7.47329 17.9004 6.86634 19.4329 6.20879 19.8008C4.48905 20.8429 2.66812 20.9042 1.10012 18.9425C-0.417297 16.9808 -0.265548 15.3257 0.948387 12.9962C2.06116 10.8506 2.2635 8.03066 2.92105 5.51725C3.42685 3.67817 3.98323 1.83909 4.48903 7.48324e-06C4.8431 0.122613 5.14658 0.183893 5.50065 0.245196Z" transform="translate(131.674 210.486)" fill="white"/>
<path d="M8.01789 7.84676C7.71441 7.29503 7.41092 6.68198 7.15802 6.13025C9.48473 5.94634 11.862 5.76244 14.1381 5.63984C11.9126 8.52106 9.63646 11.2184 7.56265 14.1609C6.3993 15.8161 5.59002 15.6935 4.62898 14.0383C3.87027 12.8123 3.21272 11.5249 2.35285 10.4214C-0.0750187 7.47891 -0.32791 3.92336 0.279058 -1.49665e-05C1.08835 5.0268 5.23596 5.45595 8.01789 7.84676Z" transform="translate(203.106 151.574)" fill="white"/>
<path d="M7.03072 12.3831C7.63769 12.0766 8.39638 11.7088 9.15509 11.341C6.82838 14.59 8.34582 18.4521 7.53653 21.8851C5.5133 21.3333 3.84414 20.9042 3.49008 17.5326C2.98427 12.8123 1.77031 8.27587 0.809278 3.61687C0.606956 2.57472 0.303484 1.53257 0 0.429119C0.252903 0.306513 0.455238 0.122598 0.708142 -7.48324e-06C2.78195 4.10727 4.90634 8.15326 7.03072 12.3831Z" transform="translate(122 208.402)" fill="white"/>
<path d="M1.23488e-05 6.13522C0.202335 5.39959 0.20231 4.29615 0.606956 3.92834C2.22554 2.57968 3.84412 1.0471 5.66502 0.311464C8.19405 -0.730682 9.25626 0.924476 8.64929 4.05091C8.34581 5.64478 8.19407 7.36127 8.49756 8.89384C9.1551 12.5107 10.1161 16.005 11.1278 20.3574C8.95279 16.005 5.56386 13.369 5.66502 8.21952C5.7156 6.25784 3.59123 4.84787 1.92207 5.6448C1.51743 5.82871 1.11279 6.25783 0.758722 6.56434C0.455238 6.44174 0.202335 6.25782 1.23488e-05 6.13522Z" transform="translate(20.2827 295.263)" fill="white"/>
<path d="M-1.23488e-05 0.0661919C1.97263 0.0661919 3.38889 -0.117694 4.80515 0.127517C7.33418 0.495333 9.86323 1.10837 12.3417 1.7827C12.544 1.844 12.6958 4.1735 12.2911 4.54132C11.4818 5.27695 10.3185 5.39955 9.25627 5.64476C7.99176 6.01258 6.67667 6.50299 5.41215 6.44169C4.29938 6.38038 2.93368 6.07389 2.22555 5.15435C1.21394 3.86699 0.809278 1.96658 -1.23488e-05 0.0661919Z" transform="translate(247.491 169.899)" fill="white"/>
<path d="M-1.23488e-05 2.73487C3.79354 3.3479 6.62609 3.83832 9.45861 4.26744C9.50919 3.89962 9.55973 3.53182 9.61031 3.164C7.48593 0.0375632 4.45109 0.957096 1.2645 1.20231C3.8947 -0.636774 9.50914 -0.330256 11.1783 1.87664C11.937 2.85748 12.544 4.81917 12.2405 5.86131C11.9371 6.84216 10.2679 7.94561 9.30684 7.82301C6.72723 7.45519 4.14764 6.59695 1.61861 5.67741C0.961057 5.49351 0.657536 4.02223 -1.23488e-05 2.73487Z" transform="translate(339.042 121.069)" fill="white"/>
<path d="M-2.46976e-05 0.897132C2.83249 -1.12586 5.66505 0.406703 6.17085 4.14617C6.27201 5.06571 6.67663 5.86263 6.7778 6.78217C6.87896 7.57911 6.82841 9.11169 6.62609 9.17299C5.8168 9.4182 4.60285 9.5408 4.14763 9.05038C3.03485 7.76303 2.17498 6.10785 1.36569 4.45268C0.809303 3.34923 0.455201 2.06188 -2.46976e-05 0.897132C-2.46976e-05 0.83583 -2.46976e-05 0.897132 -2.46976e-05 0.897132Z" transform="translate(280.167 265.252)" fill="white"/>
<path d="M6.22143 0.992926C5.15923 4.36457 4.34994 7.491 3.18659 10.3722C2.52904 11.9661 1.26453 13.1922 1.23488e-05 14.3569C1.21395 10.4335 1.41626 6.57146 1.3151 2.58678C1.26452 0.7477 2.47845 -0.29443 4.09703 0.0733858C4.80516 0.195991 5.46272 0.62511 6.22143 0.992926Z" transform="translate(116.133 290.597)" fill="white"/>
<path d="M2.02323 25.318C1.46684 24.5824 0.505807 23.8467 0.505807 23.0498C0.252903 15.7548 0.151742 8.45976 0 1.16474C0 0.796927 0.101155 0.429119 0.151736 0.0613027C0.404639 0.0613027 0.657561 1.49665e-05 0.961045 1.49665e-05C1.31511 3.98469 1.71975 7.96935 1.97266 12.0153C2.22556 16.1226 2.37729 20.2912 2.52903 24.4598C2.32671 24.7663 2.17497 25.0115 2.02323 25.318Z" transform="translate(105.056 226.548)" fill="white"/>
<path d="M3.44079 14.774C2.73266 13.977 1.61989 13.364 1.41757 12.3831C0.760017 9.25671 0.203636 6.06898 0.00131304 2.81994C-0.0492676 1.9617 1.367 0.980835 2.12571 -7.48324e-06C2.32803 0.183901 2.58093 0.367824 2.78325 0.551732C3.03615 2.75863 3.99719 5.33334 3.28906 6.98851C2.22686 9.50192 1.367 11.0958 3.9972 12.567C4.14894 12.6283 3.9972 13.4866 3.9972 13.977C3.89604 14.2835 3.69369 14.5288 3.44079 14.774Z" transform="translate(30.853 295.452)" fill="white"/>
<path d="M15.6294 1.29311C10.015 3.68392 5.05807 5.76819 6.1744e-06 7.97508C0.657555 6.93294 1.3151 4.84864 2.42787 4.29692C6.22142 2.58045 10.2173 1.35441 14.1626 0.00575087C14.3649 -0.0555518 14.6684 0.373571 15.6294 1.29311Z" transform="translate(10.3184 139.308)" fill="white"/>
<path d="M5.27303 7.04982C4.36258 9.99234 1.83356 9.01149 0.0126575 9.0728C0.0126575 6.37548 -0.0379355 3.86206 0.0632258 1.34866C0.0632258 0.858234 0.518446 0.429126 0.720768 7.48324e-06C1.17599 0.429126 1.6818 0.73564 1.98528 1.22606C3.04748 3.00384 4.05909 4.84292 5.27303 7.04982Z" transform="translate(169.23 123.13)" fill="white"/>
<path d="M0.404651 6.62069C0.252909 4.78161 0.151754 2.94252 1.23488e-05 0.674322C1.97266 0.429111 3.89471 0.245218 5.86736 7.48324e-06C5.66503 1.90039 5.46272 3.31036 5.31098 5.02684C3.9453 5.45595 2.27614 6.00766 0.404651 6.62069Z" transform="translate(126.755 235.314)" fill="white"/>
<path d="M2.02324 9.74714C1.31511 6.80461 0.708142 4.16858 1.23488e-05 1.10344C1.06221 0.735625 2.12439 0.367816 3.18659 0C3.18659 2.02299 3.18659 3.73945 3.18659 6.19156C4.09704 5.27202 4.50167 4.65899 5.00748 4.35248C5.41212 4.10727 6.01909 4.2912 6.5249 4.2299C6.37316 4.84293 6.37318 5.63984 6.06969 6.00766C4.90634 7.23371 3.6924 8.27588 2.02324 9.74714Z" transform="translate(127.261 206.992)" fill="white"/>
<path d="M2.66952 4.29119C5.29972 3.00383 7.87935 1.71648 11.3188 0C10.4084 1.47126 10.0037 2.57471 9.29561 3.06513C6.66541 5.02682 3.88346 6.86591 1.1521 8.64368C0.848619 8.82759 0.443986 8.82759 0.0899212 8.88889C0.0899212 8.39847 -0.112401 7.66284 0.0899212 7.35632C0.899212 6.25287 1.86024 5.21072 2.77069 4.16858C2.72011 4.22988 2.66952 4.29119 2.66952 4.29119Z" transform="translate(181.09 99.7122)" fill="white"/>
<path d="M3.03483 0C4.14761 2.88123 5.2098 5.70115 6.32258 8.58238C6.17083 8.70498 6.0191 8.82757 5.91794 8.95018C5.05807 8.21454 4.24877 7.47893 2.78193 6.25288C3.54064 7.90805 3.9453 8.76628 4.34995 9.68582C4.24879 9.80842 4.14761 9.93105 4.04645 10.0537C2.68077 8.58239 1.26451 7.17243 -6.1744e-06 5.76247C1.31509 3.37166 2.17496 1.71648 3.03483 0C3.03483 0 3.03483 0.0613027 3.03483 0Z" transform="translate(52.8569 145.076)" fill="white"/>
<path d="M0.861997 12.0766C0.558513 11.1571 0.20446 10.6667 0.305622 10.4827C1.97478 7.72412 0.103311 5.27205 0.0021501 2.69733C-0.0484306 1.8391 0.811422 0.858238 1.21607 0C1.72187 0.796935 2.63233 1.53258 2.73349 2.39082C2.98639 5.63986 3.28987 9.0115 0.861997 12.0766Z" transform="translate(112.337 292.509)" fill="white"/>
<path d="M0.303459 3.67816C2.37727 3.67816 4.45112 3.92336 6.42377 3.61685C8.49757 3.24903 8.54813 2.81992 7.78942 -3.74162e-06C8.64929 0.735628 9.66092 1.22605 10.2679 2.2069C10.6725 2.81992 10.7231 4.35248 10.369 4.8429C9.9138 5.51723 8.85161 5.82375 8.04232 5.82375C6.0191 5.88505 3.99587 5.82375 1.97265 5.57854C1.3151 5.51724 0.657536 4.84292 -1.23488e-05 4.4138C0.15173 4.22989 0.202298 3.92337 0.303459 3.67816Z" transform="translate(368.885 112.831)" fill="white"/>
<path d="M9.81266 1.65517C6.87898 2.51341 3.9453 3.37165 0.961045 4.10728C0.708141 4.16858 0 3.43297 0 3.12645C0 2.57473 0.354077 1.59386 0.708141 1.53256C3.64182 0.919533 6.57548 0.490414 9.50916 -7.48324e-06C9.61032 0.551717 9.7115 1.10345 9.81266 1.65517Z" transform="translate(127.564 244.877)" fill="white"/>
<path d="M1.41626 1.22606C3.23716 0.796942 5.00749 0.429126 6.8284 7.48324e-06C7.73885 2.63602 4.90633 5.08813 6.1744e-06 5.45594C0.556393 3.86207 1.06219 2.4521 1.56799 1.04214C1.56799 1.10344 1.41626 1.22606 1.41626 1.22606Z" transform="translate(106.928 131.099)" fill="black"/>
<path d="M0 -7.48324e-06C3.89471 0.306506 6.92954 0.551724 10.015 0.735632C9.96438 1.40996 9.96438 1.59388 9.9138 1.59388C7.08128 1.9617 4.24877 2.45209 1.41625 2.636C1.11277 2.636 0.708129 1.28735 0 -7.48324e-06Z" transform="translate(63.0742 142.195)" fill="white"/>
<path d="M6.28663 3.74162e-06C4.56688 2.39081 2.99888 4.4751 1.3803 6.68199C-0.794672 2.57471 -0.491201 1.53256 2.94828 0.735625C4.01048 0.490414 5.02211 0.245214 6.28663 3.74162e-06Z" transform="translate(50.667 94.563)" fill="white"/>
<path d="M0.048222 1.49665e-05C1.4139 0.490436 2.57723 0.858238 3.69 1.28736C3.08304 2.3908 2.47611 3.43294 1.76798 4.72029C2.07146 4.9655 2.62781 5.39465 3.1842 5.82377C3.13362 6.06898 3.08306 6.31416 3.08306 6.55937C2.07145 6.43677 1.00923 6.55938 0.149359 6.06896C-0.154125 5.88505 0.0987903 4.2912 0.0987903 3.37166C0.0482097 2.51343 0.048222 1.59388 0.048222 1.49665e-05Z" transform="translate(272.632 176.279)" fill="white"/>
<path d="M-1.23488e-05 2.05293C5.05805 -1.87045 9.91383 1.25598 14.5167 0.0912332C14.5167 0.459049 14.5672 0.826862 14.5672 1.25598C9.91382 1.50119 5.26038 1.74641 -1.23488e-05 2.05293Z" transform="translate(304.142 116.112)" fill="white"/>
<path d="M3.74297 5.57855C0.404645 6.25288 0.505794 3.24903 -1.23488e-05 -1.49665e-05C1.66915 0.674315 3.18658 0.858223 4.24877 1.83907C4.65342 2.20688 3.89472 4.2912 3.6924 5.57855H3.74297Z" transform="translate(263.171 171.191)" fill="white"/>
<path d="M6.1744e-06 2.88122C3.49007 1.90038 6.98014 0.980828 10.4702 -1.49665e-05C10.5208 0.306498 10.5714 0.613012 10.6219 0.919525C7.38478 3.49424 3.9453 4.659 6.1744e-06 2.88122Z" transform="translate(129.689 200.31)" fill="white"/>
<path d="M-6.1744e-06 0.0272307C0.151736 0.0272307 0.30349 -0.034072 0.455232 0.0272307C1.3151 0.517652 2.57961 0.824188 2.8831 1.62112C3.74297 3.95062 6.57548 5.23796 5.56387 9.22263C3.54064 5.78968 1.77032 2.90846 -6.1744e-06 0.0272307C-6.1744e-06 0.0272307 -6.1744e-06 -0.034072 -6.1744e-06 0.0272307Z" transform="translate(55.8916 145.11)" fill="white"/>
<path d="M6.67663 1.77778C5.15921 2.88123 3.59122 3.98467 1.97264 5.14942C1.26451 3.73946 0.708142 2.75864 1.23488e-05 1.40998C1.26453 0.919555 2.42787 0.490406 3.84413 -1.49665e-05C3.69239 0.858222 3.59123 1.28737 3.43949 2.023C4.4511 1.59388 5.31098 1.22605 6.22143 0.858237C6.37317 1.16475 6.52489 1.47126 6.67663 1.77778Z" transform="translate(76.9331 153.413)" fill="white"/>
<path d="M11.9876 1.28735C7.99174 1.04214 3.99586 0.796942 -1.23488e-05 0.613034C-1.23488e-05 0.429126 -1.23488e-05 0.183916 -1.23488e-05 7.48324e-06C4.04644 7.48324e-06 8.04232 7.48324e-06 12.0888 7.48324e-06C12.0888 0.367824 12.0382 0.85823 11.9876 1.28735Z" transform="translate(192.864 117)" fill="white"/>
<path d="M2.27614 5.88506C1.46685 4.78162 0.758722 3.92336 1.23488e-05 2.88122C2.07382 1.96168 4.09706 1.10345 6.52493 3.74162e-06C4.95693 2.2069 3.74298 3.92338 2.27614 5.88506Z" transform="translate(342.735 136.862)" fill="white"/>
<path d="M2.02325 0.0272382C4.45112 3.52149 4.19822 4.99278 0.758735 5.91232C1.16338 5.17669 1.41623 4.68625 1.71972 4.13453C1.21391 3.70541 0.657573 3.33761 2.46976e-05 2.84718C0.758735 1.80504 1.41627 0.946779 2.07382 0.0272382C2.1244 -0.0340645 2.02325 0.0272382 2.02325 0.0272382Z" transform="translate(264.79 176.804)" fill="white"/>
<path d="M4.4511 2.64964C3.28774 3.26267 2.52904 3.9983 2.27614 3.81439C1.41626 3.01745 0.708135 1.9753 6.1744e-06 0.994461C0.404651 0.626644 1.0116 -0.108992 1.21392 0.0136138C2.17496 0.565338 3.03484 1.42359 4.4511 2.64964Z" transform="translate(33.0796 136.664)" fill="white"/>
<path d="M6.1744e-06 1.22605C2.32672 0.735625 4.04646 0.367809 5.81678 -7.48324e-06C5.86736 0.306506 5.91794 0.613019 5.96852 0.919533C4.34994 2.08428 2.8831 4.04597 6.1744e-06 1.22605Z" transform="translate(14.1118 145.567)" fill="white"/>
<path d="M1.23488e-05 1.44559C2.73137 -0.6387 4.40049 -0.516091 6.2214 2.11992C3.99585 1.87471 2.07382 1.6908 1.23488e-05 1.44559Z" transform="translate(306.822 89.4392)" fill="white"/>
<path d="M1.61859 -7.48324e-06C2.27614 0.429111 2.8831 0.858241 4.14762 1.71648C2.78194 2.94253 1.77034 3.86208 0.708142 4.84292C0.455238 4.59771 0.252903 4.35249 0 4.10728C0.556387 2.69732 1.11278 1.34865 1.61859 -7.48324e-06Z" transform="translate(164.235 128.708)" fill="white"/>
<path d="M1.23488e-05 1.19076C3.59124 -0.587013 4.19818 -0.464404 5.41212 2.17161C3.38889 1.8038 1.71975 1.49728 1.23488e-05 1.19076Z" transform="translate(199.338 89.9392)" fill="white"/>
<path d="M6.22141 -7.48324e-06C5.4627 0.613019 4.75459 1.28735 3.99588 1.83907C2.52905 2.88122 1.3151 2.4521 0 0.367812C2.37729 0.245207 4.29935 0.122598 6.22141 -7.48324e-06C6.22141 -7.48324e-06 6.17083 -7.48324e-06 6.22141 -7.48324e-06Z" transform="translate(159.683 128.708)" fill="white"/>
<path d="M0.404639 -3.74162e-06C1.92206 0.735629 3.49008 1.47126 5.0075 2.14559C4.90634 2.4521 4.85576 2.69731 4.75459 3.00382C3.33834 1.90038 1.06219 3.55555 0 1.22605C0.151742 0.858234 0.252897 0.429115 0.404639 -3.74162e-06Z" transform="translate(98.4805 121.72)" fill="white"/>
<path d="M0.0954933 0C1.25885 2.08429 2.16931 3.73946 3.07976 5.39463C0.550732 4.90421 -0.309152 3.61686 0.0954933 0Z" transform="translate(258.068 208.218)" fill="white"/>
<path d="M1.46683 8.70497C0.96102 5.88505 0.455201 3.06513 -2.46976e-05 0.245211C0.303459 0.183908 0.657536 0.0612877 0.96102 -1.49665e-05C1.36567 2.81991 1.71975 5.70115 2.1244 8.52107C1.92208 8.58238 1.66915 8.64367 1.46683 8.70497Z" transform="translate(269.039 172.724)" fill="white"/>
<path d="M-6.1744e-06 3.01747C0.151736 2.03663 0.151736 0.994473 0.5058 0.136236C0.606962 -0.170278 1.61859 0.136236 2.22556 0.136236C1.92207 1.23968 1.61857 2.34312 1.26451 3.38527C0.859865 3.32397 0.404639 3.14007 -6.1744e-06 3.01747Z" transform="translate(138.085 302.611)" fill="white"/>
<path d="M6.12024 0.735625C4.09701 0.735625 2.02321 0.735625 -1.23488e-05 0.735625C-1.23488e-05 0.490414 -1.23488e-05 0.245214 -1.23488e-05 3.74162e-06C2.02321 3.74162e-06 4.09701 3.74162e-06 6.12024 3.74162e-06C6.12024 0.306517 6.12024 0.551717 6.12024 0.735625Z" transform="translate(305.659 112.954)" fill="white"/>
<path d="M0 -7.48324e-06C1.97265 -7.48324e-06 3.23717 -7.48324e-06 4.50169 -7.48324e-06C3.9453 2.4521 3.08542 2.57471 0 -7.48324e-06Z" transform="translate(263.879 204.111)" fill="white"/>
<path d="M0.0505807 27.1784C1.06219 26.2588 2.02324 25.2167 3.03485 24.3584C11.4312 17.6151 20.3334 12.0366 30.1461 9.03276C34.7995 7.6228 39.5035 6.64196 44.4098 5.41591C44.3086 2.77989 44.6121 -0.285236 47.647 0.0212775C48.6586 0.143883 49.4679 2.84119 50.783 5.10939C57.1562 5.59981 64.4903 6.09024 71.8751 6.64196C80.8785 9.7684 89.6289 13.7531 97.6712 19.6381C100.453 21.6611 103.033 23.9906 106.118 26.5653C105.157 26.9331 104.702 27.2397 104.297 27.2397C69.8519 27.301 35.4065 27.3623 0.961026 27.4236C0.657542 27.4236 0.354077 27.1784 1.23488e-05 27.1171C0.050593 27.0557 0.0505807 27.1784 0.0505807 27.1784Z" transform="translate(202.879 11.5376)" fill="white"/>
<path d="M20.5398 19.7128C19.4776 17.322 18.2131 15.0538 17.4544 12.5404C16.5439 9.53656 15.7852 8.92353 13.4585 10.3948C11.1824 11.8661 9.0074 13.9504 6.27605 11.5595C6.07372 11.3756 4.91038 12.2952 4.70806 12.9082C3.94935 15.299 3.49411 17.8737 2.63423 20.2645C2.43191 20.8776 1.16741 20.9389 0.0546333 21.368C0.0546333 16.9542 -0.097121 13.3373 0.105202 9.78177C0.256944 6.16491 2.48251 4.38714 4.70806 2.18024C4.80922 3.77411 4.85978 4.75495 4.91036 5.73579C5.66907 5.24537 6.47836 4.93886 7.18649 4.32584C7.79346 3.77411 8.29927 3.09979 8.70391 2.30286C10.3225 -0.639673 13.5091 -0.762282 15.4311 1.93504C16.0381 2.79327 16.8474 3.71281 17.7073 4.08063C20.4892 5.30668 22.2595 7.75879 22.209 11.1304C22.1584 13.8278 21.6526 16.4638 21.3491 19.0998C21.0962 19.4063 20.7927 19.5289 20.5398 19.7128Z" transform="translate(96.7568 83.126)" fill="black"/>
<path d="M9.45857 21.8238C9.66089 23.0498 9.91382 24.0307 10.015 25.0728C10.015 25.1954 9.15511 25.7471 9.00336 25.5632C8.19407 24.7663 7.28363 23.9693 6.8284 22.9272C5.91795 20.9042 5.26038 18.6973 4.50167 16.5517C4.45109 16.3678 4.24879 16.1839 4.29937 16C5.31098 11.2797 2.57963 11.1571 1.23488e-05 11.0958C0.404658 9.0728 0.708117 7.29503 1.11276 5.57855C1.46683 3.80077 1.92205 2.02299 2.37728 3.74162e-06C5.56386 3.06514 6.37317 7.17241 6.98014 11.5249C7.18246 13.0575 7.73883 14.8966 8.69986 15.9387C11.0772 18.636 11.1783 18.5134 9.45857 21.8238Z" transform="translate(24.0767 66.9766)" fill="black"/>
<path d="M2.33469 14.7126C0.463209 12.4444 -0.64956 9.93103 0.412634 6.55939C0.665537 5.70115 0.362047 4.53641 0.56437 3.61687C0.817273 2.39081 1.27249 1.16474 1.62655 -7.48324e-06C2.68875 0.551717 4.35792 0.735636 4.71199 1.71648C5.52128 3.80077 5.97651 6.31417 5.97651 8.64367C5.97651 11.2797 5.26837 13.8544 2.33469 14.7126Z" transform="translate(177.176 32.1567)" fill="black"/>
<path d="M0.171415 5.21072C0.171415 5.08812 0.171415 5.02682 0.171415 4.90421C-0.182649 2.81992 -0.132081 -3.74162e-06 1.7394 -3.74162e-06C2.85218 -3.74162e-06 4.11669 3.06513 4.92598 4.96552C5.43179 6.25287 5.17888 7.96934 5.17888 9.44061C5.17888 11.2184 4.67309 12.6283 2.95335 12.8123C1.18303 13.0575 0.576036 11.954 0.525455 9.93104C0.474875 8.33717 0.22199 6.7433 0.070248 5.08813C0.070248 5.21074 0.120835 5.21072 0.171415 5.21072Z" transform="translate(165.278 32.8311)" fill="black"/>
<path d="M13.0232 3.74162e-06C11.3034 4.72031 9.88719 5.08813 7.45931 2.45211C6.34654 1.22606 5.84073 1.77778 5.18318 3.06514C3.76693 5.63985 1.33907 5.76245 0.0745504 3.31035C-0.178353 2.81992 0.276867 1.04214 0.479189 1.04214C4.6268 0.613019 8.82499 0.36782 13.0232 3.74162e-06Z" transform="translate(101.947 101.613)" fill="black"/>
<path d="M-6.1744e-06 7.48324e-06C2.98425 0.490429 3.03485 3.24904 4.09705 5.63984C5.41214 8.58237 2.8831 10.6054 3.89471 13.3027C2.8831 13.4866 1.87148 13.6092 1.11277 13.7318C0.75871 9.0728 0.404639 4.84292 -6.1744e-06 7.48324e-06Z" transform="translate(9.10449 86.9614)" fill="black"/>
<path d="M3.90211 3.12643C2.78933 4.16858 2.08122 4.90421 1.32251 5.57854C0.867282 4.84291 -0.0937689 3.98467 0.00739238 3.37164C0.159134 2.20689 0.917869 1.10344 1.42368 -7.48324e-06C2.1318 0.85823 2.78933 1.71647 3.90211 3.12643Z" transform="translate(167.313 76.9077)" fill="black"/>
<path d="M0 4.5364C0.0505807 3.00383 0.151754 1.53257 0.202335 0C0.455238 0 0.708142 3.74071e-06 0.961045 0.0613064C0.961045 1.59387 0.961045 3.12644 0.961045 4.65901C0.657561 4.59771 0.354065 4.5364 0 4.5364Z" transform="translate(33.4844 32.8923)" fill="black"/>
<path d="M112.593 3.74162e-06C110.468 7.41763 116.184 8.58237 118.612 12.1379C117.145 13.364 8.54813 13.977 0 12.751C0.809291 11.954 1.36568 11.4636 1.87149 10.9732C3.28775 9.56322 5.00747 8.45977 6.12025 6.7433C8.04231 3.67816 10.2173 2.63601 13.4039 2.63601C44.1569 2.69731 74.91 2.51341 105.663 2.3908C105.916 2.3908 106.169 2.3908 106.422 2.3908C108.647 2.2682 111.277 4.04598 112.593 3.74162e-06ZM89.8818 11.0345C89.8818 10.8506 89.8819 10.728 89.9324 10.5441C64.3892 10.5441 38.7954 10.5441 13.2521 10.5441C13.2521 10.728 13.2521 10.8506 13.2521 11.0345C38.7448 11.0345 64.3386 11.0345 89.8818 11.0345ZM110.873 10.8506C110.923 10.6667 110.923 10.5441 110.974 10.3602C104.55 10.3602 98.0759 10.3602 91.6521 10.3602C91.6521 10.5441 91.6521 10.6667 91.6521 10.8506C98.0759 10.8506 104.449 10.8506 110.873 10.8506Z" transform="translate(196.354 39.3904)" fill="white"/>
<path d="M11.8593 5.99633C9.88668 6.85457 8.57153 7.34499 7.25644 7.95802C5.18263 8.93886 3.21002 10.8393 1.03505 8.32584C0.73157 7.95803 0.377469 7.6515 0.175146 7.22238C-0.532983 5.4446 0.984474 2.25687 3.31118 0.601699C5.08151 -0.624355 6.59893 0.11127 7.61054 2.01165C8.26809 3.23771 8.52098 4.21856 10.1901 3.72814C12.1628 3.29902 11.9099 5.2607 11.8593 5.99633Z" transform="translate(374.324 11.509)" fill="white"/>
<path d="M6.92954 6.55277C5.36154 6.73668 3.74294 7.10451 2.17494 7.04321C1.41623 7.04321 0.708142 6.24627 1.23488e-05 5.81715C0.404658 4.89761 0.556412 3.54896 1.21396 3.11984C3.03486 1.89379 5.00751 0.790338 7.03074 0.0547055C7.78945 -0.190505 9.10452 0.422518 9.66091 1.21945C10.5208 2.44551 11.0266 4.10067 11.4818 5.63323C11.5324 5.81714 10.5713 6.73668 10.0149 6.85929C9.05391 7.0432 7.99172 6.92059 6.98011 6.92059C6.92953 6.79799 6.92954 6.67538 6.92954 6.55277Z" transform="translate(310.11 9.97168)" fill="white"/>
<path d="M-2.46976e-05 9.19541C0.202298 6.86591 -0.556375 4.53641 2.1244 3.67817C2.68079 3.49426 2.78195 1.90038 3.38892 1.28735C3.99588 0.613019 4.90634 0.0613102 5.66505 7.48324e-06C6.17085 7.48324e-06 7.0813 0.919548 7.18247 1.53257C7.33421 2.39081 7.18247 3.80077 6.67666 4.2912C4.95692 6.00767 3.08541 7.41763 1.21392 8.8889C0.96102 9.13411 0.556363 9.0728 -2.46976e-05 9.19541Z" transform="translate(333.782 25.3523)" fill="white"/>
<path d="M8.19405 1.96168C5.86734 4.47509 3.28776 6.31418 1.23488e-05 6.49809C2.63021 4.3525 5.2604 2.26818 8.09292 -1.49665e-05C8.09292 0.919525 8.09292 1.53257 8.09292 2.08429C8.1435 2.08429 8.19405 1.96168 8.19405 1.96168Z" transform="translate(81.9912 142.992)" fill="black"/>
<path d="M-1.23488e-05 1.49647C-1.23488e-05 -0.342609 2.8831 -0.649122 6.272 1.49647C4.24878 1.49647 2.22554 1.49647 -1.23488e-05 1.49647Z" transform="translate(119.017 156.085)" fill="black"/>
<path d="M5.5133 3.54735C3.23717 2.56651 1.61858 1.83086 0 1.15653C1.92206 -0.805151 3.13601 -0.43732 5.5133 3.54735Z" transform="translate(95.1929 144.288)" fill="black"/>
<path d="M-1.23488e-05 -7.48324e-06C6.37315 -7.48324e-06 12.7463 -7.48324e-06 19.1195 -7.48324e-06C19.1195 0.0612952 19.1195 0.183916 19.1195 0.245218C12.7463 0.245218 6.37315 0.245218 -1.23488e-05 0.245218C-1.23488e-05 0.122613 -1.23488e-05 0.0612952 -1.23488e-05 -7.48324e-06Z" transform="translate(230.799 130.548)" fill="black"/>
<path d="M1.16336 0.119243C4.34994 -0.8616 3.33832 4.53302 6.12026 4.47172C3.03484 7.96597 3.03485 7.96598 1.23488e-05 6.43341C0.303496 4.47173 0.708135 2.51005 1.16336 0.119243Z" transform="translate(44.3086 127.302)" fill="black"/>
<path d="M-1.23488e-05 0.36782C1.97263 0.245214 3.8947 0.122605 6.06967 0C5.00747 4.04598 2.93367 4.35248 -1.23488e-05 1.40995C-1.23488e-05 1.04214 -1.23488e-05 0.735636 -1.23488e-05 0.36782Z" transform="translate(39.605 117.49)" fill="black"/>
<path d="M4.85572 0.0272531C7.23301 -0.0340496 9.61031 -0.217962 11.1277 2.72457C12.0382 4.50234 11.937 5.851 10.2679 6.58663C7.63769 7.81268 4.80519 9.46786 2.37732 6.34142C1.31512 4.99276 0.758697 3.03107 -1.23488e-05 1.31459C1.36567 0.885476 2.73133 0.456372 4.09701 0.0272531C4.34991 -0.0340496 4.60281 0.0272531 4.85572 0.0272531Z" transform="translate(347.388 101.034)" fill="black"/>
<path d="M0.797085 1.77779C2.66857 2.0843 4.43889 2.20689 6.10805 2.75861C6.61386 2.94252 6.81617 4.22989 7.17024 5.02682C5.75398 5.63985 4.33772 6.49808 2.87088 6.74329C2.11217 6.86589 0.898247 5.94636 0.544182 5.08813C-0.265108 3.24905 -0.366282 1.22605 1.60636 -7.48324e-06C1.40404 0.429111 1.15115 0.98085 0.797085 1.77779Z" transform="translate(342.039 110.318)" fill="black"/>
<path d="M3.64182 5.63985C2.32672 5.63985 1.26449 5.63985 -2.46976e-05 5.63985C0.606943 3.73947 1.16337 2.02299 1.8715 -3.74162e-06C2.47846 1.96168 2.98427 3.61686 3.64182 5.63985Z" transform="translate(268.786 107.314)" fill="black"/>
<path d="M2.88307 5.02682C1.87146 5.02682 1.06219 5.02682 0 5.02682C0.455226 3.43295 0.859847 1.83907 1.36565 -7.48324e-06C1.87146 1.71647 2.32669 3.18774 2.88307 5.02682Z" transform="translate(239.348 107.559)" fill="black"/>
<path d="M-6.1744e-06 1.83907C2.57961 1.16474 4.60285 0.613019 6.87898 -7.48324e-06C5.91795 4.96551 3.54064 5.70114 -6.1744e-06 1.83907Z" transform="translate(140.108 99.8962)" fill="black"/>
<path d="M76.6803 0.490425C51.137 0.490425 25.5938 0.490425 -1.23488e-05 0.490425C-1.23488e-05 0.306517 -1.23488e-05 0.183901 -1.23488e-05 -7.48324e-06C25.5432 -7.48324e-06 51.137 -7.48324e-06 76.6803 -7.48324e-06C76.6803 0.183901 76.6803 0.36782 76.6803 0.490425Z" transform="translate(209.556 49.9346)" fill="black"/>
<path d="M19.2206 0.490414C12.7969 0.490414 6.42372 0.490414 -2.46976e-05 0.490414C-2.46976e-05 0.306506 -2.46976e-05 0.183908 -2.46976e-05 0C6.42372 0 12.8981 0 19.3218 0C19.2712 0.183908 19.2712 0.367809 19.2206 0.490414Z" transform="translate(288.006 49.751)" fill="black"/>
</g>
</svg>
