<svg viewBox="0 0 84 44" fill="none" xmlns="http://www.w3.org/2000/svg">
<rect width="20" height="43" fill="black"/>
<path d="M7.21875 2.46875V8.08789C7.21875 9.02148 6.92578 9.75977 6.33984 10.3027C5.75781 10.8457 4.96094 11.1172 3.94922 11.1172C2.95312 11.1172 2.16211 10.8535 1.57617 10.3262C0.990234 9.79883 0.691406 9.07422 0.679688 8.15234V2.46875H2.4375V8.09961C2.4375 8.6582 2.57031 9.06641 2.83594 9.32422C3.10547 9.57812 3.47656 9.70508 3.94922 9.70508C4.9375 9.70508 5.43945 9.18555 5.45508 8.14648V2.46875H7.21875ZM5.57812 23.2422H2.49609L1.91016 25H0.0410156L3.2168 16.4688H4.8457L8.03906 25H6.16992L5.57812 23.2422ZM2.9707 21.8184H5.10352L4.03125 18.625L2.9707 21.8184ZM7.51172 37.9219C7.19531 38.3008 6.74805 38.5957 6.16992 38.8066C5.5918 39.0137 4.95117 39.1172 4.24805 39.1172C3.50977 39.1172 2.86133 38.957 2.30273 38.6367C1.74805 38.3125 1.31836 37.8438 1.01367 37.2305C0.712891 36.6172 0.558594 35.8965 0.550781 35.0684V34.4883C0.550781 33.6367 0.693359 32.9004 0.978516 32.2793C1.26758 31.6543 1.68164 31.1777 2.2207 30.8496C2.76367 30.5176 3.39844 30.3516 4.125 30.3516C5.13672 30.3516 5.92773 30.5938 6.49805 31.0781C7.06836 31.5586 7.40625 32.2598 7.51172 33.1816H5.80078C5.72266 32.6934 5.54883 32.3359 5.2793 32.1094C5.01367 31.8828 4.64648 31.7695 4.17773 31.7695C3.58008 31.7695 3.125 31.9941 2.8125 32.4434C2.5 32.8926 2.3418 33.5605 2.33789 34.4473V34.9922C2.33789 35.8867 2.50781 36.5625 2.84766 37.0195C3.1875 37.4766 3.68555 37.7051 4.3418 37.7051C5.00195 37.7051 5.47266 37.5645 5.75391 37.2832V35.8125H4.1543V34.5176H7.51172V37.9219Z" transform="translate(11 1)" fill="#D4D801"/>
<path d="M11.572 7.57812L10.658 8.5625V11H8.90016V2.46875H10.658V6.33594L11.4314 5.27539L13.6052 2.46875H15.7673L12.738 6.25977L15.8552 11H13.7634L11.572 7.57812ZM19.9155 7.87695H18.5152V11H16.7573V2.46875H19.9273C20.9351 2.46875 21.7124 2.69336 22.2593 3.14258C22.8062 3.5918 23.0796 4.22656 23.0796 5.04688C23.0796 5.62891 22.9527 6.11523 22.6987 6.50586C22.4487 6.89258 22.0679 7.20117 21.5562 7.43164L23.4019 10.918V11H21.5152L19.9155 7.87695ZM18.5152 6.45312H19.9331C20.3745 6.45312 20.7163 6.3418 20.9585 6.11914C21.2007 5.89258 21.3218 5.58203 21.3218 5.1875C21.3218 4.78516 21.2066 4.46875 20.9761 4.23828C20.7495 4.00781 20.3999 3.89258 19.9273 3.89258H18.5152V6.45312ZM29.4778 9.24219H26.3958L25.8098 11H23.9407L27.1165 2.46875H28.7454L31.9387 11H30.0696L29.4778 9.24219ZM26.8704 7.81836H29.0032L27.9309 4.625L26.8704 7.81836ZM34.8448 11H33.087V2.46875H34.8448V11ZM43.657 11H41.8992L38.4773 5.38672V11H36.7195V2.46875H38.4773L41.9051 8.09375V2.46875H43.657V11ZM47.3013 11H45.5435V2.46875H47.3013V11ZM54.098 9.24219H51.0159L50.43 11H48.5609L51.7366 2.46875H53.3655L56.5589 11H54.6898L54.098 9.24219ZM51.4905 7.81836H53.6234L52.5511 4.625L51.4905 7.81836ZM64.5333 11H62.7755L59.3536 5.38672V11H57.5958V2.46875H59.3536L62.7813 8.09375V2.46875H64.5333V11ZM9.07594 25V16.4688H11.7009C12.4509 16.4688 13.1209 16.6387 13.7107 16.9785C14.3045 17.3145 14.7673 17.7949 15.0994 18.4199C15.4314 19.041 15.5974 19.748 15.5974 20.541V20.9336C15.5974 21.7266 15.4334 22.4316 15.1052 23.0488C14.781 23.666 14.322 24.1445 13.7283 24.4844C13.1345 24.8242 12.4646 24.9961 11.7185 25H9.07594ZM10.8337 17.8926V23.5879H11.6834C12.3709 23.5879 12.8962 23.3633 13.2595 22.9141C13.6228 22.4648 13.8084 21.8223 13.8162 20.9863V20.5352C13.8162 19.668 13.6365 19.0117 13.2771 18.5664C12.9177 18.1172 12.3923 17.8926 11.7009 17.8926H10.8337ZM20.1441 22.8848L22.0777 16.4688H24.0347L21.064 25H19.23L16.271 16.4688H18.2222L20.1441 22.8848ZM30.2161 21.3027H26.8411V23.5879H30.802V25H25.0833V16.4688H30.7903V17.8926H26.8411V19.9258H30.2161V21.3027ZM35.2315 21.877H33.8311V25H32.0733V16.4688H35.2432C36.251 16.4688 37.0284 16.6934 37.5752 17.1426C38.1221 17.5918 38.3955 18.2266 38.3955 19.0469C38.3955 19.6289 38.2686 20.1152 38.0147 20.5059C37.7647 20.8926 37.3838 21.2012 36.8721 21.4316L38.7178 24.918V25H36.8311L35.2315 21.877ZM33.8311 20.4531H35.2491C35.6905 20.4531 36.0323 20.3418 36.2745 20.1191C36.5166 19.8926 36.6377 19.582 36.6377 19.1875C36.6377 18.7852 36.5225 18.4688 36.292 18.2383C36.0655 18.0078 35.7159 17.8926 35.2432 17.8926H33.8311V20.4531ZM46.1062 17.8926H43.493V25H41.7352V17.8926H39.157V16.4688H46.1062V17.8926ZM49.2232 25H47.4654V16.4688H49.2232V25ZM55.5218 22.7617C55.5218 22.4297 55.4046 22.1758 55.1702 22C54.9359 21.8203 54.514 21.6328 53.9046 21.4375C53.2952 21.2383 52.8128 21.043 52.4573 20.8516C51.4886 20.3281 51.0042 19.623 51.0042 18.7363C51.0042 18.2754 51.1331 17.8652 51.3909 17.5059C51.6527 17.1426 52.0257 16.8594 52.5101 16.6562C52.9984 16.4531 53.5452 16.3516 54.1507 16.3516C54.7601 16.3516 55.303 16.4629 55.7796 16.6855C56.2562 16.9043 56.6253 17.2148 56.887 17.6172C57.1527 18.0195 57.2855 18.4766 57.2855 18.9883H55.5277C55.5277 18.5977 55.4046 18.2949 55.1585 18.0801C54.9124 17.8613 54.5667 17.752 54.1214 17.752C53.6917 17.752 53.3577 17.8438 53.1195 18.0273C52.8812 18.207 52.762 18.4453 52.762 18.7422C52.762 19.0195 52.9007 19.252 53.178 19.4395C53.4593 19.627 53.8714 19.8027 54.4144 19.9668C55.4144 20.2676 56.1429 20.6406 56.5999 21.0859C57.057 21.5312 57.2855 22.0859 57.2855 22.75C57.2855 23.4883 57.0062 24.0684 56.4476 24.4902C55.889 24.9082 55.137 25.1172 54.1917 25.1172C53.5355 25.1172 52.9378 24.998 52.3988 24.7598C51.8597 24.5176 51.4476 24.1875 51.1624 23.7695C50.8812 23.3516 50.7405 22.8672 50.7405 22.3164H52.5042C52.5042 23.2578 53.0667 23.7285 54.1917 23.7285C54.6097 23.7285 54.9359 23.6445 55.1702 23.4766C55.4046 23.3047 55.5218 23.0664 55.5218 22.7617ZM60.5899 25H58.8321V16.4688H60.5899V25ZM69.4022 25H67.6444L64.2225 19.3867V25H62.4647V16.4688H64.2225L67.6502 22.0938V16.4688H69.4022V25ZM12.3396 35.877H10.9392V39H9.18141V30.4688H12.3513C13.3591 30.4688 14.1365 30.6934 14.6834 31.1426C15.2302 31.5918 15.5037 32.2266 15.5037 33.0469C15.5037 33.6289 15.3767 34.1152 15.1228 34.5059C14.8728 34.8926 14.492 35.2012 13.9802 35.4316L15.8259 38.918V39H13.9392L12.3396 35.877ZM10.9392 34.4531H12.3572C12.7986 34.4531 13.1404 34.3418 13.3826 34.1191C13.6248 33.8926 13.7459 33.582 13.7459 33.1875C13.7459 32.7852 13.6306 32.4688 13.4002 32.2383C13.1736 32.0078 12.824 31.8926 12.3513 31.8926H10.9392V34.4531ZM24.0933 34.9277C24.0933 35.7676 23.9448 36.5039 23.648 37.1367C23.3511 37.7695 22.9253 38.2578 22.3706 38.6016C21.8198 38.9453 21.187 39.1172 20.4722 39.1172C19.7652 39.1172 19.1343 38.9473 18.5796 38.6074C18.0249 38.2676 17.5952 37.7832 17.2905 37.1543C16.9859 36.5215 16.8316 35.7949 16.8277 34.9746V34.5527C16.8277 33.7129 16.978 32.9746 17.2788 32.3379C17.5835 31.6973 18.0112 31.207 18.562 30.8672C19.1167 30.5234 19.7495 30.3516 20.4605 30.3516C21.1714 30.3516 21.8023 30.5234 22.353 30.8672C22.9077 31.207 23.3355 31.6973 23.6362 32.3379C23.9409 32.9746 24.0933 33.7109 24.0933 34.5469V34.9277ZM22.312 34.541C22.312 33.6465 22.1519 32.9668 21.8316 32.502C21.5112 32.0371 21.0542 31.8047 20.4605 31.8047C19.8706 31.8047 19.4155 32.0352 19.0952 32.4961C18.7749 32.9531 18.6128 33.625 18.6089 34.5117V34.9277C18.6089 35.7988 18.7691 36.4746 19.0894 36.9551C19.4097 37.4355 19.8706 37.6758 20.4722 37.6758C21.062 37.6758 21.5152 37.4453 21.8316 36.9844C22.148 36.5195 22.3081 35.8438 22.312 34.957V34.541ZM32.0677 30.4688V36.0879C32.0677 37.0215 31.7747 37.7598 31.1887 38.3027C30.6067 38.8457 29.8098 39.1172 28.7981 39.1172C27.802 39.1172 27.011 38.8535 26.4251 38.3262C25.8391 37.7988 25.5403 37.0742 25.5286 36.1523V30.4688H27.2864V36.0996C27.2864 36.6582 27.4192 37.0664 27.6848 37.3242C27.9544 37.5781 28.3255 37.7051 28.7981 37.7051C29.7864 37.7051 30.2884 37.1855 30.304 36.1465V30.4688H32.0677ZM35.5069 35.9941V39H33.7491V30.4688H37.0772C37.7178 30.4688 38.2803 30.5859 38.7647 30.8203C39.253 31.0547 39.628 31.3887 39.8897 31.8223C40.1514 32.252 40.2823 32.7422 40.2823 33.293C40.2823 34.1289 39.9952 34.7891 39.4209 35.2734C38.8506 35.7539 38.0596 35.9941 37.0479 35.9941H35.5069ZM35.5069 34.5703H37.0772C37.542 34.5703 37.8955 34.4609 38.1377 34.2422C38.3838 34.0234 38.5069 33.7109 38.5069 33.3047C38.5069 32.8867 38.3838 32.5488 38.1377 32.291C37.8916 32.0332 37.5518 31.9004 37.1182 31.8926H35.5069V34.5703Z" transform="translate(11 1)" fill="white"/>
<path d="M7.21875 2.46875V8.08789C7.21875 9.02148 6.92578 9.75977 6.33984 10.3027C5.75781 10.8457 4.96094 11.1172 3.94922 11.1172C2.95312 11.1172 2.16211 10.8535 1.57617 10.3262C0.990234 9.79883 0.691406 9.07422 0.679688 8.15234V2.46875H2.4375V8.09961C2.4375 8.6582 2.57031 9.06641 2.83594 9.32422C3.10547 9.57812 3.47656 9.70508 3.94922 9.70508C4.9375 9.70508 5.43945 9.18555 5.45508 8.14648V2.46875H7.21875ZM5.57812 23.2422H2.49609L1.91016 25H0.0410156L3.2168 16.4688H4.8457L8.03906 25H6.16992L5.57812 23.2422ZM2.9707 21.8184H5.10352L4.03125 18.625L2.9707 21.8184ZM7.51172 37.9219C7.19531 38.3008 6.74805 38.5957 6.16992 38.8066C5.5918 39.0137 4.95117 39.1172 4.24805 39.1172C3.50977 39.1172 2.86133 38.957 2.30273 38.6367C1.74805 38.3125 1.31836 37.8438 1.01367 37.2305C0.712891 36.6172 0.558594 35.8965 0.550781 35.0684V34.4883C0.550781 33.6367 0.693359 32.9004 0.978516 32.2793C1.26758 31.6543 1.68164 31.1777 2.2207 30.8496C2.76367 30.5176 3.39844 30.3516 4.125 30.3516C5.13672 30.3516 5.92773 30.5938 6.49805 31.0781C7.06836 31.5586 7.40625 32.2598 7.51172 33.1816H5.80078C5.72266 32.6934 5.54883 32.3359 5.2793 32.1094C5.01367 31.8828 4.64648 31.7695 4.17773 31.7695C3.58008 31.7695 3.125 31.9941 2.8125 32.4434C2.5 32.8926 2.3418 33.5605 2.33789 34.4473V34.9922C2.33789 35.8867 2.50781 36.5625 2.84766 37.0195C3.1875 37.4766 3.68555 37.7051 4.3418 37.7051C5.00195 37.7051 5.47266 37.5645 5.75391 37.2832V35.8125H4.1543V34.5176H7.51172V37.9219Z" transform="translate(13 1)" fill="white" fill-opacity="0.1"/>
<path d="M11.572 7.57812L10.658 8.5625V11H8.90016V2.46875H10.658V6.33594L11.4314 5.27539L13.6052 2.46875H15.7673L12.738 6.25977L15.8552 11H13.7634L11.572 7.57812ZM19.9155 7.87695H18.5152V11H16.7573V2.46875H19.9273C20.9351 2.46875 21.7124 2.69336 22.2593 3.14258C22.8062 3.5918 23.0796 4.22656 23.0796 5.04688C23.0796 5.62891 22.9527 6.11523 22.6987 6.50586C22.4487 6.89258 22.0679 7.20117 21.5562 7.43164L23.4019 10.918V11H21.5152L19.9155 7.87695ZM18.5152 6.45312H19.9331C20.3745 6.45312 20.7163 6.3418 20.9585 6.11914C21.2007 5.89258 21.3218 5.58203 21.3218 5.1875C21.3218 4.78516 21.2066 4.46875 20.9761 4.23828C20.7495 4.00781 20.3999 3.89258 19.9273 3.89258H18.5152V6.45312ZM29.4778 9.24219H26.3958L25.8098 11H23.9407L27.1165 2.46875H28.7454L31.9387 11H30.0696L29.4778 9.24219ZM26.8704 7.81836H29.0032L27.9309 4.625L26.8704 7.81836ZM34.8448 11H33.087V2.46875H34.8448V11ZM43.657 11H41.8992L38.4773 5.38672V11H36.7195V2.46875H38.4773L41.9051 8.09375V2.46875H43.657V11ZM47.3013 11H45.5435V2.46875H47.3013V11ZM54.098 9.24219H51.0159L50.43 11H48.5609L51.7366 2.46875H53.3655L56.5589 11H54.6898L54.098 9.24219ZM51.4905 7.81836H53.6234L52.5511 4.625L51.4905 7.81836ZM64.5333 11H62.7755L59.3536 5.38672V11H57.5958V2.46875H59.3536L62.7813 8.09375V2.46875H64.5333V11ZM9.07594 25V16.4688H11.7009C12.4509 16.4688 13.1209 16.6387 13.7107 16.9785C14.3045 17.3145 14.7673 17.7949 15.0994 18.4199C15.4314 19.041 15.5974 19.748 15.5974 20.541V20.9336C15.5974 21.7266 15.4334 22.4316 15.1052 23.0488C14.781 23.666 14.322 24.1445 13.7283 24.4844C13.1345 24.8242 12.4646 24.9961 11.7185 25H9.07594ZM10.8337 17.8926V23.5879H11.6834C12.3709 23.5879 12.8962 23.3633 13.2595 22.9141C13.6228 22.4648 13.8084 21.8223 13.8162 20.9863V20.5352C13.8162 19.668 13.6365 19.0117 13.2771 18.5664C12.9177 18.1172 12.3923 17.8926 11.7009 17.8926H10.8337ZM20.1441 22.8848L22.0777 16.4688H24.0347L21.064 25H19.23L16.271 16.4688H18.2222L20.1441 22.8848ZM30.2161 21.3027H26.8411V23.5879H30.802V25H25.0833V16.4688H30.7903V17.8926H26.8411V19.9258H30.2161V21.3027ZM35.2315 21.877H33.8311V25H32.0733V16.4688H35.2432C36.251 16.4688 37.0284 16.6934 37.5752 17.1426C38.1221 17.5918 38.3955 18.2266 38.3955 19.0469C38.3955 19.6289 38.2686 20.1152 38.0147 20.5059C37.7647 20.8926 37.3838 21.2012 36.8721 21.4316L38.7178 24.918V25H36.8311L35.2315 21.877ZM33.8311 20.4531H35.2491C35.6905 20.4531 36.0323 20.3418 36.2745 20.1191C36.5166 19.8926 36.6377 19.582 36.6377 19.1875C36.6377 18.7852 36.5225 18.4688 36.292 18.2383C36.0655 18.0078 35.7159 17.8926 35.2432 17.8926H33.8311V20.4531ZM46.1062 17.8926H43.493V25H41.7352V17.8926H39.157V16.4688H46.1062V17.8926ZM49.2232 25H47.4654V16.4688H49.2232V25ZM55.5218 22.7617C55.5218 22.4297 55.4046 22.1758 55.1702 22C54.9359 21.8203 54.514 21.6328 53.9046 21.4375C53.2952 21.2383 52.8128 21.043 52.4573 20.8516C51.4886 20.3281 51.0042 19.623 51.0042 18.7363C51.0042 18.2754 51.1331 17.8652 51.3909 17.5059C51.6527 17.1426 52.0257 16.8594 52.5101 16.6562C52.9984 16.4531 53.5452 16.3516 54.1507 16.3516C54.7601 16.3516 55.303 16.4629 55.7796 16.6855C56.2562 16.9043 56.6253 17.2148 56.887 17.6172C57.1527 18.0195 57.2855 18.4766 57.2855 18.9883H55.5277C55.5277 18.5977 55.4046 18.2949 55.1585 18.0801C54.9124 17.8613 54.5667 17.752 54.1214 17.752C53.6917 17.752 53.3577 17.8438 53.1195 18.0273C52.8812 18.207 52.762 18.4453 52.762 18.7422C52.762 19.0195 52.9007 19.252 53.178 19.4395C53.4593 19.627 53.8714 19.8027 54.4144 19.9668C55.4144 20.2676 56.1429 20.6406 56.5999 21.0859C57.057 21.5312 57.2855 22.0859 57.2855 22.75C57.2855 23.4883 57.0062 24.0684 56.4476 24.4902C55.889 24.9082 55.137 25.1172 54.1917 25.1172C53.5355 25.1172 52.9378 24.998 52.3988 24.7598C51.8597 24.5176 51.4476 24.1875 51.1624 23.7695C50.8812 23.3516 50.7405 22.8672 50.7405 22.3164H52.5042C52.5042 23.2578 53.0667 23.7285 54.1917 23.7285C54.6097 23.7285 54.9359 23.6445 55.1702 23.4766C55.4046 23.3047 55.5218 23.0664 55.5218 22.7617ZM60.5899 25H58.8321V16.4688H60.5899V25ZM69.4022 25H67.6444L64.2225 19.3867V25H62.4647V16.4688H64.2225L67.6502 22.0938V16.4688H69.4022V25ZM12.3396 35.877H10.9392V39H9.18141V30.4688H12.3513C13.3591 30.4688 14.1365 30.6934 14.6834 31.1426C15.2302 31.5918 15.5037 32.2266 15.5037 33.0469C15.5037 33.6289 15.3767 34.1152 15.1228 34.5059C14.8728 34.8926 14.492 35.2012 13.9802 35.4316L15.8259 38.918V39H13.9392L12.3396 35.877ZM10.9392 34.4531H12.3572C12.7986 34.4531 13.1404 34.3418 13.3826 34.1191C13.6248 33.8926 13.7459 33.582 13.7459 33.1875C13.7459 32.7852 13.6306 32.4688 13.4002 32.2383C13.1736 32.0078 12.824 31.8926 12.3513 31.8926H10.9392V34.4531ZM24.0933 34.9277C24.0933 35.7676 23.9448 36.5039 23.648 37.1367C23.3511 37.7695 22.9253 38.2578 22.3706 38.6016C21.8198 38.9453 21.187 39.1172 20.4722 39.1172C19.7652 39.1172 19.1343 38.9473 18.5796 38.6074C18.0249 38.2676 17.5952 37.7832 17.2905 37.1543C16.9859 36.5215 16.8316 35.7949 16.8277 34.9746V34.5527C16.8277 33.7129 16.978 32.9746 17.2788 32.3379C17.5835 31.6973 18.0112 31.207 18.562 30.8672C19.1167 30.5234 19.7495 30.3516 20.4605 30.3516C21.1714 30.3516 21.8023 30.5234 22.353 30.8672C22.9077 31.207 23.3355 31.6973 23.6362 32.3379C23.9409 32.9746 24.0933 33.7109 24.0933 34.5469V34.9277ZM22.312 34.541C22.312 33.6465 22.1519 32.9668 21.8316 32.502C21.5112 32.0371 21.0542 31.8047 20.4605 31.8047C19.8706 31.8047 19.4155 32.0352 19.0952 32.4961C18.7749 32.9531 18.6128 33.625 18.6089 34.5117V34.9277C18.6089 35.7988 18.7691 36.4746 19.0894 36.9551C19.4097 37.4355 19.8706 37.6758 20.4722 37.6758C21.062 37.6758 21.5152 37.4453 21.8316 36.9844C22.148 36.5195 22.3081 35.8438 22.312 34.957V34.541ZM32.0677 30.4688V36.0879C32.0677 37.0215 31.7747 37.7598 31.1887 38.3027C30.6067 38.8457 29.8098 39.1172 28.7981 39.1172C27.802 39.1172 27.011 38.8535 26.4251 38.3262C25.8391 37.7988 25.5403 37.0742 25.5286 36.1523V30.4688H27.2864V36.0996C27.2864 36.6582 27.4192 37.0664 27.6848 37.3242C27.9544 37.5781 28.3255 37.7051 28.7981 37.7051C29.7864 37.7051 30.2884 37.1855 30.304 36.1465V30.4688H32.0677ZM35.5069 35.9941V39H33.7491V30.4688H37.0772C37.7178 30.4688 38.2803 30.5859 38.7647 30.8203C39.253 31.0547 39.628 31.3887 39.8897 31.8223C40.1514 32.252 40.2823 32.7422 40.2823 33.293C40.2823 34.1289 39.9952 34.7891 39.4209 35.2734C38.8506 35.7539 38.0596 35.9941 37.0479 35.9941H35.5069ZM35.5069 34.5703H37.0772C37.542 34.5703 37.8955 34.4609 38.1377 34.2422C38.3838 34.0234 38.5069 33.7109 38.5069 33.3047C38.5069 32.8867 38.3838 32.5488 38.1377 32.291C37.8916 32.0332 37.5518 31.9004 37.1182 31.8926H35.5069V34.5703Z" transform="translate(13 1)" fill="#333333"/>
</svg>
